M48
METRIC,TZ
T1C0.300
T2C0.400
T3C0.800
T4C1.000
T5C3.200
%
G90
G05
T1
X90896Y-105396
X91000Y-109000
X92115Y-135395
X92500Y-118500
X92500Y-123500
X94351Y-123500
X95000Y-118500
X96000Y-99000
X96783Y-109717
X97346Y-82790
X97404Y-85404
X98000Y-104704
X99000Y-95500
X99000Y-98000
X99261Y-111239
X100000Y-116575
X100000Y-118425
X100230Y-63280
X100402Y-104704
X100500Y-96730
X100500Y-98000
X101361Y-94986
X101375Y-97980
X101375Y-104704
X102000Y-109625
X102173Y-94173
X102175Y-97980
X102500Y-83500
X102800Y-99000
X103000Y-81645
X103797Y-102797
X104100Y-62820
X106009Y-109625
X106013Y-119375
X106013Y-123325
X106297Y-100297
X106450Y-77920
X106542Y-135395
X107000Y-110000
X107838Y-127275
X107838Y-128926
X107899Y-87899
X108000Y-108000
X108000Y-116575
X108000Y-118425
X108012Y-102512
X109200Y-104389
X109239Y-98239
X109439Y-108719
X109500Y-97355
X109825Y-105210
X110064Y-110936
X113500Y-77920
X113500Y-97355
X113500Y-98239
X114192Y-92192
X115111Y-109445
X115354Y-91354
X116500Y-75500
X117000Y-90875
X117600Y-63270
X117600Y-73620
X119000Y-76500
X119553Y-98239
X119582Y-97355
X120939Y-81186
X120939Y-86324
X120969Y-135395
X121064Y-97355
X121064Y-98239
X122908Y-90705
X123000Y-91500
X123500Y-79200
X123500Y-86324
X126000Y-80500
X128500Y-79825
X133035Y-71005
X135396Y-135395
X135500Y-78500
X135500Y-80500
X136300Y-78500
X136300Y-80500
X138680Y-91320
X139000Y-90339
X141000Y-103875
X141042Y-107500
X147630Y-70975
X149824Y-135395
X150434Y-82455
X151096Y-82904
X151934Y-80934
X152500Y-81500
X155555Y-89475
X158554Y-122479
X158575Y-97000
X160425Y-97000
X160425Y-122500
X162225Y-70990
X164251Y-135395
X164433Y-81710
X164433Y-111613
X164433Y-126540
T2
X140838Y-128500
X146447Y-128500
T3
X144895Y-87375
X144895Y-89915
X144895Y-92455
X144895Y-94995
X144895Y-97535
X144895Y-100075
X144895Y-102615
X144895Y-105155
X144895Y-107695
X144895Y-110235
X152515Y-87375
X152515Y-89915
X152515Y-92455
X152515Y-94995
X152515Y-97535
X152515Y-100075
X152515Y-102615
X152515Y-105155
X152515Y-107695
X152515Y-110235
T4
X88828Y-89126
X88828Y-106906
X89122Y-130883
X89126Y-133669
X89475Y-122210
X89475Y-124750
X89475Y-127290
X89555Y-78635
X89555Y-81175
X89555Y-83715
X90985Y-78635
X90985Y-81175
X90985Y-83715
X91368Y-89126
X91368Y-106906
X93908Y-89126
X93908Y-106906
X95055Y-80457
X96448Y-89126
X96448Y-106906
X96945Y-122270
X96945Y-124810
X96945Y-127350
X97565Y-113145
X97565Y-115685
X98988Y-89126
X98988Y-106906
X100055Y-80457
X101528Y-89126
X101528Y-106906
X104068Y-89126
X104068Y-106906
X104915Y-114305
X106608Y-89126
X106608Y-106906
X106925Y-82570
X107455Y-114305
X109148Y-89126
X109148Y-106906
X109465Y-82570
X109995Y-114305
X111688Y-89126
X111688Y-106906
X112005Y-82570
X112535Y-114305
X114228Y-89126
X114228Y-106906
X114545Y-82570
X115075Y-114305
X116768Y-89126
X116768Y-106906
X117085Y-82570
X117615Y-114305
X119308Y-89126
X119308Y-106906
X119625Y-82570
X120155Y-114305
X121848Y-89126
X121848Y-106906
X122165Y-82570
X122695Y-114305
X124388Y-89126
X124388Y-106906
X124705Y-82570
X125235Y-114305
X126928Y-89126
X126928Y-106906
X127245Y-82570
X127775Y-114305
X129468Y-89126
X129468Y-106906
X129785Y-82570
X130315Y-114305
X132008Y-89126
X132008Y-106906
X132855Y-114305
X134548Y-89126
X134548Y-106906
X135395Y-114305
X137088Y-89126
X137088Y-106906
X163350Y-97325
X163350Y-99865
T5
X102000Y-133000
X117000Y-123000
X122500Y-73000
X159500Y-133000
X169000Y-91000
M30
