%TF.GenerationSoftware,KiCad,Pcbnew,9.0.7*%
%TF.CreationDate,2026-03-09T21:31:06+01:00*%
%TF.ProjectId,LedScreen,4c656453-6372-4656-956e-2e6b69636164,rev?*%
%TF.SameCoordinates,Original*%
%TF.FileFunction,Legend,Top*%
%TF.FilePolarity,Positive*%
%FSLAX46Y46*%
G04 Gerber Fmt 4.6, Leading zero omitted, Abs format (unit mm)*
G04 Created by KiCad (PCBNEW 9.0.7) date 2026-03-09 21:31:06*
%MOMM*%
%LPD*%
G01*
G04 APERTURE LIST*
%ADD10C,0.100000*%
%ADD11C,0.150000*%
%ADD12C,0.120000*%
%ADD13C,0.000000*%
G04 APERTURE END LIST*
D10*
X88276414Y-131217435D02*
X89934454Y-131217435D01*
X89934454Y-133166345D01*
X88276414Y-133166345D01*
X88276414Y-131217435D01*
G36*
X88276414Y-131217435D02*
G01*
X89934454Y-131217435D01*
X89934454Y-133166345D01*
X88276414Y-133166345D01*
X88276414Y-131217435D01*
G37*
X86524393Y-77259746D02*
X88954921Y-77259746D01*
X88954921Y-79862335D01*
X86524393Y-79862335D01*
X86524393Y-77259746D01*
G36*
X86524393Y-77259746D02*
G01*
X88954921Y-77259746D01*
X88954921Y-79862335D01*
X86524393Y-79862335D01*
X86524393Y-77259746D01*
G37*
X86500000Y-82492411D02*
X89008729Y-82492411D01*
X89008729Y-85095000D01*
X86500000Y-85095000D01*
X86500000Y-82492411D01*
G36*
X86500000Y-82492411D02*
G01*
X89008729Y-82492411D01*
X89008729Y-85095000D01*
X86500000Y-85095000D01*
X86500000Y-82492411D01*
G37*
X90554379Y-130487613D02*
X90554379Y-130249518D01*
X90554379Y-130249518D02*
X91054379Y-130249518D01*
X90816284Y-130654280D02*
X90816284Y-130820947D01*
X90554379Y-130892375D02*
X90554379Y-130654280D01*
X90554379Y-130654280D02*
X91054379Y-130654280D01*
X91054379Y-130654280D02*
X91054379Y-130892375D01*
X90554379Y-131106661D02*
X91054379Y-131106661D01*
X91054379Y-131106661D02*
X91054379Y-131225709D01*
X91054379Y-131225709D02*
X91030569Y-131297137D01*
X91030569Y-131297137D02*
X90982950Y-131344756D01*
X90982950Y-131344756D02*
X90935331Y-131368566D01*
X90935331Y-131368566D02*
X90840093Y-131392375D01*
X90840093Y-131392375D02*
X90768665Y-131392375D01*
X90768665Y-131392375D02*
X90673427Y-131368566D01*
X90673427Y-131368566D02*
X90625808Y-131344756D01*
X90625808Y-131344756D02*
X90578189Y-131297137D01*
X90578189Y-131297137D02*
X90554379Y-131225709D01*
X90554379Y-131225709D02*
X90554379Y-131106661D01*
X90554379Y-131987613D02*
X91054379Y-131987613D01*
X91054379Y-131987613D02*
X91054379Y-132178089D01*
X91054379Y-132178089D02*
X91030569Y-132225708D01*
X91030569Y-132225708D02*
X91006760Y-132249518D01*
X91006760Y-132249518D02*
X90959141Y-132273327D01*
X90959141Y-132273327D02*
X90887712Y-132273327D01*
X90887712Y-132273327D02*
X90840093Y-132249518D01*
X90840093Y-132249518D02*
X90816284Y-132225708D01*
X90816284Y-132225708D02*
X90792474Y-132178089D01*
X90792474Y-132178089D02*
X90792474Y-131987613D01*
X90554379Y-132559042D02*
X90578189Y-132511423D01*
X90578189Y-132511423D02*
X90601998Y-132487613D01*
X90601998Y-132487613D02*
X90649617Y-132463804D01*
X90649617Y-132463804D02*
X90792474Y-132463804D01*
X90792474Y-132463804D02*
X90840093Y-132487613D01*
X90840093Y-132487613D02*
X90863903Y-132511423D01*
X90863903Y-132511423D02*
X90887712Y-132559042D01*
X90887712Y-132559042D02*
X90887712Y-132630470D01*
X90887712Y-132630470D02*
X90863903Y-132678089D01*
X90863903Y-132678089D02*
X90840093Y-132701899D01*
X90840093Y-132701899D02*
X90792474Y-132725708D01*
X90792474Y-132725708D02*
X90649617Y-132725708D01*
X90649617Y-132725708D02*
X90601998Y-132701899D01*
X90601998Y-132701899D02*
X90578189Y-132678089D01*
X90578189Y-132678089D02*
X90554379Y-132630470D01*
X90554379Y-132630470D02*
X90554379Y-132559042D01*
X90887712Y-132892375D02*
X90554379Y-132987613D01*
X90554379Y-132987613D02*
X90792474Y-133082851D01*
X90792474Y-133082851D02*
X90554379Y-133178089D01*
X90554379Y-133178089D02*
X90887712Y-133273327D01*
X90578189Y-133654280D02*
X90554379Y-133606661D01*
X90554379Y-133606661D02*
X90554379Y-133511423D01*
X90554379Y-133511423D02*
X90578189Y-133463804D01*
X90578189Y-133463804D02*
X90625808Y-133439995D01*
X90625808Y-133439995D02*
X90816284Y-133439995D01*
X90816284Y-133439995D02*
X90863903Y-133463804D01*
X90863903Y-133463804D02*
X90887712Y-133511423D01*
X90887712Y-133511423D02*
X90887712Y-133606661D01*
X90887712Y-133606661D02*
X90863903Y-133654280D01*
X90863903Y-133654280D02*
X90816284Y-133678090D01*
X90816284Y-133678090D02*
X90768665Y-133678090D01*
X90768665Y-133678090D02*
X90721046Y-133439995D01*
X90554379Y-133892375D02*
X90887712Y-133892375D01*
X90792474Y-133892375D02*
X90840093Y-133916185D01*
X90840093Y-133916185D02*
X90863903Y-133939994D01*
X90863903Y-133939994D02*
X90887712Y-133987613D01*
X90887712Y-133987613D02*
X90887712Y-134035232D01*
D11*
X142553654Y-126347010D02*
X142220321Y-125870819D01*
X141982226Y-126347010D02*
X141982226Y-125347010D01*
X141982226Y-125347010D02*
X142363178Y-125347010D01*
X142363178Y-125347010D02*
X142458416Y-125394629D01*
X142458416Y-125394629D02*
X142506035Y-125442248D01*
X142506035Y-125442248D02*
X142553654Y-125537486D01*
X142553654Y-125537486D02*
X142553654Y-125680343D01*
X142553654Y-125680343D02*
X142506035Y-125775581D01*
X142506035Y-125775581D02*
X142458416Y-125823200D01*
X142458416Y-125823200D02*
X142363178Y-125870819D01*
X142363178Y-125870819D02*
X141982226Y-125870819D01*
X143458416Y-125347010D02*
X142982226Y-125347010D01*
X142982226Y-125347010D02*
X142934607Y-125823200D01*
X142934607Y-125823200D02*
X142982226Y-125775581D01*
X142982226Y-125775581D02*
X143077464Y-125727962D01*
X143077464Y-125727962D02*
X143315559Y-125727962D01*
X143315559Y-125727962D02*
X143410797Y-125775581D01*
X143410797Y-125775581D02*
X143458416Y-125823200D01*
X143458416Y-125823200D02*
X143506035Y-125918438D01*
X143506035Y-125918438D02*
X143506035Y-126156533D01*
X143506035Y-126156533D02*
X143458416Y-126251771D01*
X143458416Y-126251771D02*
X143410797Y-126299391D01*
X143410797Y-126299391D02*
X143315559Y-126347010D01*
X143315559Y-126347010D02*
X143077464Y-126347010D01*
X143077464Y-126347010D02*
X142982226Y-126299391D01*
X142982226Y-126299391D02*
X142934607Y-126251771D01*
X144511905Y-119675057D02*
X144559524Y-119627438D01*
X144559524Y-119627438D02*
X144654762Y-119579819D01*
X144654762Y-119579819D02*
X144892857Y-119579819D01*
X144892857Y-119579819D02*
X144988095Y-119627438D01*
X144988095Y-119627438D02*
X145035714Y-119675057D01*
X145035714Y-119675057D02*
X145083333Y-119770295D01*
X145083333Y-119770295D02*
X145083333Y-119865533D01*
X145083333Y-119865533D02*
X145035714Y-120008390D01*
X145035714Y-120008390D02*
X144464286Y-120579819D01*
X144464286Y-120579819D02*
X145083333Y-120579819D01*
X145464286Y-119675057D02*
X145511905Y-119627438D01*
X145511905Y-119627438D02*
X145607143Y-119579819D01*
X145607143Y-119579819D02*
X145845238Y-119579819D01*
X145845238Y-119579819D02*
X145940476Y-119627438D01*
X145940476Y-119627438D02*
X145988095Y-119675057D01*
X145988095Y-119675057D02*
X146035714Y-119770295D01*
X146035714Y-119770295D02*
X146035714Y-119865533D01*
X146035714Y-119865533D02*
X145988095Y-120008390D01*
X145988095Y-120008390D02*
X145416667Y-120579819D01*
X145416667Y-120579819D02*
X146035714Y-120579819D01*
X146654762Y-119579819D02*
X146750000Y-119579819D01*
X146750000Y-119579819D02*
X146845238Y-119627438D01*
X146845238Y-119627438D02*
X146892857Y-119675057D01*
X146892857Y-119675057D02*
X146940476Y-119770295D01*
X146940476Y-119770295D02*
X146988095Y-119960771D01*
X146988095Y-119960771D02*
X146988095Y-120198866D01*
X146988095Y-120198866D02*
X146940476Y-120389342D01*
X146940476Y-120389342D02*
X146892857Y-120484580D01*
X146892857Y-120484580D02*
X146845238Y-120532200D01*
X146845238Y-120532200D02*
X146750000Y-120579819D01*
X146750000Y-120579819D02*
X146654762Y-120579819D01*
X146654762Y-120579819D02*
X146559524Y-120532200D01*
X146559524Y-120532200D02*
X146511905Y-120484580D01*
X146511905Y-120484580D02*
X146464286Y-120389342D01*
X146464286Y-120389342D02*
X146416667Y-120198866D01*
X146416667Y-120198866D02*
X146416667Y-119960771D01*
X146416667Y-119960771D02*
X146464286Y-119770295D01*
X146464286Y-119770295D02*
X146511905Y-119675057D01*
X146511905Y-119675057D02*
X146559524Y-119627438D01*
X146559524Y-119627438D02*
X146654762Y-119579819D01*
X156772619Y-73894819D02*
X156772619Y-74609104D01*
X156772619Y-74609104D02*
X156725000Y-74751961D01*
X156725000Y-74751961D02*
X156629762Y-74847200D01*
X156629762Y-74847200D02*
X156486905Y-74894819D01*
X156486905Y-74894819D02*
X156391667Y-74894819D01*
X157010715Y-74990057D02*
X157772619Y-74990057D01*
X158534524Y-73942438D02*
X158439286Y-73894819D01*
X158439286Y-73894819D02*
X158296429Y-73894819D01*
X158296429Y-73894819D02*
X158153572Y-73942438D01*
X158153572Y-73942438D02*
X158058334Y-74037676D01*
X158058334Y-74037676D02*
X158010715Y-74132914D01*
X158010715Y-74132914D02*
X157963096Y-74323390D01*
X157963096Y-74323390D02*
X157963096Y-74466247D01*
X157963096Y-74466247D02*
X158010715Y-74656723D01*
X158010715Y-74656723D02*
X158058334Y-74751961D01*
X158058334Y-74751961D02*
X158153572Y-74847200D01*
X158153572Y-74847200D02*
X158296429Y-74894819D01*
X158296429Y-74894819D02*
X158391667Y-74894819D01*
X158391667Y-74894819D02*
X158534524Y-74847200D01*
X158534524Y-74847200D02*
X158582143Y-74799580D01*
X158582143Y-74799580D02*
X158582143Y-74466247D01*
X158582143Y-74466247D02*
X158391667Y-74466247D01*
X159010715Y-74894819D02*
X159010715Y-73894819D01*
X159010715Y-73894819D02*
X159391667Y-73894819D01*
X159391667Y-73894819D02*
X159486905Y-73942438D01*
X159486905Y-73942438D02*
X159534524Y-73990057D01*
X159534524Y-73990057D02*
X159582143Y-74085295D01*
X159582143Y-74085295D02*
X159582143Y-74228152D01*
X159582143Y-74228152D02*
X159534524Y-74323390D01*
X159534524Y-74323390D02*
X159486905Y-74371009D01*
X159486905Y-74371009D02*
X159391667Y-74418628D01*
X159391667Y-74418628D02*
X159010715Y-74418628D01*
X160010715Y-74894819D02*
X160010715Y-73894819D01*
X160677381Y-73894819D02*
X160867857Y-73894819D01*
X160867857Y-73894819D02*
X160963095Y-73942438D01*
X160963095Y-73942438D02*
X161058333Y-74037676D01*
X161058333Y-74037676D02*
X161105952Y-74228152D01*
X161105952Y-74228152D02*
X161105952Y-74561485D01*
X161105952Y-74561485D02*
X161058333Y-74751961D01*
X161058333Y-74751961D02*
X160963095Y-74847200D01*
X160963095Y-74847200D02*
X160867857Y-74894819D01*
X160867857Y-74894819D02*
X160677381Y-74894819D01*
X160677381Y-74894819D02*
X160582143Y-74847200D01*
X160582143Y-74847200D02*
X160486905Y-74751961D01*
X160486905Y-74751961D02*
X160439286Y-74561485D01*
X160439286Y-74561485D02*
X160439286Y-74228152D01*
X160439286Y-74228152D02*
X160486905Y-74037676D01*
X160486905Y-74037676D02*
X160582143Y-73942438D01*
X160582143Y-73942438D02*
X160677381Y-73894819D01*
X162058333Y-74894819D02*
X161486905Y-74894819D01*
X161772619Y-74894819D02*
X161772619Y-73894819D01*
X161772619Y-73894819D02*
X161677381Y-74037676D01*
X161677381Y-74037676D02*
X161582143Y-74132914D01*
X161582143Y-74132914D02*
X161486905Y-74180533D01*
X162391667Y-73894819D02*
X163010714Y-73894819D01*
X163010714Y-73894819D02*
X162677381Y-74275771D01*
X162677381Y-74275771D02*
X162820238Y-74275771D01*
X162820238Y-74275771D02*
X162915476Y-74323390D01*
X162915476Y-74323390D02*
X162963095Y-74371009D01*
X162963095Y-74371009D02*
X163010714Y-74466247D01*
X163010714Y-74466247D02*
X163010714Y-74704342D01*
X163010714Y-74704342D02*
X162963095Y-74799580D01*
X162963095Y-74799580D02*
X162915476Y-74847200D01*
X162915476Y-74847200D02*
X162820238Y-74894819D01*
X162820238Y-74894819D02*
X162534524Y-74894819D01*
X162534524Y-74894819D02*
X162439286Y-74847200D01*
X162439286Y-74847200D02*
X162391667Y-74799580D01*
X132603654Y-126347010D02*
X132270321Y-125870819D01*
X132032226Y-126347010D02*
X132032226Y-125347010D01*
X132032226Y-125347010D02*
X132413178Y-125347010D01*
X132413178Y-125347010D02*
X132508416Y-125394629D01*
X132508416Y-125394629D02*
X132556035Y-125442248D01*
X132556035Y-125442248D02*
X132603654Y-125537486D01*
X132603654Y-125537486D02*
X132603654Y-125680343D01*
X132603654Y-125680343D02*
X132556035Y-125775581D01*
X132556035Y-125775581D02*
X132508416Y-125823200D01*
X132508416Y-125823200D02*
X132413178Y-125870819D01*
X132413178Y-125870819D02*
X132032226Y-125870819D01*
X133175083Y-125775581D02*
X133079845Y-125727962D01*
X133079845Y-125727962D02*
X133032226Y-125680343D01*
X133032226Y-125680343D02*
X132984607Y-125585105D01*
X132984607Y-125585105D02*
X132984607Y-125537486D01*
X132984607Y-125537486D02*
X133032226Y-125442248D01*
X133032226Y-125442248D02*
X133079845Y-125394629D01*
X133079845Y-125394629D02*
X133175083Y-125347010D01*
X133175083Y-125347010D02*
X133365559Y-125347010D01*
X133365559Y-125347010D02*
X133460797Y-125394629D01*
X133460797Y-125394629D02*
X133508416Y-125442248D01*
X133508416Y-125442248D02*
X133556035Y-125537486D01*
X133556035Y-125537486D02*
X133556035Y-125585105D01*
X133556035Y-125585105D02*
X133508416Y-125680343D01*
X133508416Y-125680343D02*
X133460797Y-125727962D01*
X133460797Y-125727962D02*
X133365559Y-125775581D01*
X133365559Y-125775581D02*
X133175083Y-125775581D01*
X133175083Y-125775581D02*
X133079845Y-125823200D01*
X133079845Y-125823200D02*
X133032226Y-125870819D01*
X133032226Y-125870819D02*
X132984607Y-125966057D01*
X132984607Y-125966057D02*
X132984607Y-126156533D01*
X132984607Y-126156533D02*
X133032226Y-126251771D01*
X133032226Y-126251771D02*
X133079845Y-126299391D01*
X133079845Y-126299391D02*
X133175083Y-126347010D01*
X133175083Y-126347010D02*
X133365559Y-126347010D01*
X133365559Y-126347010D02*
X133460797Y-126299391D01*
X133460797Y-126299391D02*
X133508416Y-126251771D01*
X133508416Y-126251771D02*
X133556035Y-126156533D01*
X133556035Y-126156533D02*
X133556035Y-125966057D01*
X133556035Y-125966057D02*
X133508416Y-125870819D01*
X133508416Y-125870819D02*
X133460797Y-125823200D01*
X133460797Y-125823200D02*
X133365559Y-125775581D01*
X154441905Y-119675057D02*
X154489524Y-119627438D01*
X154489524Y-119627438D02*
X154584762Y-119579819D01*
X154584762Y-119579819D02*
X154822857Y-119579819D01*
X154822857Y-119579819D02*
X154918095Y-119627438D01*
X154918095Y-119627438D02*
X154965714Y-119675057D01*
X154965714Y-119675057D02*
X155013333Y-119770295D01*
X155013333Y-119770295D02*
X155013333Y-119865533D01*
X155013333Y-119865533D02*
X154965714Y-120008390D01*
X154965714Y-120008390D02*
X154394286Y-120579819D01*
X154394286Y-120579819D02*
X155013333Y-120579819D01*
X155394286Y-119675057D02*
X155441905Y-119627438D01*
X155441905Y-119627438D02*
X155537143Y-119579819D01*
X155537143Y-119579819D02*
X155775238Y-119579819D01*
X155775238Y-119579819D02*
X155870476Y-119627438D01*
X155870476Y-119627438D02*
X155918095Y-119675057D01*
X155918095Y-119675057D02*
X155965714Y-119770295D01*
X155965714Y-119770295D02*
X155965714Y-119865533D01*
X155965714Y-119865533D02*
X155918095Y-120008390D01*
X155918095Y-120008390D02*
X155346667Y-120579819D01*
X155346667Y-120579819D02*
X155965714Y-120579819D01*
X156584762Y-119579819D02*
X156680000Y-119579819D01*
X156680000Y-119579819D02*
X156775238Y-119627438D01*
X156775238Y-119627438D02*
X156822857Y-119675057D01*
X156822857Y-119675057D02*
X156870476Y-119770295D01*
X156870476Y-119770295D02*
X156918095Y-119960771D01*
X156918095Y-119960771D02*
X156918095Y-120198866D01*
X156918095Y-120198866D02*
X156870476Y-120389342D01*
X156870476Y-120389342D02*
X156822857Y-120484580D01*
X156822857Y-120484580D02*
X156775238Y-120532200D01*
X156775238Y-120532200D02*
X156680000Y-120579819D01*
X156680000Y-120579819D02*
X156584762Y-120579819D01*
X156584762Y-120579819D02*
X156489524Y-120532200D01*
X156489524Y-120532200D02*
X156441905Y-120484580D01*
X156441905Y-120484580D02*
X156394286Y-120389342D01*
X156394286Y-120389342D02*
X156346667Y-120198866D01*
X156346667Y-120198866D02*
X156346667Y-119960771D01*
X156346667Y-119960771D02*
X156394286Y-119770295D01*
X156394286Y-119770295D02*
X156441905Y-119675057D01*
X156441905Y-119675057D02*
X156489524Y-119627438D01*
X156489524Y-119627438D02*
X156584762Y-119579819D01*
X110516666Y-79174819D02*
X110516666Y-79889104D01*
X110516666Y-79889104D02*
X110469047Y-80031961D01*
X110469047Y-80031961D02*
X110373809Y-80127200D01*
X110373809Y-80127200D02*
X110230952Y-80174819D01*
X110230952Y-80174819D02*
X110135714Y-80174819D01*
X111516666Y-80174819D02*
X110945238Y-80174819D01*
X111230952Y-80174819D02*
X111230952Y-79174819D01*
X111230952Y-79174819D02*
X111135714Y-79317676D01*
X111135714Y-79317676D02*
X111040476Y-79412914D01*
X111040476Y-79412914D02*
X110945238Y-79460533D01*
X92009819Y-84802619D02*
X92724104Y-84802619D01*
X92724104Y-84802619D02*
X92866961Y-84850238D01*
X92866961Y-84850238D02*
X92962200Y-84945476D01*
X92962200Y-84945476D02*
X93009819Y-85088333D01*
X93009819Y-85088333D02*
X93009819Y-85183571D01*
X93105057Y-84564524D02*
X93105057Y-83802619D01*
X92009819Y-83707380D02*
X92009819Y-83135952D01*
X93009819Y-83421666D02*
X92009819Y-83421666D01*
X93009819Y-82802618D02*
X92009819Y-82802618D01*
X92009819Y-82802618D02*
X92009819Y-82421666D01*
X92009819Y-82421666D02*
X92057438Y-82326428D01*
X92057438Y-82326428D02*
X92105057Y-82278809D01*
X92105057Y-82278809D02*
X92200295Y-82231190D01*
X92200295Y-82231190D02*
X92343152Y-82231190D01*
X92343152Y-82231190D02*
X92438390Y-82278809D01*
X92438390Y-82278809D02*
X92486009Y-82326428D01*
X92486009Y-82326428D02*
X92533628Y-82421666D01*
X92533628Y-82421666D02*
X92533628Y-82802618D01*
X93105057Y-82040714D02*
X93105057Y-81278809D01*
X93009819Y-81040713D02*
X92009819Y-81040713D01*
X92009819Y-81040713D02*
X92009819Y-80659761D01*
X92009819Y-80659761D02*
X92057438Y-80564523D01*
X92057438Y-80564523D02*
X92105057Y-80516904D01*
X92105057Y-80516904D02*
X92200295Y-80469285D01*
X92200295Y-80469285D02*
X92343152Y-80469285D01*
X92343152Y-80469285D02*
X92438390Y-80516904D01*
X92438390Y-80516904D02*
X92486009Y-80564523D01*
X92486009Y-80564523D02*
X92533628Y-80659761D01*
X92533628Y-80659761D02*
X92533628Y-81040713D01*
X92009819Y-80135951D02*
X93009819Y-79897856D01*
X93009819Y-79897856D02*
X92295533Y-79707380D01*
X92295533Y-79707380D02*
X93009819Y-79516904D01*
X93009819Y-79516904D02*
X92009819Y-79278809D01*
X93009819Y-78326428D02*
X92533628Y-78659761D01*
X93009819Y-78897856D02*
X92009819Y-78897856D01*
X92009819Y-78897856D02*
X92009819Y-78516904D01*
X92009819Y-78516904D02*
X92057438Y-78421666D01*
X92057438Y-78421666D02*
X92105057Y-78374047D01*
X92105057Y-78374047D02*
X92200295Y-78326428D01*
X92200295Y-78326428D02*
X92343152Y-78326428D01*
X92343152Y-78326428D02*
X92438390Y-78374047D01*
X92438390Y-78374047D02*
X92486009Y-78421666D01*
X92486009Y-78421666D02*
X92533628Y-78516904D01*
X92533628Y-78516904D02*
X92533628Y-78897856D01*
X93009819Y-77374047D02*
X93009819Y-77945475D01*
X93009819Y-77659761D02*
X92009819Y-77659761D01*
X92009819Y-77659761D02*
X92152676Y-77754999D01*
X92152676Y-77754999D02*
X92247914Y-77850237D01*
X92247914Y-77850237D02*
X92295533Y-77945475D01*
X103558809Y-116307438D02*
X103463571Y-116259819D01*
X103463571Y-116259819D02*
X103320714Y-116259819D01*
X103320714Y-116259819D02*
X103177857Y-116307438D01*
X103177857Y-116307438D02*
X103082619Y-116402676D01*
X103082619Y-116402676D02*
X103035000Y-116497914D01*
X103035000Y-116497914D02*
X102987381Y-116688390D01*
X102987381Y-116688390D02*
X102987381Y-116831247D01*
X102987381Y-116831247D02*
X103035000Y-117021723D01*
X103035000Y-117021723D02*
X103082619Y-117116961D01*
X103082619Y-117116961D02*
X103177857Y-117212200D01*
X103177857Y-117212200D02*
X103320714Y-117259819D01*
X103320714Y-117259819D02*
X103415952Y-117259819D01*
X103415952Y-117259819D02*
X103558809Y-117212200D01*
X103558809Y-117212200D02*
X103606428Y-117164580D01*
X103606428Y-117164580D02*
X103606428Y-116831247D01*
X103606428Y-116831247D02*
X103415952Y-116831247D01*
X104035000Y-117259819D02*
X104035000Y-116259819D01*
X104035000Y-116259819D02*
X104415952Y-116259819D01*
X104415952Y-116259819D02*
X104511190Y-116307438D01*
X104511190Y-116307438D02*
X104558809Y-116355057D01*
X104558809Y-116355057D02*
X104606428Y-116450295D01*
X104606428Y-116450295D02*
X104606428Y-116593152D01*
X104606428Y-116593152D02*
X104558809Y-116688390D01*
X104558809Y-116688390D02*
X104511190Y-116736009D01*
X104511190Y-116736009D02*
X104415952Y-116783628D01*
X104415952Y-116783628D02*
X104035000Y-116783628D01*
X105035000Y-117259819D02*
X105035000Y-116259819D01*
X105701666Y-116259819D02*
X105892142Y-116259819D01*
X105892142Y-116259819D02*
X105987380Y-116307438D01*
X105987380Y-116307438D02*
X106082618Y-116402676D01*
X106082618Y-116402676D02*
X106130237Y-116593152D01*
X106130237Y-116593152D02*
X106130237Y-116926485D01*
X106130237Y-116926485D02*
X106082618Y-117116961D01*
X106082618Y-117116961D02*
X105987380Y-117212200D01*
X105987380Y-117212200D02*
X105892142Y-117259819D01*
X105892142Y-117259819D02*
X105701666Y-117259819D01*
X105701666Y-117259819D02*
X105606428Y-117212200D01*
X105606428Y-117212200D02*
X105511190Y-117116961D01*
X105511190Y-117116961D02*
X105463571Y-116926485D01*
X105463571Y-116926485D02*
X105463571Y-116593152D01*
X105463571Y-116593152D02*
X105511190Y-116402676D01*
X105511190Y-116402676D02*
X105606428Y-116307438D01*
X105606428Y-116307438D02*
X105701666Y-116259819D01*
X107082618Y-117259819D02*
X106511190Y-117259819D01*
X106796904Y-117259819D02*
X106796904Y-116259819D01*
X106796904Y-116259819D02*
X106701666Y-116402676D01*
X106701666Y-116402676D02*
X106606428Y-116497914D01*
X106606428Y-116497914D02*
X106511190Y-116545533D01*
X160437676Y-126111428D02*
X161151961Y-126111428D01*
X161151961Y-126111428D02*
X161294818Y-126159047D01*
X161294818Y-126159047D02*
X161390057Y-126254285D01*
X161390057Y-126254285D02*
X161437676Y-126397142D01*
X161437676Y-126397142D02*
X161437676Y-126492380D01*
X161532914Y-125873333D02*
X161532914Y-125111428D01*
X161437676Y-124397142D02*
X161437676Y-124873332D01*
X161437676Y-124873332D02*
X160437676Y-124873332D01*
X160913866Y-124063808D02*
X160913866Y-123730475D01*
X161437676Y-123587618D02*
X161437676Y-124063808D01*
X161437676Y-124063808D02*
X160437676Y-124063808D01*
X160437676Y-124063808D02*
X160437676Y-123587618D01*
X161437676Y-123159046D02*
X160437676Y-123159046D01*
X160437676Y-123159046D02*
X160437676Y-122920951D01*
X160437676Y-122920951D02*
X160485295Y-122778094D01*
X160485295Y-122778094D02*
X160580533Y-122682856D01*
X160580533Y-122682856D02*
X160675771Y-122635237D01*
X160675771Y-122635237D02*
X160866247Y-122587618D01*
X160866247Y-122587618D02*
X161009104Y-122587618D01*
X161009104Y-122587618D02*
X161199580Y-122635237D01*
X161199580Y-122635237D02*
X161294818Y-122682856D01*
X161294818Y-122682856D02*
X161390057Y-122778094D01*
X161390057Y-122778094D02*
X161437676Y-122920951D01*
X161437676Y-122920951D02*
X161437676Y-123159046D01*
X161437676Y-121635237D02*
X161437676Y-122206665D01*
X161437676Y-121920951D02*
X160437676Y-121920951D01*
X160437676Y-121920951D02*
X160580533Y-122016189D01*
X160580533Y-122016189D02*
X160675771Y-122111427D01*
X160675771Y-122111427D02*
X160723390Y-122206665D01*
X135933654Y-126347010D02*
X135600321Y-125870819D01*
X135362226Y-126347010D02*
X135362226Y-125347010D01*
X135362226Y-125347010D02*
X135743178Y-125347010D01*
X135743178Y-125347010D02*
X135838416Y-125394629D01*
X135838416Y-125394629D02*
X135886035Y-125442248D01*
X135886035Y-125442248D02*
X135933654Y-125537486D01*
X135933654Y-125537486D02*
X135933654Y-125680343D01*
X135933654Y-125680343D02*
X135886035Y-125775581D01*
X135886035Y-125775581D02*
X135838416Y-125823200D01*
X135838416Y-125823200D02*
X135743178Y-125870819D01*
X135743178Y-125870819D02*
X135362226Y-125870819D01*
X136266988Y-125347010D02*
X136933654Y-125347010D01*
X136933654Y-125347010D02*
X136505083Y-126347010D01*
X151001905Y-119675057D02*
X151049524Y-119627438D01*
X151049524Y-119627438D02*
X151144762Y-119579819D01*
X151144762Y-119579819D02*
X151382857Y-119579819D01*
X151382857Y-119579819D02*
X151478095Y-119627438D01*
X151478095Y-119627438D02*
X151525714Y-119675057D01*
X151525714Y-119675057D02*
X151573333Y-119770295D01*
X151573333Y-119770295D02*
X151573333Y-119865533D01*
X151573333Y-119865533D02*
X151525714Y-120008390D01*
X151525714Y-120008390D02*
X150954286Y-120579819D01*
X150954286Y-120579819D02*
X151573333Y-120579819D01*
X151954286Y-119675057D02*
X152001905Y-119627438D01*
X152001905Y-119627438D02*
X152097143Y-119579819D01*
X152097143Y-119579819D02*
X152335238Y-119579819D01*
X152335238Y-119579819D02*
X152430476Y-119627438D01*
X152430476Y-119627438D02*
X152478095Y-119675057D01*
X152478095Y-119675057D02*
X152525714Y-119770295D01*
X152525714Y-119770295D02*
X152525714Y-119865533D01*
X152525714Y-119865533D02*
X152478095Y-120008390D01*
X152478095Y-120008390D02*
X151906667Y-120579819D01*
X151906667Y-120579819D02*
X152525714Y-120579819D01*
X153144762Y-119579819D02*
X153240000Y-119579819D01*
X153240000Y-119579819D02*
X153335238Y-119627438D01*
X153335238Y-119627438D02*
X153382857Y-119675057D01*
X153382857Y-119675057D02*
X153430476Y-119770295D01*
X153430476Y-119770295D02*
X153478095Y-119960771D01*
X153478095Y-119960771D02*
X153478095Y-120198866D01*
X153478095Y-120198866D02*
X153430476Y-120389342D01*
X153430476Y-120389342D02*
X153382857Y-120484580D01*
X153382857Y-120484580D02*
X153335238Y-120532200D01*
X153335238Y-120532200D02*
X153240000Y-120579819D01*
X153240000Y-120579819D02*
X153144762Y-120579819D01*
X153144762Y-120579819D02*
X153049524Y-120532200D01*
X153049524Y-120532200D02*
X153001905Y-120484580D01*
X153001905Y-120484580D02*
X152954286Y-120389342D01*
X152954286Y-120389342D02*
X152906667Y-120198866D01*
X152906667Y-120198866D02*
X152906667Y-119960771D01*
X152906667Y-119960771D02*
X152954286Y-119770295D01*
X152954286Y-119770295D02*
X153001905Y-119675057D01*
X153001905Y-119675057D02*
X153049524Y-119627438D01*
X153049524Y-119627438D02*
X153144762Y-119579819D01*
X142177619Y-73879819D02*
X142177619Y-74594104D01*
X142177619Y-74594104D02*
X142130000Y-74736961D01*
X142130000Y-74736961D02*
X142034762Y-74832200D01*
X142034762Y-74832200D02*
X141891905Y-74879819D01*
X141891905Y-74879819D02*
X141796667Y-74879819D01*
X142415715Y-74975057D02*
X143177619Y-74975057D01*
X143939524Y-73927438D02*
X143844286Y-73879819D01*
X143844286Y-73879819D02*
X143701429Y-73879819D01*
X143701429Y-73879819D02*
X143558572Y-73927438D01*
X143558572Y-73927438D02*
X143463334Y-74022676D01*
X143463334Y-74022676D02*
X143415715Y-74117914D01*
X143415715Y-74117914D02*
X143368096Y-74308390D01*
X143368096Y-74308390D02*
X143368096Y-74451247D01*
X143368096Y-74451247D02*
X143415715Y-74641723D01*
X143415715Y-74641723D02*
X143463334Y-74736961D01*
X143463334Y-74736961D02*
X143558572Y-74832200D01*
X143558572Y-74832200D02*
X143701429Y-74879819D01*
X143701429Y-74879819D02*
X143796667Y-74879819D01*
X143796667Y-74879819D02*
X143939524Y-74832200D01*
X143939524Y-74832200D02*
X143987143Y-74784580D01*
X143987143Y-74784580D02*
X143987143Y-74451247D01*
X143987143Y-74451247D02*
X143796667Y-74451247D01*
X144415715Y-74879819D02*
X144415715Y-73879819D01*
X144415715Y-73879819D02*
X144796667Y-73879819D01*
X144796667Y-73879819D02*
X144891905Y-73927438D01*
X144891905Y-73927438D02*
X144939524Y-73975057D01*
X144939524Y-73975057D02*
X144987143Y-74070295D01*
X144987143Y-74070295D02*
X144987143Y-74213152D01*
X144987143Y-74213152D02*
X144939524Y-74308390D01*
X144939524Y-74308390D02*
X144891905Y-74356009D01*
X144891905Y-74356009D02*
X144796667Y-74403628D01*
X144796667Y-74403628D02*
X144415715Y-74403628D01*
X145415715Y-74879819D02*
X145415715Y-73879819D01*
X146082381Y-73879819D02*
X146272857Y-73879819D01*
X146272857Y-73879819D02*
X146368095Y-73927438D01*
X146368095Y-73927438D02*
X146463333Y-74022676D01*
X146463333Y-74022676D02*
X146510952Y-74213152D01*
X146510952Y-74213152D02*
X146510952Y-74546485D01*
X146510952Y-74546485D02*
X146463333Y-74736961D01*
X146463333Y-74736961D02*
X146368095Y-74832200D01*
X146368095Y-74832200D02*
X146272857Y-74879819D01*
X146272857Y-74879819D02*
X146082381Y-74879819D01*
X146082381Y-74879819D02*
X145987143Y-74832200D01*
X145987143Y-74832200D02*
X145891905Y-74736961D01*
X145891905Y-74736961D02*
X145844286Y-74546485D01*
X145844286Y-74546485D02*
X145844286Y-74213152D01*
X145844286Y-74213152D02*
X145891905Y-74022676D01*
X145891905Y-74022676D02*
X145987143Y-73927438D01*
X145987143Y-73927438D02*
X146082381Y-73879819D01*
X147463333Y-74879819D02*
X146891905Y-74879819D01*
X147177619Y-74879819D02*
X147177619Y-73879819D01*
X147177619Y-73879819D02*
X147082381Y-74022676D01*
X147082381Y-74022676D02*
X146987143Y-74117914D01*
X146987143Y-74117914D02*
X146891905Y-74165533D01*
X148368095Y-73879819D02*
X147891905Y-73879819D01*
X147891905Y-73879819D02*
X147844286Y-74356009D01*
X147844286Y-74356009D02*
X147891905Y-74308390D01*
X147891905Y-74308390D02*
X147987143Y-74260771D01*
X147987143Y-74260771D02*
X148225238Y-74260771D01*
X148225238Y-74260771D02*
X148320476Y-74308390D01*
X148320476Y-74308390D02*
X148368095Y-74356009D01*
X148368095Y-74356009D02*
X148415714Y-74451247D01*
X148415714Y-74451247D02*
X148415714Y-74689342D01*
X148415714Y-74689342D02*
X148368095Y-74784580D01*
X148368095Y-74784580D02*
X148320476Y-74832200D01*
X148320476Y-74832200D02*
X148225238Y-74879819D01*
X148225238Y-74879819D02*
X147987143Y-74879819D01*
X147987143Y-74879819D02*
X147891905Y-74832200D01*
X147891905Y-74832200D02*
X147844286Y-74784580D01*
X92543571Y-131399819D02*
X92543571Y-132114104D01*
X92543571Y-132114104D02*
X92495952Y-132256961D01*
X92495952Y-132256961D02*
X92400714Y-132352200D01*
X92400714Y-132352200D02*
X92257857Y-132399819D01*
X92257857Y-132399819D02*
X92162619Y-132399819D01*
X92781667Y-132495057D02*
X93543571Y-132495057D01*
X94257857Y-132399819D02*
X93781667Y-132399819D01*
X93781667Y-132399819D02*
X93781667Y-131399819D01*
X94591191Y-131876009D02*
X94924524Y-131876009D01*
X95067381Y-132399819D02*
X94591191Y-132399819D01*
X94591191Y-132399819D02*
X94591191Y-131399819D01*
X94591191Y-131399819D02*
X95067381Y-131399819D01*
X95495953Y-132399819D02*
X95495953Y-131399819D01*
X95495953Y-131399819D02*
X95734048Y-131399819D01*
X95734048Y-131399819D02*
X95876905Y-131447438D01*
X95876905Y-131447438D02*
X95972143Y-131542676D01*
X95972143Y-131542676D02*
X96019762Y-131637914D01*
X96019762Y-131637914D02*
X96067381Y-131828390D01*
X96067381Y-131828390D02*
X96067381Y-131971247D01*
X96067381Y-131971247D02*
X96019762Y-132161723D01*
X96019762Y-132161723D02*
X95972143Y-132256961D01*
X95972143Y-132256961D02*
X95876905Y-132352200D01*
X95876905Y-132352200D02*
X95734048Y-132399819D01*
X95734048Y-132399819D02*
X95495953Y-132399819D01*
X96400715Y-131399819D02*
X97067381Y-131399819D01*
X97067381Y-131399819D02*
X96638810Y-132399819D01*
X121397857Y-131399819D02*
X121397857Y-132114104D01*
X121397857Y-132114104D02*
X121350238Y-132256961D01*
X121350238Y-132256961D02*
X121255000Y-132352200D01*
X121255000Y-132352200D02*
X121112143Y-132399819D01*
X121112143Y-132399819D02*
X121016905Y-132399819D01*
X121635953Y-132495057D02*
X122397857Y-132495057D01*
X123112143Y-132399819D02*
X122635953Y-132399819D01*
X122635953Y-132399819D02*
X122635953Y-131399819D01*
X123445477Y-131876009D02*
X123778810Y-131876009D01*
X123921667Y-132399819D02*
X123445477Y-132399819D01*
X123445477Y-132399819D02*
X123445477Y-131399819D01*
X123445477Y-131399819D02*
X123921667Y-131399819D01*
X124350239Y-132399819D02*
X124350239Y-131399819D01*
X124350239Y-131399819D02*
X124588334Y-131399819D01*
X124588334Y-131399819D02*
X124731191Y-131447438D01*
X124731191Y-131447438D02*
X124826429Y-131542676D01*
X124826429Y-131542676D02*
X124874048Y-131637914D01*
X124874048Y-131637914D02*
X124921667Y-131828390D01*
X124921667Y-131828390D02*
X124921667Y-131971247D01*
X124921667Y-131971247D02*
X124874048Y-132161723D01*
X124874048Y-132161723D02*
X124826429Y-132256961D01*
X124826429Y-132256961D02*
X124731191Y-132352200D01*
X124731191Y-132352200D02*
X124588334Y-132399819D01*
X124588334Y-132399819D02*
X124350239Y-132399819D01*
X125826429Y-131399819D02*
X125350239Y-131399819D01*
X125350239Y-131399819D02*
X125302620Y-131876009D01*
X125302620Y-131876009D02*
X125350239Y-131828390D01*
X125350239Y-131828390D02*
X125445477Y-131780771D01*
X125445477Y-131780771D02*
X125683572Y-131780771D01*
X125683572Y-131780771D02*
X125778810Y-131828390D01*
X125778810Y-131828390D02*
X125826429Y-131876009D01*
X125826429Y-131876009D02*
X125874048Y-131971247D01*
X125874048Y-131971247D02*
X125874048Y-132209342D01*
X125874048Y-132209342D02*
X125826429Y-132304580D01*
X125826429Y-132304580D02*
X125778810Y-132352200D01*
X125778810Y-132352200D02*
X125683572Y-132399819D01*
X125683572Y-132399819D02*
X125445477Y-132399819D01*
X125445477Y-132399819D02*
X125350239Y-132352200D01*
X125350239Y-132352200D02*
X125302620Y-132304580D01*
X145863654Y-126347010D02*
X145530321Y-125870819D01*
X145292226Y-126347010D02*
X145292226Y-125347010D01*
X145292226Y-125347010D02*
X145673178Y-125347010D01*
X145673178Y-125347010D02*
X145768416Y-125394629D01*
X145768416Y-125394629D02*
X145816035Y-125442248D01*
X145816035Y-125442248D02*
X145863654Y-125537486D01*
X145863654Y-125537486D02*
X145863654Y-125680343D01*
X145863654Y-125680343D02*
X145816035Y-125775581D01*
X145816035Y-125775581D02*
X145768416Y-125823200D01*
X145768416Y-125823200D02*
X145673178Y-125870819D01*
X145673178Y-125870819D02*
X145292226Y-125870819D01*
X146720797Y-125680343D02*
X146720797Y-126347010D01*
X146482702Y-125299391D02*
X146244607Y-126013676D01*
X146244607Y-126013676D02*
X146863654Y-126013676D01*
X141201905Y-119675057D02*
X141249524Y-119627438D01*
X141249524Y-119627438D02*
X141344762Y-119579819D01*
X141344762Y-119579819D02*
X141582857Y-119579819D01*
X141582857Y-119579819D02*
X141678095Y-119627438D01*
X141678095Y-119627438D02*
X141725714Y-119675057D01*
X141725714Y-119675057D02*
X141773333Y-119770295D01*
X141773333Y-119770295D02*
X141773333Y-119865533D01*
X141773333Y-119865533D02*
X141725714Y-120008390D01*
X141725714Y-120008390D02*
X141154286Y-120579819D01*
X141154286Y-120579819D02*
X141773333Y-120579819D01*
X142154286Y-119675057D02*
X142201905Y-119627438D01*
X142201905Y-119627438D02*
X142297143Y-119579819D01*
X142297143Y-119579819D02*
X142535238Y-119579819D01*
X142535238Y-119579819D02*
X142630476Y-119627438D01*
X142630476Y-119627438D02*
X142678095Y-119675057D01*
X142678095Y-119675057D02*
X142725714Y-119770295D01*
X142725714Y-119770295D02*
X142725714Y-119865533D01*
X142725714Y-119865533D02*
X142678095Y-120008390D01*
X142678095Y-120008390D02*
X142106667Y-120579819D01*
X142106667Y-120579819D02*
X142725714Y-120579819D01*
X143344762Y-119579819D02*
X143440000Y-119579819D01*
X143440000Y-119579819D02*
X143535238Y-119627438D01*
X143535238Y-119627438D02*
X143582857Y-119675057D01*
X143582857Y-119675057D02*
X143630476Y-119770295D01*
X143630476Y-119770295D02*
X143678095Y-119960771D01*
X143678095Y-119960771D02*
X143678095Y-120198866D01*
X143678095Y-120198866D02*
X143630476Y-120389342D01*
X143630476Y-120389342D02*
X143582857Y-120484580D01*
X143582857Y-120484580D02*
X143535238Y-120532200D01*
X143535238Y-120532200D02*
X143440000Y-120579819D01*
X143440000Y-120579819D02*
X143344762Y-120579819D01*
X143344762Y-120579819D02*
X143249524Y-120532200D01*
X143249524Y-120532200D02*
X143201905Y-120484580D01*
X143201905Y-120484580D02*
X143154286Y-120389342D01*
X143154286Y-120389342D02*
X143106667Y-120198866D01*
X143106667Y-120198866D02*
X143106667Y-119960771D01*
X143106667Y-119960771D02*
X143154286Y-119770295D01*
X143154286Y-119770295D02*
X143201905Y-119675057D01*
X143201905Y-119675057D02*
X143249524Y-119627438D01*
X143249524Y-119627438D02*
X143344762Y-119579819D01*
X99779819Y-71310714D02*
X100494104Y-71310714D01*
X100494104Y-71310714D02*
X100636961Y-71358333D01*
X100636961Y-71358333D02*
X100732200Y-71453571D01*
X100732200Y-71453571D02*
X100779819Y-71596428D01*
X100779819Y-71596428D02*
X100779819Y-71691666D01*
X100875057Y-71072619D02*
X100875057Y-70310714D01*
X100779819Y-70072618D02*
X99779819Y-70072618D01*
X99779819Y-70072618D02*
X99779819Y-69691666D01*
X99779819Y-69691666D02*
X99827438Y-69596428D01*
X99827438Y-69596428D02*
X99875057Y-69548809D01*
X99875057Y-69548809D02*
X99970295Y-69501190D01*
X99970295Y-69501190D02*
X100113152Y-69501190D01*
X100113152Y-69501190D02*
X100208390Y-69548809D01*
X100208390Y-69548809D02*
X100256009Y-69596428D01*
X100256009Y-69596428D02*
X100303628Y-69691666D01*
X100303628Y-69691666D02*
X100303628Y-70072618D01*
X99779819Y-69167856D02*
X100779819Y-68929761D01*
X100779819Y-68929761D02*
X100065533Y-68739285D01*
X100065533Y-68739285D02*
X100779819Y-68548809D01*
X100779819Y-68548809D02*
X99779819Y-68310714D01*
X100779819Y-67358333D02*
X100303628Y-67691666D01*
X100779819Y-67929761D02*
X99779819Y-67929761D01*
X99779819Y-67929761D02*
X99779819Y-67548809D01*
X99779819Y-67548809D02*
X99827438Y-67453571D01*
X99827438Y-67453571D02*
X99875057Y-67405952D01*
X99875057Y-67405952D02*
X99970295Y-67358333D01*
X99970295Y-67358333D02*
X100113152Y-67358333D01*
X100113152Y-67358333D02*
X100208390Y-67405952D01*
X100208390Y-67405952D02*
X100256009Y-67453571D01*
X100256009Y-67453571D02*
X100303628Y-67548809D01*
X100303628Y-67548809D02*
X100303628Y-67929761D01*
X100779819Y-66405952D02*
X100779819Y-66977380D01*
X100779819Y-66691666D02*
X99779819Y-66691666D01*
X99779819Y-66691666D02*
X99922676Y-66786904D01*
X99922676Y-66786904D02*
X100017914Y-66882142D01*
X100017914Y-66882142D02*
X100065533Y-66977380D01*
X150252142Y-131399819D02*
X150252142Y-132114104D01*
X150252142Y-132114104D02*
X150204523Y-132256961D01*
X150204523Y-132256961D02*
X150109285Y-132352200D01*
X150109285Y-132352200D02*
X149966428Y-132399819D01*
X149966428Y-132399819D02*
X149871190Y-132399819D01*
X150490238Y-132495057D02*
X151252142Y-132495057D01*
X151966428Y-132399819D02*
X151490238Y-132399819D01*
X151490238Y-132399819D02*
X151490238Y-131399819D01*
X152299762Y-131876009D02*
X152633095Y-131876009D01*
X152775952Y-132399819D02*
X152299762Y-132399819D01*
X152299762Y-132399819D02*
X152299762Y-131399819D01*
X152299762Y-131399819D02*
X152775952Y-131399819D01*
X153204524Y-132399819D02*
X153204524Y-131399819D01*
X153204524Y-131399819D02*
X153442619Y-131399819D01*
X153442619Y-131399819D02*
X153585476Y-131447438D01*
X153585476Y-131447438D02*
X153680714Y-131542676D01*
X153680714Y-131542676D02*
X153728333Y-131637914D01*
X153728333Y-131637914D02*
X153775952Y-131828390D01*
X153775952Y-131828390D02*
X153775952Y-131971247D01*
X153775952Y-131971247D02*
X153728333Y-132161723D01*
X153728333Y-132161723D02*
X153680714Y-132256961D01*
X153680714Y-132256961D02*
X153585476Y-132352200D01*
X153585476Y-132352200D02*
X153442619Y-132399819D01*
X153442619Y-132399819D02*
X153204524Y-132399819D01*
X154109286Y-131399819D02*
X154728333Y-131399819D01*
X154728333Y-131399819D02*
X154395000Y-131780771D01*
X154395000Y-131780771D02*
X154537857Y-131780771D01*
X154537857Y-131780771D02*
X154633095Y-131828390D01*
X154633095Y-131828390D02*
X154680714Y-131876009D01*
X154680714Y-131876009D02*
X154728333Y-131971247D01*
X154728333Y-131971247D02*
X154728333Y-132209342D01*
X154728333Y-132209342D02*
X154680714Y-132304580D01*
X154680714Y-132304580D02*
X154633095Y-132352200D01*
X154633095Y-132352200D02*
X154537857Y-132399819D01*
X154537857Y-132399819D02*
X154252143Y-132399819D01*
X154252143Y-132399819D02*
X154156905Y-132352200D01*
X154156905Y-132352200D02*
X154109286Y-132304580D01*
X102639285Y-129579819D02*
X102305952Y-129103628D01*
X102067857Y-129579819D02*
X102067857Y-128579819D01*
X102067857Y-128579819D02*
X102448809Y-128579819D01*
X102448809Y-128579819D02*
X102544047Y-128627438D01*
X102544047Y-128627438D02*
X102591666Y-128675057D01*
X102591666Y-128675057D02*
X102639285Y-128770295D01*
X102639285Y-128770295D02*
X102639285Y-128913152D01*
X102639285Y-128913152D02*
X102591666Y-129008390D01*
X102591666Y-129008390D02*
X102544047Y-129056009D01*
X102544047Y-129056009D02*
X102448809Y-129103628D01*
X102448809Y-129103628D02*
X102067857Y-129103628D01*
X102829762Y-129675057D02*
X103591666Y-129675057D01*
X103782143Y-129532200D02*
X103925000Y-129579819D01*
X103925000Y-129579819D02*
X104163095Y-129579819D01*
X104163095Y-129579819D02*
X104258333Y-129532200D01*
X104258333Y-129532200D02*
X104305952Y-129484580D01*
X104305952Y-129484580D02*
X104353571Y-129389342D01*
X104353571Y-129389342D02*
X104353571Y-129294104D01*
X104353571Y-129294104D02*
X104305952Y-129198866D01*
X104305952Y-129198866D02*
X104258333Y-129151247D01*
X104258333Y-129151247D02*
X104163095Y-129103628D01*
X104163095Y-129103628D02*
X103972619Y-129056009D01*
X103972619Y-129056009D02*
X103877381Y-129008390D01*
X103877381Y-129008390D02*
X103829762Y-128960771D01*
X103829762Y-128960771D02*
X103782143Y-128865533D01*
X103782143Y-128865533D02*
X103782143Y-128770295D01*
X103782143Y-128770295D02*
X103829762Y-128675057D01*
X103829762Y-128675057D02*
X103877381Y-128627438D01*
X103877381Y-128627438D02*
X103972619Y-128579819D01*
X103972619Y-128579819D02*
X104210714Y-128579819D01*
X104210714Y-128579819D02*
X104353571Y-128627438D01*
X104972619Y-129103628D02*
X104972619Y-129579819D01*
X104639286Y-128579819D02*
X104972619Y-129103628D01*
X104972619Y-129103628D02*
X105305952Y-128579819D01*
X105639286Y-129579819D02*
X105639286Y-128579819D01*
X105639286Y-128579819D02*
X106210714Y-129579819D01*
X106210714Y-129579819D02*
X106210714Y-128579819D01*
X107258333Y-129484580D02*
X107210714Y-129532200D01*
X107210714Y-129532200D02*
X107067857Y-129579819D01*
X107067857Y-129579819D02*
X106972619Y-129579819D01*
X106972619Y-129579819D02*
X106829762Y-129532200D01*
X106829762Y-129532200D02*
X106734524Y-129436961D01*
X106734524Y-129436961D02*
X106686905Y-129341723D01*
X106686905Y-129341723D02*
X106639286Y-129151247D01*
X106639286Y-129151247D02*
X106639286Y-129008390D01*
X106639286Y-129008390D02*
X106686905Y-128817914D01*
X106686905Y-128817914D02*
X106734524Y-128722676D01*
X106734524Y-128722676D02*
X106829762Y-128627438D01*
X106829762Y-128627438D02*
X106972619Y-128579819D01*
X106972619Y-128579819D02*
X107067857Y-128579819D01*
X107067857Y-128579819D02*
X107210714Y-128627438D01*
X107210714Y-128627438D02*
X107258333Y-128675057D01*
X107448810Y-129675057D02*
X108210714Y-129675057D01*
X108401191Y-129532200D02*
X108544048Y-129579819D01*
X108544048Y-129579819D02*
X108782143Y-129579819D01*
X108782143Y-129579819D02*
X108877381Y-129532200D01*
X108877381Y-129532200D02*
X108925000Y-129484580D01*
X108925000Y-129484580D02*
X108972619Y-129389342D01*
X108972619Y-129389342D02*
X108972619Y-129294104D01*
X108972619Y-129294104D02*
X108925000Y-129198866D01*
X108925000Y-129198866D02*
X108877381Y-129151247D01*
X108877381Y-129151247D02*
X108782143Y-129103628D01*
X108782143Y-129103628D02*
X108591667Y-129056009D01*
X108591667Y-129056009D02*
X108496429Y-129008390D01*
X108496429Y-129008390D02*
X108448810Y-128960771D01*
X108448810Y-128960771D02*
X108401191Y-128865533D01*
X108401191Y-128865533D02*
X108401191Y-128770295D01*
X108401191Y-128770295D02*
X108448810Y-128675057D01*
X108448810Y-128675057D02*
X108496429Y-128627438D01*
X108496429Y-128627438D02*
X108591667Y-128579819D01*
X108591667Y-128579819D02*
X108829762Y-128579819D01*
X108829762Y-128579819D02*
X108972619Y-128627438D01*
X109401191Y-129056009D02*
X109734524Y-129056009D01*
X109877381Y-129579819D02*
X109401191Y-129579819D01*
X109401191Y-129579819D02*
X109401191Y-128579819D01*
X109401191Y-128579819D02*
X109877381Y-128579819D01*
X110877381Y-129579819D02*
X110544048Y-129103628D01*
X110305953Y-129579819D02*
X110305953Y-128579819D01*
X110305953Y-128579819D02*
X110686905Y-128579819D01*
X110686905Y-128579819D02*
X110782143Y-128627438D01*
X110782143Y-128627438D02*
X110829762Y-128675057D01*
X110829762Y-128675057D02*
X110877381Y-128770295D01*
X110877381Y-128770295D02*
X110877381Y-128913152D01*
X110877381Y-128913152D02*
X110829762Y-129008390D01*
X110829762Y-129008390D02*
X110782143Y-129056009D01*
X110782143Y-129056009D02*
X110686905Y-129103628D01*
X110686905Y-129103628D02*
X110305953Y-129103628D01*
X111829762Y-129579819D02*
X111258334Y-129579819D01*
X111544048Y-129579819D02*
X111544048Y-128579819D01*
X111544048Y-128579819D02*
X111448810Y-128722676D01*
X111448810Y-128722676D02*
X111353572Y-128817914D01*
X111353572Y-128817914D02*
X111258334Y-128865533D01*
X108686905Y-126975057D02*
X108734524Y-126927438D01*
X108734524Y-126927438D02*
X108829762Y-126879819D01*
X108829762Y-126879819D02*
X109067857Y-126879819D01*
X109067857Y-126879819D02*
X109163095Y-126927438D01*
X109163095Y-126927438D02*
X109210714Y-126975057D01*
X109210714Y-126975057D02*
X109258333Y-127070295D01*
X109258333Y-127070295D02*
X109258333Y-127165533D01*
X109258333Y-127165533D02*
X109210714Y-127308390D01*
X109210714Y-127308390D02*
X108639286Y-127879819D01*
X108639286Y-127879819D02*
X109258333Y-127879819D01*
X109639286Y-126975057D02*
X109686905Y-126927438D01*
X109686905Y-126927438D02*
X109782143Y-126879819D01*
X109782143Y-126879819D02*
X110020238Y-126879819D01*
X110020238Y-126879819D02*
X110115476Y-126927438D01*
X110115476Y-126927438D02*
X110163095Y-126975057D01*
X110163095Y-126975057D02*
X110210714Y-127070295D01*
X110210714Y-127070295D02*
X110210714Y-127165533D01*
X110210714Y-127165533D02*
X110163095Y-127308390D01*
X110163095Y-127308390D02*
X109591667Y-127879819D01*
X109591667Y-127879819D02*
X110210714Y-127879819D01*
X110829762Y-126879819D02*
X110925000Y-126879819D01*
X110925000Y-126879819D02*
X111020238Y-126927438D01*
X111020238Y-126927438D02*
X111067857Y-126975057D01*
X111067857Y-126975057D02*
X111115476Y-127070295D01*
X111115476Y-127070295D02*
X111163095Y-127260771D01*
X111163095Y-127260771D02*
X111163095Y-127498866D01*
X111163095Y-127498866D02*
X111115476Y-127689342D01*
X111115476Y-127689342D02*
X111067857Y-127784580D01*
X111067857Y-127784580D02*
X111020238Y-127832200D01*
X111020238Y-127832200D02*
X110925000Y-127879819D01*
X110925000Y-127879819D02*
X110829762Y-127879819D01*
X110829762Y-127879819D02*
X110734524Y-127832200D01*
X110734524Y-127832200D02*
X110686905Y-127784580D01*
X110686905Y-127784580D02*
X110639286Y-127689342D01*
X110639286Y-127689342D02*
X110591667Y-127498866D01*
X110591667Y-127498866D02*
X110591667Y-127260771D01*
X110591667Y-127260771D02*
X110639286Y-127070295D01*
X110639286Y-127070295D02*
X110686905Y-126975057D01*
X110686905Y-126975057D02*
X110734524Y-126927438D01*
X110734524Y-126927438D02*
X110829762Y-126879819D01*
X101388333Y-76066549D02*
X101340714Y-76114169D01*
X101340714Y-76114169D02*
X101197857Y-76161788D01*
X101197857Y-76161788D02*
X101102619Y-76161788D01*
X101102619Y-76161788D02*
X100959762Y-76114169D01*
X100959762Y-76114169D02*
X100864524Y-76018930D01*
X100864524Y-76018930D02*
X100816905Y-75923692D01*
X100816905Y-75923692D02*
X100769286Y-75733216D01*
X100769286Y-75733216D02*
X100769286Y-75590359D01*
X100769286Y-75590359D02*
X100816905Y-75399883D01*
X100816905Y-75399883D02*
X100864524Y-75304645D01*
X100864524Y-75304645D02*
X100959762Y-75209407D01*
X100959762Y-75209407D02*
X101102619Y-75161788D01*
X101102619Y-75161788D02*
X101197857Y-75161788D01*
X101197857Y-75161788D02*
X101340714Y-75209407D01*
X101340714Y-75209407D02*
X101388333Y-75257026D01*
X101769286Y-75257026D02*
X101816905Y-75209407D01*
X101816905Y-75209407D02*
X101912143Y-75161788D01*
X101912143Y-75161788D02*
X102150238Y-75161788D01*
X102150238Y-75161788D02*
X102245476Y-75209407D01*
X102245476Y-75209407D02*
X102293095Y-75257026D01*
X102293095Y-75257026D02*
X102340714Y-75352264D01*
X102340714Y-75352264D02*
X102340714Y-75447502D01*
X102340714Y-75447502D02*
X102293095Y-75590359D01*
X102293095Y-75590359D02*
X101721667Y-76161788D01*
X101721667Y-76161788D02*
X102340714Y-76161788D01*
X135825000Y-131399819D02*
X135825000Y-132114104D01*
X135825000Y-132114104D02*
X135777381Y-132256961D01*
X135777381Y-132256961D02*
X135682143Y-132352200D01*
X135682143Y-132352200D02*
X135539286Y-132399819D01*
X135539286Y-132399819D02*
X135444048Y-132399819D01*
X136063096Y-132495057D02*
X136825000Y-132495057D01*
X137539286Y-132399819D02*
X137063096Y-132399819D01*
X137063096Y-132399819D02*
X137063096Y-131399819D01*
X137872620Y-131876009D02*
X138205953Y-131876009D01*
X138348810Y-132399819D02*
X137872620Y-132399819D01*
X137872620Y-132399819D02*
X137872620Y-131399819D01*
X137872620Y-131399819D02*
X138348810Y-131399819D01*
X138777382Y-132399819D02*
X138777382Y-131399819D01*
X138777382Y-131399819D02*
X139015477Y-131399819D01*
X139015477Y-131399819D02*
X139158334Y-131447438D01*
X139158334Y-131447438D02*
X139253572Y-131542676D01*
X139253572Y-131542676D02*
X139301191Y-131637914D01*
X139301191Y-131637914D02*
X139348810Y-131828390D01*
X139348810Y-131828390D02*
X139348810Y-131971247D01*
X139348810Y-131971247D02*
X139301191Y-132161723D01*
X139301191Y-132161723D02*
X139253572Y-132256961D01*
X139253572Y-132256961D02*
X139158334Y-132352200D01*
X139158334Y-132352200D02*
X139015477Y-132399819D01*
X139015477Y-132399819D02*
X138777382Y-132399819D01*
X140205953Y-131733152D02*
X140205953Y-132399819D01*
X139967858Y-131352200D02*
X139729763Y-132066485D01*
X139729763Y-132066485D02*
X140348810Y-132066485D01*
X147943095Y-84499819D02*
X147943095Y-85309342D01*
X147943095Y-85309342D02*
X147990714Y-85404580D01*
X147990714Y-85404580D02*
X148038333Y-85452200D01*
X148038333Y-85452200D02*
X148133571Y-85499819D01*
X148133571Y-85499819D02*
X148324047Y-85499819D01*
X148324047Y-85499819D02*
X148419285Y-85452200D01*
X148419285Y-85452200D02*
X148466904Y-85404580D01*
X148466904Y-85404580D02*
X148514523Y-85309342D01*
X148514523Y-85309342D02*
X148514523Y-84499819D01*
X149514523Y-85499819D02*
X148943095Y-85499819D01*
X149228809Y-85499819D02*
X149228809Y-84499819D01*
X149228809Y-84499819D02*
X149133571Y-84642676D01*
X149133571Y-84642676D02*
X149038333Y-84737914D01*
X149038333Y-84737914D02*
X148943095Y-84785533D01*
X109830714Y-84524819D02*
X109830714Y-85239104D01*
X109830714Y-85239104D02*
X109783095Y-85381961D01*
X109783095Y-85381961D02*
X109687857Y-85477200D01*
X109687857Y-85477200D02*
X109545000Y-85524819D01*
X109545000Y-85524819D02*
X109449762Y-85524819D01*
X110068810Y-85620057D02*
X110830714Y-85620057D01*
X111068810Y-85524819D02*
X111068810Y-84524819D01*
X111068810Y-84524819D02*
X111449762Y-84524819D01*
X111449762Y-84524819D02*
X111545000Y-84572438D01*
X111545000Y-84572438D02*
X111592619Y-84620057D01*
X111592619Y-84620057D02*
X111640238Y-84715295D01*
X111640238Y-84715295D02*
X111640238Y-84858152D01*
X111640238Y-84858152D02*
X111592619Y-84953390D01*
X111592619Y-84953390D02*
X111545000Y-85001009D01*
X111545000Y-85001009D02*
X111449762Y-85048628D01*
X111449762Y-85048628D02*
X111068810Y-85048628D01*
X111973572Y-84524819D02*
X112211667Y-85524819D01*
X112211667Y-85524819D02*
X112402143Y-84810533D01*
X112402143Y-84810533D02*
X112592619Y-85524819D01*
X112592619Y-85524819D02*
X112830715Y-84524819D01*
X113783095Y-85524819D02*
X113449762Y-85048628D01*
X113211667Y-85524819D02*
X113211667Y-84524819D01*
X113211667Y-84524819D02*
X113592619Y-84524819D01*
X113592619Y-84524819D02*
X113687857Y-84572438D01*
X113687857Y-84572438D02*
X113735476Y-84620057D01*
X113735476Y-84620057D02*
X113783095Y-84715295D01*
X113783095Y-84715295D02*
X113783095Y-84858152D01*
X113783095Y-84858152D02*
X113735476Y-84953390D01*
X113735476Y-84953390D02*
X113687857Y-85001009D01*
X113687857Y-85001009D02*
X113592619Y-85048628D01*
X113592619Y-85048628D02*
X113211667Y-85048628D01*
X114164048Y-85239104D02*
X114640238Y-85239104D01*
X114068810Y-85524819D02*
X114402143Y-84524819D01*
X114402143Y-84524819D02*
X114735476Y-85524819D01*
X115592619Y-85524819D02*
X115021191Y-85524819D01*
X115306905Y-85524819D02*
X115306905Y-84524819D01*
X115306905Y-84524819D02*
X115211667Y-84667676D01*
X115211667Y-84667676D02*
X115116429Y-84762914D01*
X115116429Y-84762914D02*
X115021191Y-84810533D01*
X155743654Y-126347010D02*
X155410321Y-125870819D01*
X155172226Y-126347010D02*
X155172226Y-125347010D01*
X155172226Y-125347010D02*
X155553178Y-125347010D01*
X155553178Y-125347010D02*
X155648416Y-125394629D01*
X155648416Y-125394629D02*
X155696035Y-125442248D01*
X155696035Y-125442248D02*
X155743654Y-125537486D01*
X155743654Y-125537486D02*
X155743654Y-125680343D01*
X155743654Y-125680343D02*
X155696035Y-125775581D01*
X155696035Y-125775581D02*
X155648416Y-125823200D01*
X155648416Y-125823200D02*
X155553178Y-125870819D01*
X155553178Y-125870819D02*
X155172226Y-125870819D01*
X156696035Y-126347010D02*
X156124607Y-126347010D01*
X156410321Y-126347010D02*
X156410321Y-125347010D01*
X156410321Y-125347010D02*
X156315083Y-125489867D01*
X156315083Y-125489867D02*
X156219845Y-125585105D01*
X156219845Y-125585105D02*
X156124607Y-125632724D01*
X131271905Y-119675057D02*
X131319524Y-119627438D01*
X131319524Y-119627438D02*
X131414762Y-119579819D01*
X131414762Y-119579819D02*
X131652857Y-119579819D01*
X131652857Y-119579819D02*
X131748095Y-119627438D01*
X131748095Y-119627438D02*
X131795714Y-119675057D01*
X131795714Y-119675057D02*
X131843333Y-119770295D01*
X131843333Y-119770295D02*
X131843333Y-119865533D01*
X131843333Y-119865533D02*
X131795714Y-120008390D01*
X131795714Y-120008390D02*
X131224286Y-120579819D01*
X131224286Y-120579819D02*
X131843333Y-120579819D01*
X132224286Y-119675057D02*
X132271905Y-119627438D01*
X132271905Y-119627438D02*
X132367143Y-119579819D01*
X132367143Y-119579819D02*
X132605238Y-119579819D01*
X132605238Y-119579819D02*
X132700476Y-119627438D01*
X132700476Y-119627438D02*
X132748095Y-119675057D01*
X132748095Y-119675057D02*
X132795714Y-119770295D01*
X132795714Y-119770295D02*
X132795714Y-119865533D01*
X132795714Y-119865533D02*
X132748095Y-120008390D01*
X132748095Y-120008390D02*
X132176667Y-120579819D01*
X132176667Y-120579819D02*
X132795714Y-120579819D01*
X133414762Y-119579819D02*
X133510000Y-119579819D01*
X133510000Y-119579819D02*
X133605238Y-119627438D01*
X133605238Y-119627438D02*
X133652857Y-119675057D01*
X133652857Y-119675057D02*
X133700476Y-119770295D01*
X133700476Y-119770295D02*
X133748095Y-119960771D01*
X133748095Y-119960771D02*
X133748095Y-120198866D01*
X133748095Y-120198866D02*
X133700476Y-120389342D01*
X133700476Y-120389342D02*
X133652857Y-120484580D01*
X133652857Y-120484580D02*
X133605238Y-120532200D01*
X133605238Y-120532200D02*
X133510000Y-120579819D01*
X133510000Y-120579819D02*
X133414762Y-120579819D01*
X133414762Y-120579819D02*
X133319524Y-120532200D01*
X133319524Y-120532200D02*
X133271905Y-120484580D01*
X133271905Y-120484580D02*
X133224286Y-120389342D01*
X133224286Y-120389342D02*
X133176667Y-120198866D01*
X133176667Y-120198866D02*
X133176667Y-119960771D01*
X133176667Y-119960771D02*
X133224286Y-119770295D01*
X133224286Y-119770295D02*
X133271905Y-119675057D01*
X133271905Y-119675057D02*
X133319524Y-119627438D01*
X133319524Y-119627438D02*
X133414762Y-119579819D01*
X139243654Y-126347010D02*
X138910321Y-125870819D01*
X138672226Y-126347010D02*
X138672226Y-125347010D01*
X138672226Y-125347010D02*
X139053178Y-125347010D01*
X139053178Y-125347010D02*
X139148416Y-125394629D01*
X139148416Y-125394629D02*
X139196035Y-125442248D01*
X139196035Y-125442248D02*
X139243654Y-125537486D01*
X139243654Y-125537486D02*
X139243654Y-125680343D01*
X139243654Y-125680343D02*
X139196035Y-125775581D01*
X139196035Y-125775581D02*
X139148416Y-125823200D01*
X139148416Y-125823200D02*
X139053178Y-125870819D01*
X139053178Y-125870819D02*
X138672226Y-125870819D01*
X140100797Y-125347010D02*
X139910321Y-125347010D01*
X139910321Y-125347010D02*
X139815083Y-125394629D01*
X139815083Y-125394629D02*
X139767464Y-125442248D01*
X139767464Y-125442248D02*
X139672226Y-125585105D01*
X139672226Y-125585105D02*
X139624607Y-125775581D01*
X139624607Y-125775581D02*
X139624607Y-126156533D01*
X139624607Y-126156533D02*
X139672226Y-126251771D01*
X139672226Y-126251771D02*
X139719845Y-126299391D01*
X139719845Y-126299391D02*
X139815083Y-126347010D01*
X139815083Y-126347010D02*
X140005559Y-126347010D01*
X140005559Y-126347010D02*
X140100797Y-126299391D01*
X140100797Y-126299391D02*
X140148416Y-126251771D01*
X140148416Y-126251771D02*
X140196035Y-126156533D01*
X140196035Y-126156533D02*
X140196035Y-125918438D01*
X140196035Y-125918438D02*
X140148416Y-125823200D01*
X140148416Y-125823200D02*
X140100797Y-125775581D01*
X140100797Y-125775581D02*
X140005559Y-125727962D01*
X140005559Y-125727962D02*
X139815083Y-125727962D01*
X139815083Y-125727962D02*
X139719845Y-125775581D01*
X139719845Y-125775581D02*
X139672226Y-125823200D01*
X139672226Y-125823200D02*
X139624607Y-125918438D01*
X147821905Y-119675057D02*
X147869524Y-119627438D01*
X147869524Y-119627438D02*
X147964762Y-119579819D01*
X147964762Y-119579819D02*
X148202857Y-119579819D01*
X148202857Y-119579819D02*
X148298095Y-119627438D01*
X148298095Y-119627438D02*
X148345714Y-119675057D01*
X148345714Y-119675057D02*
X148393333Y-119770295D01*
X148393333Y-119770295D02*
X148393333Y-119865533D01*
X148393333Y-119865533D02*
X148345714Y-120008390D01*
X148345714Y-120008390D02*
X147774286Y-120579819D01*
X147774286Y-120579819D02*
X148393333Y-120579819D01*
X148774286Y-119675057D02*
X148821905Y-119627438D01*
X148821905Y-119627438D02*
X148917143Y-119579819D01*
X148917143Y-119579819D02*
X149155238Y-119579819D01*
X149155238Y-119579819D02*
X149250476Y-119627438D01*
X149250476Y-119627438D02*
X149298095Y-119675057D01*
X149298095Y-119675057D02*
X149345714Y-119770295D01*
X149345714Y-119770295D02*
X149345714Y-119865533D01*
X149345714Y-119865533D02*
X149298095Y-120008390D01*
X149298095Y-120008390D02*
X148726667Y-120579819D01*
X148726667Y-120579819D02*
X149345714Y-120579819D01*
X149964762Y-119579819D02*
X150060000Y-119579819D01*
X150060000Y-119579819D02*
X150155238Y-119627438D01*
X150155238Y-119627438D02*
X150202857Y-119675057D01*
X150202857Y-119675057D02*
X150250476Y-119770295D01*
X150250476Y-119770295D02*
X150298095Y-119960771D01*
X150298095Y-119960771D02*
X150298095Y-120198866D01*
X150298095Y-120198866D02*
X150250476Y-120389342D01*
X150250476Y-120389342D02*
X150202857Y-120484580D01*
X150202857Y-120484580D02*
X150155238Y-120532200D01*
X150155238Y-120532200D02*
X150060000Y-120579819D01*
X150060000Y-120579819D02*
X149964762Y-120579819D01*
X149964762Y-120579819D02*
X149869524Y-120532200D01*
X149869524Y-120532200D02*
X149821905Y-120484580D01*
X149821905Y-120484580D02*
X149774286Y-120389342D01*
X149774286Y-120389342D02*
X149726667Y-120198866D01*
X149726667Y-120198866D02*
X149726667Y-119960771D01*
X149726667Y-119960771D02*
X149774286Y-119770295D01*
X149774286Y-119770295D02*
X149821905Y-119675057D01*
X149821905Y-119675057D02*
X149869524Y-119627438D01*
X149869524Y-119627438D02*
X149964762Y-119579819D01*
X87894285Y-117409819D02*
X87894285Y-118124104D01*
X87894285Y-118124104D02*
X87846666Y-118266961D01*
X87846666Y-118266961D02*
X87751428Y-118362200D01*
X87751428Y-118362200D02*
X87608571Y-118409819D01*
X87608571Y-118409819D02*
X87513333Y-118409819D01*
X88132381Y-118505057D02*
X88894285Y-118505057D01*
X89084762Y-118362200D02*
X89227619Y-118409819D01*
X89227619Y-118409819D02*
X89465714Y-118409819D01*
X89465714Y-118409819D02*
X89560952Y-118362200D01*
X89560952Y-118362200D02*
X89608571Y-118314580D01*
X89608571Y-118314580D02*
X89656190Y-118219342D01*
X89656190Y-118219342D02*
X89656190Y-118124104D01*
X89656190Y-118124104D02*
X89608571Y-118028866D01*
X89608571Y-118028866D02*
X89560952Y-117981247D01*
X89560952Y-117981247D02*
X89465714Y-117933628D01*
X89465714Y-117933628D02*
X89275238Y-117886009D01*
X89275238Y-117886009D02*
X89180000Y-117838390D01*
X89180000Y-117838390D02*
X89132381Y-117790771D01*
X89132381Y-117790771D02*
X89084762Y-117695533D01*
X89084762Y-117695533D02*
X89084762Y-117600295D01*
X89084762Y-117600295D02*
X89132381Y-117505057D01*
X89132381Y-117505057D02*
X89180000Y-117457438D01*
X89180000Y-117457438D02*
X89275238Y-117409819D01*
X89275238Y-117409819D02*
X89513333Y-117409819D01*
X89513333Y-117409819D02*
X89656190Y-117457438D01*
X90275238Y-117933628D02*
X90275238Y-118409819D01*
X89941905Y-117409819D02*
X90275238Y-117933628D01*
X90275238Y-117933628D02*
X90608571Y-117409819D01*
X90941905Y-118409819D02*
X90941905Y-117409819D01*
X90941905Y-117409819D02*
X91513333Y-118409819D01*
X91513333Y-118409819D02*
X91513333Y-117409819D01*
X92560952Y-118314580D02*
X92513333Y-118362200D01*
X92513333Y-118362200D02*
X92370476Y-118409819D01*
X92370476Y-118409819D02*
X92275238Y-118409819D01*
X92275238Y-118409819D02*
X92132381Y-118362200D01*
X92132381Y-118362200D02*
X92037143Y-118266961D01*
X92037143Y-118266961D02*
X91989524Y-118171723D01*
X91989524Y-118171723D02*
X91941905Y-117981247D01*
X91941905Y-117981247D02*
X91941905Y-117838390D01*
X91941905Y-117838390D02*
X91989524Y-117647914D01*
X91989524Y-117647914D02*
X92037143Y-117552676D01*
X92037143Y-117552676D02*
X92132381Y-117457438D01*
X92132381Y-117457438D02*
X92275238Y-117409819D01*
X92275238Y-117409819D02*
X92370476Y-117409819D01*
X92370476Y-117409819D02*
X92513333Y-117457438D01*
X92513333Y-117457438D02*
X92560952Y-117505057D01*
X92751429Y-118505057D02*
X93513333Y-118505057D01*
X93751429Y-118409819D02*
X93751429Y-117409819D01*
X94227619Y-118409819D02*
X94227619Y-117409819D01*
X94227619Y-117409819D02*
X94799047Y-118409819D01*
X94799047Y-118409819D02*
X94799047Y-117409819D01*
X95799047Y-118409819D02*
X95227619Y-118409819D01*
X95513333Y-118409819D02*
X95513333Y-117409819D01*
X95513333Y-117409819D02*
X95418095Y-117552676D01*
X95418095Y-117552676D02*
X95322857Y-117647914D01*
X95322857Y-117647914D02*
X95227619Y-117695533D01*
X160437676Y-111184285D02*
X161151961Y-111184285D01*
X161151961Y-111184285D02*
X161294818Y-111231904D01*
X161294818Y-111231904D02*
X161390057Y-111327142D01*
X161390057Y-111327142D02*
X161437676Y-111469999D01*
X161437676Y-111469999D02*
X161437676Y-111565237D01*
X161532914Y-110946190D02*
X161532914Y-110184285D01*
X161437676Y-109469999D02*
X161437676Y-109946189D01*
X161437676Y-109946189D02*
X160437676Y-109946189D01*
X160913866Y-109136665D02*
X160913866Y-108803332D01*
X161437676Y-108660475D02*
X161437676Y-109136665D01*
X161437676Y-109136665D02*
X160437676Y-109136665D01*
X160437676Y-109136665D02*
X160437676Y-108660475D01*
X161437676Y-108231903D02*
X160437676Y-108231903D01*
X160437676Y-108231903D02*
X160437676Y-107993808D01*
X160437676Y-107993808D02*
X160485295Y-107850951D01*
X160485295Y-107850951D02*
X160580533Y-107755713D01*
X160580533Y-107755713D02*
X160675771Y-107708094D01*
X160675771Y-107708094D02*
X160866247Y-107660475D01*
X160866247Y-107660475D02*
X161009104Y-107660475D01*
X161009104Y-107660475D02*
X161199580Y-107708094D01*
X161199580Y-107708094D02*
X161294818Y-107755713D01*
X161294818Y-107755713D02*
X161390057Y-107850951D01*
X161390057Y-107850951D02*
X161437676Y-107993808D01*
X161437676Y-107993808D02*
X161437676Y-108231903D01*
X160437676Y-107041427D02*
X160437676Y-106946189D01*
X160437676Y-106946189D02*
X160485295Y-106850951D01*
X160485295Y-106850951D02*
X160532914Y-106803332D01*
X160532914Y-106803332D02*
X160628152Y-106755713D01*
X160628152Y-106755713D02*
X160818628Y-106708094D01*
X160818628Y-106708094D02*
X161056723Y-106708094D01*
X161056723Y-106708094D02*
X161247199Y-106755713D01*
X161247199Y-106755713D02*
X161342437Y-106803332D01*
X161342437Y-106803332D02*
X161390057Y-106850951D01*
X161390057Y-106850951D02*
X161437676Y-106946189D01*
X161437676Y-106946189D02*
X161437676Y-107041427D01*
X161437676Y-107041427D02*
X161390057Y-107136665D01*
X161390057Y-107136665D02*
X161342437Y-107184284D01*
X161342437Y-107184284D02*
X161247199Y-107231903D01*
X161247199Y-107231903D02*
X161056723Y-107279522D01*
X161056723Y-107279522D02*
X160818628Y-107279522D01*
X160818628Y-107279522D02*
X160628152Y-107231903D01*
X160628152Y-107231903D02*
X160532914Y-107184284D01*
X160532914Y-107184284D02*
X160485295Y-107136665D01*
X160485295Y-107136665D02*
X160437676Y-107041427D01*
X152483654Y-126347010D02*
X152150321Y-125870819D01*
X151912226Y-126347010D02*
X151912226Y-125347010D01*
X151912226Y-125347010D02*
X152293178Y-125347010D01*
X152293178Y-125347010D02*
X152388416Y-125394629D01*
X152388416Y-125394629D02*
X152436035Y-125442248D01*
X152436035Y-125442248D02*
X152483654Y-125537486D01*
X152483654Y-125537486D02*
X152483654Y-125680343D01*
X152483654Y-125680343D02*
X152436035Y-125775581D01*
X152436035Y-125775581D02*
X152388416Y-125823200D01*
X152388416Y-125823200D02*
X152293178Y-125870819D01*
X152293178Y-125870819D02*
X151912226Y-125870819D01*
X152864607Y-125442248D02*
X152912226Y-125394629D01*
X152912226Y-125394629D02*
X153007464Y-125347010D01*
X153007464Y-125347010D02*
X153245559Y-125347010D01*
X153245559Y-125347010D02*
X153340797Y-125394629D01*
X153340797Y-125394629D02*
X153388416Y-125442248D01*
X153388416Y-125442248D02*
X153436035Y-125537486D01*
X153436035Y-125537486D02*
X153436035Y-125632724D01*
X153436035Y-125632724D02*
X153388416Y-125775581D01*
X153388416Y-125775581D02*
X152816988Y-126347010D01*
X152816988Y-126347010D02*
X153436035Y-126347010D01*
X134581905Y-119675057D02*
X134629524Y-119627438D01*
X134629524Y-119627438D02*
X134724762Y-119579819D01*
X134724762Y-119579819D02*
X134962857Y-119579819D01*
X134962857Y-119579819D02*
X135058095Y-119627438D01*
X135058095Y-119627438D02*
X135105714Y-119675057D01*
X135105714Y-119675057D02*
X135153333Y-119770295D01*
X135153333Y-119770295D02*
X135153333Y-119865533D01*
X135153333Y-119865533D02*
X135105714Y-120008390D01*
X135105714Y-120008390D02*
X134534286Y-120579819D01*
X134534286Y-120579819D02*
X135153333Y-120579819D01*
X135534286Y-119675057D02*
X135581905Y-119627438D01*
X135581905Y-119627438D02*
X135677143Y-119579819D01*
X135677143Y-119579819D02*
X135915238Y-119579819D01*
X135915238Y-119579819D02*
X136010476Y-119627438D01*
X136010476Y-119627438D02*
X136058095Y-119675057D01*
X136058095Y-119675057D02*
X136105714Y-119770295D01*
X136105714Y-119770295D02*
X136105714Y-119865533D01*
X136105714Y-119865533D02*
X136058095Y-120008390D01*
X136058095Y-120008390D02*
X135486667Y-120579819D01*
X135486667Y-120579819D02*
X136105714Y-120579819D01*
X136724762Y-119579819D02*
X136820000Y-119579819D01*
X136820000Y-119579819D02*
X136915238Y-119627438D01*
X136915238Y-119627438D02*
X136962857Y-119675057D01*
X136962857Y-119675057D02*
X137010476Y-119770295D01*
X137010476Y-119770295D02*
X137058095Y-119960771D01*
X137058095Y-119960771D02*
X137058095Y-120198866D01*
X137058095Y-120198866D02*
X137010476Y-120389342D01*
X137010476Y-120389342D02*
X136962857Y-120484580D01*
X136962857Y-120484580D02*
X136915238Y-120532200D01*
X136915238Y-120532200D02*
X136820000Y-120579819D01*
X136820000Y-120579819D02*
X136724762Y-120579819D01*
X136724762Y-120579819D02*
X136629524Y-120532200D01*
X136629524Y-120532200D02*
X136581905Y-120484580D01*
X136581905Y-120484580D02*
X136534286Y-120389342D01*
X136534286Y-120389342D02*
X136486667Y-120198866D01*
X136486667Y-120198866D02*
X136486667Y-119960771D01*
X136486667Y-119960771D02*
X136534286Y-119770295D01*
X136534286Y-119770295D02*
X136581905Y-119675057D01*
X136581905Y-119675057D02*
X136629524Y-119627438D01*
X136629524Y-119627438D02*
X136724762Y-119579819D01*
X127391811Y-99479409D02*
X127391811Y-99003219D01*
X127677526Y-99574647D02*
X126677526Y-99241314D01*
X126677526Y-99241314D02*
X127677526Y-98907981D01*
X127677526Y-98050838D02*
X127677526Y-98622266D01*
X127677526Y-98336552D02*
X126677526Y-98336552D01*
X126677526Y-98336552D02*
X126820383Y-98431790D01*
X126820383Y-98431790D02*
X126915621Y-98527028D01*
X126915621Y-98527028D02*
X126963240Y-98622266D01*
X106970714Y-131399819D02*
X106970714Y-132114104D01*
X106970714Y-132114104D02*
X106923095Y-132256961D01*
X106923095Y-132256961D02*
X106827857Y-132352200D01*
X106827857Y-132352200D02*
X106685000Y-132399819D01*
X106685000Y-132399819D02*
X106589762Y-132399819D01*
X107208810Y-132495057D02*
X107970714Y-132495057D01*
X108685000Y-132399819D02*
X108208810Y-132399819D01*
X108208810Y-132399819D02*
X108208810Y-131399819D01*
X109018334Y-131876009D02*
X109351667Y-131876009D01*
X109494524Y-132399819D02*
X109018334Y-132399819D01*
X109018334Y-132399819D02*
X109018334Y-131399819D01*
X109018334Y-131399819D02*
X109494524Y-131399819D01*
X109923096Y-132399819D02*
X109923096Y-131399819D01*
X109923096Y-131399819D02*
X110161191Y-131399819D01*
X110161191Y-131399819D02*
X110304048Y-131447438D01*
X110304048Y-131447438D02*
X110399286Y-131542676D01*
X110399286Y-131542676D02*
X110446905Y-131637914D01*
X110446905Y-131637914D02*
X110494524Y-131828390D01*
X110494524Y-131828390D02*
X110494524Y-131971247D01*
X110494524Y-131971247D02*
X110446905Y-132161723D01*
X110446905Y-132161723D02*
X110399286Y-132256961D01*
X110399286Y-132256961D02*
X110304048Y-132352200D01*
X110304048Y-132352200D02*
X110161191Y-132399819D01*
X110161191Y-132399819D02*
X109923096Y-132399819D01*
X111351667Y-131399819D02*
X111161191Y-131399819D01*
X111161191Y-131399819D02*
X111065953Y-131447438D01*
X111065953Y-131447438D02*
X111018334Y-131495057D01*
X111018334Y-131495057D02*
X110923096Y-131637914D01*
X110923096Y-131637914D02*
X110875477Y-131828390D01*
X110875477Y-131828390D02*
X110875477Y-132209342D01*
X110875477Y-132209342D02*
X110923096Y-132304580D01*
X110923096Y-132304580D02*
X110970715Y-132352200D01*
X110970715Y-132352200D02*
X111065953Y-132399819D01*
X111065953Y-132399819D02*
X111256429Y-132399819D01*
X111256429Y-132399819D02*
X111351667Y-132352200D01*
X111351667Y-132352200D02*
X111399286Y-132304580D01*
X111399286Y-132304580D02*
X111446905Y-132209342D01*
X111446905Y-132209342D02*
X111446905Y-131971247D01*
X111446905Y-131971247D02*
X111399286Y-131876009D01*
X111399286Y-131876009D02*
X111351667Y-131828390D01*
X111351667Y-131828390D02*
X111256429Y-131780771D01*
X111256429Y-131780771D02*
X111065953Y-131780771D01*
X111065953Y-131780771D02*
X110970715Y-131828390D01*
X110970715Y-131828390D02*
X110923096Y-131876009D01*
X110923096Y-131876009D02*
X110875477Y-131971247D01*
X102567856Y-125629819D02*
X102234523Y-125153628D01*
X101996428Y-125629819D02*
X101996428Y-124629819D01*
X101996428Y-124629819D02*
X102377380Y-124629819D01*
X102377380Y-124629819D02*
X102472618Y-124677438D01*
X102472618Y-124677438D02*
X102520237Y-124725057D01*
X102520237Y-124725057D02*
X102567856Y-124820295D01*
X102567856Y-124820295D02*
X102567856Y-124963152D01*
X102567856Y-124963152D02*
X102520237Y-125058390D01*
X102520237Y-125058390D02*
X102472618Y-125106009D01*
X102472618Y-125106009D02*
X102377380Y-125153628D01*
X102377380Y-125153628D02*
X101996428Y-125153628D01*
X102758333Y-125725057D02*
X103520237Y-125725057D01*
X103710714Y-125582200D02*
X103853571Y-125629819D01*
X103853571Y-125629819D02*
X104091666Y-125629819D01*
X104091666Y-125629819D02*
X104186904Y-125582200D01*
X104186904Y-125582200D02*
X104234523Y-125534580D01*
X104234523Y-125534580D02*
X104282142Y-125439342D01*
X104282142Y-125439342D02*
X104282142Y-125344104D01*
X104282142Y-125344104D02*
X104234523Y-125248866D01*
X104234523Y-125248866D02*
X104186904Y-125201247D01*
X104186904Y-125201247D02*
X104091666Y-125153628D01*
X104091666Y-125153628D02*
X103901190Y-125106009D01*
X103901190Y-125106009D02*
X103805952Y-125058390D01*
X103805952Y-125058390D02*
X103758333Y-125010771D01*
X103758333Y-125010771D02*
X103710714Y-124915533D01*
X103710714Y-124915533D02*
X103710714Y-124820295D01*
X103710714Y-124820295D02*
X103758333Y-124725057D01*
X103758333Y-124725057D02*
X103805952Y-124677438D01*
X103805952Y-124677438D02*
X103901190Y-124629819D01*
X103901190Y-124629819D02*
X104139285Y-124629819D01*
X104139285Y-124629819D02*
X104282142Y-124677438D01*
X104901190Y-125153628D02*
X104901190Y-125629819D01*
X104567857Y-124629819D02*
X104901190Y-125153628D01*
X104901190Y-125153628D02*
X105234523Y-124629819D01*
X105567857Y-125629819D02*
X105567857Y-124629819D01*
X105567857Y-124629819D02*
X106139285Y-125629819D01*
X106139285Y-125629819D02*
X106139285Y-124629819D01*
X107186904Y-125534580D02*
X107139285Y-125582200D01*
X107139285Y-125582200D02*
X106996428Y-125629819D01*
X106996428Y-125629819D02*
X106901190Y-125629819D01*
X106901190Y-125629819D02*
X106758333Y-125582200D01*
X106758333Y-125582200D02*
X106663095Y-125486961D01*
X106663095Y-125486961D02*
X106615476Y-125391723D01*
X106615476Y-125391723D02*
X106567857Y-125201247D01*
X106567857Y-125201247D02*
X106567857Y-125058390D01*
X106567857Y-125058390D02*
X106615476Y-124867914D01*
X106615476Y-124867914D02*
X106663095Y-124772676D01*
X106663095Y-124772676D02*
X106758333Y-124677438D01*
X106758333Y-124677438D02*
X106901190Y-124629819D01*
X106901190Y-124629819D02*
X106996428Y-124629819D01*
X106996428Y-124629819D02*
X107139285Y-124677438D01*
X107139285Y-124677438D02*
X107186904Y-124725057D01*
X107377381Y-125725057D02*
X108139285Y-125725057D01*
X108377381Y-125629819D02*
X108377381Y-124629819D01*
X108377381Y-124629819D02*
X108758333Y-124629819D01*
X108758333Y-124629819D02*
X108853571Y-124677438D01*
X108853571Y-124677438D02*
X108901190Y-124725057D01*
X108901190Y-124725057D02*
X108948809Y-124820295D01*
X108948809Y-124820295D02*
X108948809Y-124963152D01*
X108948809Y-124963152D02*
X108901190Y-125058390D01*
X108901190Y-125058390D02*
X108853571Y-125106009D01*
X108853571Y-125106009D02*
X108758333Y-125153628D01*
X108758333Y-125153628D02*
X108377381Y-125153628D01*
X109377381Y-125629819D02*
X109377381Y-124629819D01*
X109377381Y-124629819D02*
X109615476Y-124629819D01*
X109615476Y-124629819D02*
X109758333Y-124677438D01*
X109758333Y-124677438D02*
X109853571Y-124772676D01*
X109853571Y-124772676D02*
X109901190Y-124867914D01*
X109901190Y-124867914D02*
X109948809Y-125058390D01*
X109948809Y-125058390D02*
X109948809Y-125201247D01*
X109948809Y-125201247D02*
X109901190Y-125391723D01*
X109901190Y-125391723D02*
X109853571Y-125486961D01*
X109853571Y-125486961D02*
X109758333Y-125582200D01*
X109758333Y-125582200D02*
X109615476Y-125629819D01*
X109615476Y-125629819D02*
X109377381Y-125629819D01*
X110901190Y-125629819D02*
X110329762Y-125629819D01*
X110615476Y-125629819D02*
X110615476Y-124629819D01*
X110615476Y-124629819D02*
X110520238Y-124772676D01*
X110520238Y-124772676D02*
X110425000Y-124867914D01*
X110425000Y-124867914D02*
X110329762Y-124915533D01*
X109329761Y-123929819D02*
X108758333Y-123929819D01*
X109044047Y-123929819D02*
X109044047Y-122929819D01*
X109044047Y-122929819D02*
X108948809Y-123072676D01*
X108948809Y-123072676D02*
X108853571Y-123167914D01*
X108853571Y-123167914D02*
X108758333Y-123215533D01*
X109948809Y-122929819D02*
X110044047Y-122929819D01*
X110044047Y-122929819D02*
X110139285Y-122977438D01*
X110139285Y-122977438D02*
X110186904Y-123025057D01*
X110186904Y-123025057D02*
X110234523Y-123120295D01*
X110234523Y-123120295D02*
X110282142Y-123310771D01*
X110282142Y-123310771D02*
X110282142Y-123548866D01*
X110282142Y-123548866D02*
X110234523Y-123739342D01*
X110234523Y-123739342D02*
X110186904Y-123834580D01*
X110186904Y-123834580D02*
X110139285Y-123882200D01*
X110139285Y-123882200D02*
X110044047Y-123929819D01*
X110044047Y-123929819D02*
X109948809Y-123929819D01*
X109948809Y-123929819D02*
X109853571Y-123882200D01*
X109853571Y-123882200D02*
X109805952Y-123834580D01*
X109805952Y-123834580D02*
X109758333Y-123739342D01*
X109758333Y-123739342D02*
X109710714Y-123548866D01*
X109710714Y-123548866D02*
X109710714Y-123310771D01*
X109710714Y-123310771D02*
X109758333Y-123120295D01*
X109758333Y-123120295D02*
X109805952Y-123025057D01*
X109805952Y-123025057D02*
X109853571Y-122977438D01*
X109853571Y-122977438D02*
X109948809Y-122929819D01*
X110710714Y-123929819D02*
X110710714Y-122929819D01*
X110805952Y-123548866D02*
X111091666Y-123929819D01*
X111091666Y-123263152D02*
X110710714Y-123644104D01*
X157068333Y-88884580D02*
X157020714Y-88932200D01*
X157020714Y-88932200D02*
X156877857Y-88979819D01*
X156877857Y-88979819D02*
X156782619Y-88979819D01*
X156782619Y-88979819D02*
X156639762Y-88932200D01*
X156639762Y-88932200D02*
X156544524Y-88836961D01*
X156544524Y-88836961D02*
X156496905Y-88741723D01*
X156496905Y-88741723D02*
X156449286Y-88551247D01*
X156449286Y-88551247D02*
X156449286Y-88408390D01*
X156449286Y-88408390D02*
X156496905Y-88217914D01*
X156496905Y-88217914D02*
X156544524Y-88122676D01*
X156544524Y-88122676D02*
X156639762Y-88027438D01*
X156639762Y-88027438D02*
X156782619Y-87979819D01*
X156782619Y-87979819D02*
X156877857Y-87979819D01*
X156877857Y-87979819D02*
X157020714Y-88027438D01*
X157020714Y-88027438D02*
X157068333Y-88075057D01*
X158020714Y-88979819D02*
X157449286Y-88979819D01*
X157735000Y-88979819D02*
X157735000Y-87979819D01*
X157735000Y-87979819D02*
X157639762Y-88122676D01*
X157639762Y-88122676D02*
X157544524Y-88217914D01*
X157544524Y-88217914D02*
X157449286Y-88265533D01*
X149173654Y-126347010D02*
X148840321Y-125870819D01*
X148602226Y-126347010D02*
X148602226Y-125347010D01*
X148602226Y-125347010D02*
X148983178Y-125347010D01*
X148983178Y-125347010D02*
X149078416Y-125394629D01*
X149078416Y-125394629D02*
X149126035Y-125442248D01*
X149126035Y-125442248D02*
X149173654Y-125537486D01*
X149173654Y-125537486D02*
X149173654Y-125680343D01*
X149173654Y-125680343D02*
X149126035Y-125775581D01*
X149126035Y-125775581D02*
X149078416Y-125823200D01*
X149078416Y-125823200D02*
X148983178Y-125870819D01*
X148983178Y-125870819D02*
X148602226Y-125870819D01*
X149506988Y-125347010D02*
X150126035Y-125347010D01*
X150126035Y-125347010D02*
X149792702Y-125727962D01*
X149792702Y-125727962D02*
X149935559Y-125727962D01*
X149935559Y-125727962D02*
X150030797Y-125775581D01*
X150030797Y-125775581D02*
X150078416Y-125823200D01*
X150078416Y-125823200D02*
X150126035Y-125918438D01*
X150126035Y-125918438D02*
X150126035Y-126156533D01*
X150126035Y-126156533D02*
X150078416Y-126251771D01*
X150078416Y-126251771D02*
X150030797Y-126299391D01*
X150030797Y-126299391D02*
X149935559Y-126347010D01*
X149935559Y-126347010D02*
X149649845Y-126347010D01*
X149649845Y-126347010D02*
X149554607Y-126299391D01*
X149554607Y-126299391D02*
X149506988Y-126251771D01*
X137891905Y-119675057D02*
X137939524Y-119627438D01*
X137939524Y-119627438D02*
X138034762Y-119579819D01*
X138034762Y-119579819D02*
X138272857Y-119579819D01*
X138272857Y-119579819D02*
X138368095Y-119627438D01*
X138368095Y-119627438D02*
X138415714Y-119675057D01*
X138415714Y-119675057D02*
X138463333Y-119770295D01*
X138463333Y-119770295D02*
X138463333Y-119865533D01*
X138463333Y-119865533D02*
X138415714Y-120008390D01*
X138415714Y-120008390D02*
X137844286Y-120579819D01*
X137844286Y-120579819D02*
X138463333Y-120579819D01*
X138844286Y-119675057D02*
X138891905Y-119627438D01*
X138891905Y-119627438D02*
X138987143Y-119579819D01*
X138987143Y-119579819D02*
X139225238Y-119579819D01*
X139225238Y-119579819D02*
X139320476Y-119627438D01*
X139320476Y-119627438D02*
X139368095Y-119675057D01*
X139368095Y-119675057D02*
X139415714Y-119770295D01*
X139415714Y-119770295D02*
X139415714Y-119865533D01*
X139415714Y-119865533D02*
X139368095Y-120008390D01*
X139368095Y-120008390D02*
X138796667Y-120579819D01*
X138796667Y-120579819D02*
X139415714Y-120579819D01*
X140034762Y-119579819D02*
X140130000Y-119579819D01*
X140130000Y-119579819D02*
X140225238Y-119627438D01*
X140225238Y-119627438D02*
X140272857Y-119675057D01*
X140272857Y-119675057D02*
X140320476Y-119770295D01*
X140320476Y-119770295D02*
X140368095Y-119960771D01*
X140368095Y-119960771D02*
X140368095Y-120198866D01*
X140368095Y-120198866D02*
X140320476Y-120389342D01*
X140320476Y-120389342D02*
X140272857Y-120484580D01*
X140272857Y-120484580D02*
X140225238Y-120532200D01*
X140225238Y-120532200D02*
X140130000Y-120579819D01*
X140130000Y-120579819D02*
X140034762Y-120579819D01*
X140034762Y-120579819D02*
X139939524Y-120532200D01*
X139939524Y-120532200D02*
X139891905Y-120484580D01*
X139891905Y-120484580D02*
X139844286Y-120389342D01*
X139844286Y-120389342D02*
X139796667Y-120198866D01*
X139796667Y-120198866D02*
X139796667Y-119960771D01*
X139796667Y-119960771D02*
X139844286Y-119770295D01*
X139844286Y-119770295D02*
X139891905Y-119675057D01*
X139891905Y-119675057D02*
X139939524Y-119627438D01*
X139939524Y-119627438D02*
X140034762Y-119579819D01*
X160189819Y-102507381D02*
X160904104Y-102507381D01*
X160904104Y-102507381D02*
X161046961Y-102555000D01*
X161046961Y-102555000D02*
X161142200Y-102650238D01*
X161142200Y-102650238D02*
X161189819Y-102793095D01*
X161189819Y-102793095D02*
X161189819Y-102888333D01*
X161285057Y-102269286D02*
X161285057Y-101507381D01*
X161142200Y-101316904D02*
X161189819Y-101174047D01*
X161189819Y-101174047D02*
X161189819Y-100935952D01*
X161189819Y-100935952D02*
X161142200Y-100840714D01*
X161142200Y-100840714D02*
X161094580Y-100793095D01*
X161094580Y-100793095D02*
X160999342Y-100745476D01*
X160999342Y-100745476D02*
X160904104Y-100745476D01*
X160904104Y-100745476D02*
X160808866Y-100793095D01*
X160808866Y-100793095D02*
X160761247Y-100840714D01*
X160761247Y-100840714D02*
X160713628Y-100935952D01*
X160713628Y-100935952D02*
X160666009Y-101126428D01*
X160666009Y-101126428D02*
X160618390Y-101221666D01*
X160618390Y-101221666D02*
X160570771Y-101269285D01*
X160570771Y-101269285D02*
X160475533Y-101316904D01*
X160475533Y-101316904D02*
X160380295Y-101316904D01*
X160380295Y-101316904D02*
X160285057Y-101269285D01*
X160285057Y-101269285D02*
X160237438Y-101221666D01*
X160237438Y-101221666D02*
X160189819Y-101126428D01*
X160189819Y-101126428D02*
X160189819Y-100888333D01*
X160189819Y-100888333D02*
X160237438Y-100745476D01*
X160713628Y-100126428D02*
X161189819Y-100126428D01*
X160189819Y-100459761D02*
X160713628Y-100126428D01*
X160713628Y-100126428D02*
X160189819Y-99793095D01*
X161189819Y-99459761D02*
X160189819Y-99459761D01*
X160189819Y-99459761D02*
X161189819Y-98888333D01*
X161189819Y-98888333D02*
X160189819Y-98888333D01*
X161094580Y-97840714D02*
X161142200Y-97888333D01*
X161142200Y-97888333D02*
X161189819Y-98031190D01*
X161189819Y-98031190D02*
X161189819Y-98126428D01*
X161189819Y-98126428D02*
X161142200Y-98269285D01*
X161142200Y-98269285D02*
X161046961Y-98364523D01*
X161046961Y-98364523D02*
X160951723Y-98412142D01*
X160951723Y-98412142D02*
X160761247Y-98459761D01*
X160761247Y-98459761D02*
X160618390Y-98459761D01*
X160618390Y-98459761D02*
X160427914Y-98412142D01*
X160427914Y-98412142D02*
X160332676Y-98364523D01*
X160332676Y-98364523D02*
X160237438Y-98269285D01*
X160237438Y-98269285D02*
X160189819Y-98126428D01*
X160189819Y-98126428D02*
X160189819Y-98031190D01*
X160189819Y-98031190D02*
X160237438Y-97888333D01*
X160237438Y-97888333D02*
X160285057Y-97840714D01*
X161285057Y-97650238D02*
X161285057Y-96888333D01*
X160189819Y-96459761D02*
X160189819Y-96269285D01*
X160189819Y-96269285D02*
X160237438Y-96174047D01*
X160237438Y-96174047D02*
X160332676Y-96078809D01*
X160332676Y-96078809D02*
X160523152Y-96031190D01*
X160523152Y-96031190D02*
X160856485Y-96031190D01*
X160856485Y-96031190D02*
X161046961Y-96078809D01*
X161046961Y-96078809D02*
X161142200Y-96174047D01*
X161142200Y-96174047D02*
X161189819Y-96269285D01*
X161189819Y-96269285D02*
X161189819Y-96459761D01*
X161189819Y-96459761D02*
X161142200Y-96554999D01*
X161142200Y-96554999D02*
X161046961Y-96650237D01*
X161046961Y-96650237D02*
X160856485Y-96697856D01*
X160856485Y-96697856D02*
X160523152Y-96697856D01*
X160523152Y-96697856D02*
X160332676Y-96650237D01*
X160332676Y-96650237D02*
X160237438Y-96554999D01*
X160237438Y-96554999D02*
X160189819Y-96459761D01*
X160189819Y-95602618D02*
X160999342Y-95602618D01*
X160999342Y-95602618D02*
X161094580Y-95554999D01*
X161094580Y-95554999D02*
X161142200Y-95507380D01*
X161142200Y-95507380D02*
X161189819Y-95412142D01*
X161189819Y-95412142D02*
X161189819Y-95221666D01*
X161189819Y-95221666D02*
X161142200Y-95126428D01*
X161142200Y-95126428D02*
X161094580Y-95078809D01*
X161094580Y-95078809D02*
X160999342Y-95031190D01*
X160999342Y-95031190D02*
X160189819Y-95031190D01*
X160189819Y-94697856D02*
X160189819Y-94126428D01*
X161189819Y-94412142D02*
X160189819Y-94412142D01*
X161189819Y-93269285D02*
X161189819Y-93840713D01*
X161189819Y-93554999D02*
X160189819Y-93554999D01*
X160189819Y-93554999D02*
X160332676Y-93650237D01*
X160332676Y-93650237D02*
X160427914Y-93745475D01*
X160427914Y-93745475D02*
X160475533Y-93840713D01*
X91429819Y-127431904D02*
X92144104Y-127431904D01*
X92144104Y-127431904D02*
X92286961Y-127479523D01*
X92286961Y-127479523D02*
X92382200Y-127574761D01*
X92382200Y-127574761D02*
X92429819Y-127717618D01*
X92429819Y-127717618D02*
X92429819Y-127812856D01*
X92525057Y-127193809D02*
X92525057Y-126431904D01*
X92429819Y-126193808D02*
X91429819Y-126193808D01*
X91429819Y-126193808D02*
X92144104Y-125860475D01*
X92144104Y-125860475D02*
X91429819Y-125527142D01*
X91429819Y-125527142D02*
X92429819Y-125527142D01*
X91429819Y-124860475D02*
X91429819Y-124669999D01*
X91429819Y-124669999D02*
X91477438Y-124574761D01*
X91477438Y-124574761D02*
X91572676Y-124479523D01*
X91572676Y-124479523D02*
X91763152Y-124431904D01*
X91763152Y-124431904D02*
X92096485Y-124431904D01*
X92096485Y-124431904D02*
X92286961Y-124479523D01*
X92286961Y-124479523D02*
X92382200Y-124574761D01*
X92382200Y-124574761D02*
X92429819Y-124669999D01*
X92429819Y-124669999D02*
X92429819Y-124860475D01*
X92429819Y-124860475D02*
X92382200Y-124955713D01*
X92382200Y-124955713D02*
X92286961Y-125050951D01*
X92286961Y-125050951D02*
X92096485Y-125098570D01*
X92096485Y-125098570D02*
X91763152Y-125098570D01*
X91763152Y-125098570D02*
X91572676Y-125050951D01*
X91572676Y-125050951D02*
X91477438Y-124955713D01*
X91477438Y-124955713D02*
X91429819Y-124860475D01*
X92429819Y-124003332D02*
X91429819Y-124003332D01*
X91429819Y-124003332D02*
X91429819Y-123765237D01*
X91429819Y-123765237D02*
X91477438Y-123622380D01*
X91477438Y-123622380D02*
X91572676Y-123527142D01*
X91572676Y-123527142D02*
X91667914Y-123479523D01*
X91667914Y-123479523D02*
X91858390Y-123431904D01*
X91858390Y-123431904D02*
X92001247Y-123431904D01*
X92001247Y-123431904D02*
X92191723Y-123479523D01*
X92191723Y-123479523D02*
X92286961Y-123527142D01*
X92286961Y-123527142D02*
X92382200Y-123622380D01*
X92382200Y-123622380D02*
X92429819Y-123765237D01*
X92429819Y-123765237D02*
X92429819Y-124003332D01*
X91906009Y-123003332D02*
X91906009Y-122669999D01*
X92429819Y-122527142D02*
X92429819Y-123003332D01*
X92429819Y-123003332D02*
X91429819Y-123003332D01*
X91429819Y-123003332D02*
X91429819Y-122527142D01*
X92429819Y-121574761D02*
X92429819Y-122146189D01*
X92429819Y-121860475D02*
X91429819Y-121860475D01*
X91429819Y-121860475D02*
X91572676Y-121955713D01*
X91572676Y-121955713D02*
X91667914Y-122050951D01*
X91667914Y-122050951D02*
X91715533Y-122146189D01*
X98899819Y-127920476D02*
X99614104Y-127920476D01*
X99614104Y-127920476D02*
X99756961Y-127968095D01*
X99756961Y-127968095D02*
X99852200Y-128063333D01*
X99852200Y-128063333D02*
X99899819Y-128206190D01*
X99899819Y-128206190D02*
X99899819Y-128301428D01*
X99995057Y-127682381D02*
X99995057Y-126920476D01*
X98899819Y-126825237D02*
X98899819Y-126253809D01*
X99899819Y-126539523D02*
X98899819Y-126539523D01*
X99899819Y-125920475D02*
X98899819Y-125920475D01*
X98899819Y-125920475D02*
X98899819Y-125539523D01*
X98899819Y-125539523D02*
X98947438Y-125444285D01*
X98947438Y-125444285D02*
X98995057Y-125396666D01*
X98995057Y-125396666D02*
X99090295Y-125349047D01*
X99090295Y-125349047D02*
X99233152Y-125349047D01*
X99233152Y-125349047D02*
X99328390Y-125396666D01*
X99328390Y-125396666D02*
X99376009Y-125444285D01*
X99376009Y-125444285D02*
X99423628Y-125539523D01*
X99423628Y-125539523D02*
X99423628Y-125920475D01*
X99995057Y-125158571D02*
X99995057Y-124396666D01*
X99852200Y-124206189D02*
X99899819Y-124063332D01*
X99899819Y-124063332D02*
X99899819Y-123825237D01*
X99899819Y-123825237D02*
X99852200Y-123729999D01*
X99852200Y-123729999D02*
X99804580Y-123682380D01*
X99804580Y-123682380D02*
X99709342Y-123634761D01*
X99709342Y-123634761D02*
X99614104Y-123634761D01*
X99614104Y-123634761D02*
X99518866Y-123682380D01*
X99518866Y-123682380D02*
X99471247Y-123729999D01*
X99471247Y-123729999D02*
X99423628Y-123825237D01*
X99423628Y-123825237D02*
X99376009Y-124015713D01*
X99376009Y-124015713D02*
X99328390Y-124110951D01*
X99328390Y-124110951D02*
X99280771Y-124158570D01*
X99280771Y-124158570D02*
X99185533Y-124206189D01*
X99185533Y-124206189D02*
X99090295Y-124206189D01*
X99090295Y-124206189D02*
X98995057Y-124158570D01*
X98995057Y-124158570D02*
X98947438Y-124110951D01*
X98947438Y-124110951D02*
X98899819Y-124015713D01*
X98899819Y-124015713D02*
X98899819Y-123777618D01*
X98899819Y-123777618D02*
X98947438Y-123634761D01*
X99899819Y-123206189D02*
X98899819Y-123206189D01*
X98947438Y-122206190D02*
X98899819Y-122301428D01*
X98899819Y-122301428D02*
X98899819Y-122444285D01*
X98899819Y-122444285D02*
X98947438Y-122587142D01*
X98947438Y-122587142D02*
X99042676Y-122682380D01*
X99042676Y-122682380D02*
X99137914Y-122729999D01*
X99137914Y-122729999D02*
X99328390Y-122777618D01*
X99328390Y-122777618D02*
X99471247Y-122777618D01*
X99471247Y-122777618D02*
X99661723Y-122729999D01*
X99661723Y-122729999D02*
X99756961Y-122682380D01*
X99756961Y-122682380D02*
X99852200Y-122587142D01*
X99852200Y-122587142D02*
X99899819Y-122444285D01*
X99899819Y-122444285D02*
X99899819Y-122349047D01*
X99899819Y-122349047D02*
X99852200Y-122206190D01*
X99852200Y-122206190D02*
X99804580Y-122158571D01*
X99804580Y-122158571D02*
X99471247Y-122158571D01*
X99471247Y-122158571D02*
X99471247Y-122349047D01*
X99899819Y-121206190D02*
X99899819Y-121777618D01*
X99899819Y-121491904D02*
X98899819Y-121491904D01*
X98899819Y-121491904D02*
X99042676Y-121587142D01*
X99042676Y-121587142D02*
X99137914Y-121682380D01*
X99137914Y-121682380D02*
X99185533Y-121777618D01*
X164679285Y-131399819D02*
X164679285Y-132114104D01*
X164679285Y-132114104D02*
X164631666Y-132256961D01*
X164631666Y-132256961D02*
X164536428Y-132352200D01*
X164536428Y-132352200D02*
X164393571Y-132399819D01*
X164393571Y-132399819D02*
X164298333Y-132399819D01*
X164917381Y-132495057D02*
X165679285Y-132495057D01*
X166393571Y-132399819D02*
X165917381Y-132399819D01*
X165917381Y-132399819D02*
X165917381Y-131399819D01*
X166726905Y-131876009D02*
X167060238Y-131876009D01*
X167203095Y-132399819D02*
X166726905Y-132399819D01*
X166726905Y-132399819D02*
X166726905Y-131399819D01*
X166726905Y-131399819D02*
X167203095Y-131399819D01*
X167631667Y-132399819D02*
X167631667Y-131399819D01*
X167631667Y-131399819D02*
X167869762Y-131399819D01*
X167869762Y-131399819D02*
X168012619Y-131447438D01*
X168012619Y-131447438D02*
X168107857Y-131542676D01*
X168107857Y-131542676D02*
X168155476Y-131637914D01*
X168155476Y-131637914D02*
X168203095Y-131828390D01*
X168203095Y-131828390D02*
X168203095Y-131971247D01*
X168203095Y-131971247D02*
X168155476Y-132161723D01*
X168155476Y-132161723D02*
X168107857Y-132256961D01*
X168107857Y-132256961D02*
X168012619Y-132352200D01*
X168012619Y-132352200D02*
X167869762Y-132399819D01*
X167869762Y-132399819D02*
X167631667Y-132399819D01*
X168584048Y-131495057D02*
X168631667Y-131447438D01*
X168631667Y-131447438D02*
X168726905Y-131399819D01*
X168726905Y-131399819D02*
X168965000Y-131399819D01*
X168965000Y-131399819D02*
X169060238Y-131447438D01*
X169060238Y-131447438D02*
X169107857Y-131495057D01*
X169107857Y-131495057D02*
X169155476Y-131590295D01*
X169155476Y-131590295D02*
X169155476Y-131685533D01*
X169155476Y-131685533D02*
X169107857Y-131828390D01*
X169107857Y-131828390D02*
X168536429Y-132399819D01*
X168536429Y-132399819D02*
X169155476Y-132399819D01*
X160437676Y-82162380D02*
X161151961Y-82162380D01*
X161151961Y-82162380D02*
X161294818Y-82209999D01*
X161294818Y-82209999D02*
X161390057Y-82305237D01*
X161390057Y-82305237D02*
X161437676Y-82448094D01*
X161437676Y-82448094D02*
X161437676Y-82543332D01*
X161532914Y-81924285D02*
X161532914Y-81162380D01*
X160485295Y-80400475D02*
X160437676Y-80495713D01*
X160437676Y-80495713D02*
X160437676Y-80638570D01*
X160437676Y-80638570D02*
X160485295Y-80781427D01*
X160485295Y-80781427D02*
X160580533Y-80876665D01*
X160580533Y-80876665D02*
X160675771Y-80924284D01*
X160675771Y-80924284D02*
X160866247Y-80971903D01*
X160866247Y-80971903D02*
X161009104Y-80971903D01*
X161009104Y-80971903D02*
X161199580Y-80924284D01*
X161199580Y-80924284D02*
X161294818Y-80876665D01*
X161294818Y-80876665D02*
X161390057Y-80781427D01*
X161390057Y-80781427D02*
X161437676Y-80638570D01*
X161437676Y-80638570D02*
X161437676Y-80543332D01*
X161437676Y-80543332D02*
X161390057Y-80400475D01*
X161390057Y-80400475D02*
X161342437Y-80352856D01*
X161342437Y-80352856D02*
X161009104Y-80352856D01*
X161009104Y-80352856D02*
X161009104Y-80543332D01*
X161437676Y-79924284D02*
X160437676Y-79924284D01*
X160437676Y-79924284D02*
X160437676Y-79543332D01*
X160437676Y-79543332D02*
X160485295Y-79448094D01*
X160485295Y-79448094D02*
X160532914Y-79400475D01*
X160532914Y-79400475D02*
X160628152Y-79352856D01*
X160628152Y-79352856D02*
X160771009Y-79352856D01*
X160771009Y-79352856D02*
X160866247Y-79400475D01*
X160866247Y-79400475D02*
X160913866Y-79448094D01*
X160913866Y-79448094D02*
X160961485Y-79543332D01*
X160961485Y-79543332D02*
X160961485Y-79924284D01*
X161437676Y-78924284D02*
X160437676Y-78924284D01*
X160437676Y-78257618D02*
X160437676Y-78067142D01*
X160437676Y-78067142D02*
X160485295Y-77971904D01*
X160485295Y-77971904D02*
X160580533Y-77876666D01*
X160580533Y-77876666D02*
X160771009Y-77829047D01*
X160771009Y-77829047D02*
X161104342Y-77829047D01*
X161104342Y-77829047D02*
X161294818Y-77876666D01*
X161294818Y-77876666D02*
X161390057Y-77971904D01*
X161390057Y-77971904D02*
X161437676Y-78067142D01*
X161437676Y-78067142D02*
X161437676Y-78257618D01*
X161437676Y-78257618D02*
X161390057Y-78352856D01*
X161390057Y-78352856D02*
X161294818Y-78448094D01*
X161294818Y-78448094D02*
X161104342Y-78495713D01*
X161104342Y-78495713D02*
X160771009Y-78495713D01*
X160771009Y-78495713D02*
X160580533Y-78448094D01*
X160580533Y-78448094D02*
X160485295Y-78352856D01*
X160485295Y-78352856D02*
X160437676Y-78257618D01*
X161437676Y-76876666D02*
X161437676Y-77448094D01*
X161437676Y-77162380D02*
X160437676Y-77162380D01*
X160437676Y-77162380D02*
X160580533Y-77257618D01*
X160580533Y-77257618D02*
X160675771Y-77352856D01*
X160675771Y-77352856D02*
X160723390Y-77448094D01*
X160771009Y-76019523D02*
X161437676Y-76019523D01*
X160390057Y-76257618D02*
X161104342Y-76495713D01*
X161104342Y-76495713D02*
X161104342Y-75876666D01*
X102448809Y-121679819D02*
X102115476Y-121203628D01*
X101877381Y-121679819D02*
X101877381Y-120679819D01*
X101877381Y-120679819D02*
X102258333Y-120679819D01*
X102258333Y-120679819D02*
X102353571Y-120727438D01*
X102353571Y-120727438D02*
X102401190Y-120775057D01*
X102401190Y-120775057D02*
X102448809Y-120870295D01*
X102448809Y-120870295D02*
X102448809Y-121013152D01*
X102448809Y-121013152D02*
X102401190Y-121108390D01*
X102401190Y-121108390D02*
X102353571Y-121156009D01*
X102353571Y-121156009D02*
X102258333Y-121203628D01*
X102258333Y-121203628D02*
X101877381Y-121203628D01*
X102639286Y-121775057D02*
X103401190Y-121775057D01*
X103639286Y-121679819D02*
X103639286Y-120679819D01*
X103639286Y-120679819D02*
X103972619Y-121394104D01*
X103972619Y-121394104D02*
X104305952Y-120679819D01*
X104305952Y-120679819D02*
X104305952Y-121679819D01*
X104972619Y-120679819D02*
X105163095Y-120679819D01*
X105163095Y-120679819D02*
X105258333Y-120727438D01*
X105258333Y-120727438D02*
X105353571Y-120822676D01*
X105353571Y-120822676D02*
X105401190Y-121013152D01*
X105401190Y-121013152D02*
X105401190Y-121346485D01*
X105401190Y-121346485D02*
X105353571Y-121536961D01*
X105353571Y-121536961D02*
X105258333Y-121632200D01*
X105258333Y-121632200D02*
X105163095Y-121679819D01*
X105163095Y-121679819D02*
X104972619Y-121679819D01*
X104972619Y-121679819D02*
X104877381Y-121632200D01*
X104877381Y-121632200D02*
X104782143Y-121536961D01*
X104782143Y-121536961D02*
X104734524Y-121346485D01*
X104734524Y-121346485D02*
X104734524Y-121013152D01*
X104734524Y-121013152D02*
X104782143Y-120822676D01*
X104782143Y-120822676D02*
X104877381Y-120727438D01*
X104877381Y-120727438D02*
X104972619Y-120679819D01*
X105829762Y-121679819D02*
X105829762Y-120679819D01*
X105829762Y-120679819D02*
X106067857Y-120679819D01*
X106067857Y-120679819D02*
X106210714Y-120727438D01*
X106210714Y-120727438D02*
X106305952Y-120822676D01*
X106305952Y-120822676D02*
X106353571Y-120917914D01*
X106353571Y-120917914D02*
X106401190Y-121108390D01*
X106401190Y-121108390D02*
X106401190Y-121251247D01*
X106401190Y-121251247D02*
X106353571Y-121441723D01*
X106353571Y-121441723D02*
X106305952Y-121536961D01*
X106305952Y-121536961D02*
X106210714Y-121632200D01*
X106210714Y-121632200D02*
X106067857Y-121679819D01*
X106067857Y-121679819D02*
X105829762Y-121679819D01*
X106829762Y-121156009D02*
X107163095Y-121156009D01*
X107305952Y-121679819D02*
X106829762Y-121679819D01*
X106829762Y-121679819D02*
X106829762Y-120679819D01*
X106829762Y-120679819D02*
X107305952Y-120679819D01*
X107496429Y-121775057D02*
X108258333Y-121775057D01*
X108496429Y-121679819D02*
X108496429Y-120679819D01*
X108496429Y-120679819D02*
X108877381Y-120679819D01*
X108877381Y-120679819D02*
X108972619Y-120727438D01*
X108972619Y-120727438D02*
X109020238Y-120775057D01*
X109020238Y-120775057D02*
X109067857Y-120870295D01*
X109067857Y-120870295D02*
X109067857Y-121013152D01*
X109067857Y-121013152D02*
X109020238Y-121108390D01*
X109020238Y-121108390D02*
X108972619Y-121156009D01*
X108972619Y-121156009D02*
X108877381Y-121203628D01*
X108877381Y-121203628D02*
X108496429Y-121203628D01*
X109496429Y-121679819D02*
X109496429Y-120679819D01*
X109496429Y-120679819D02*
X109734524Y-120679819D01*
X109734524Y-120679819D02*
X109877381Y-120727438D01*
X109877381Y-120727438D02*
X109972619Y-120822676D01*
X109972619Y-120822676D02*
X110020238Y-120917914D01*
X110020238Y-120917914D02*
X110067857Y-121108390D01*
X110067857Y-121108390D02*
X110067857Y-121251247D01*
X110067857Y-121251247D02*
X110020238Y-121441723D01*
X110020238Y-121441723D02*
X109972619Y-121536961D01*
X109972619Y-121536961D02*
X109877381Y-121632200D01*
X109877381Y-121632200D02*
X109734524Y-121679819D01*
X109734524Y-121679819D02*
X109496429Y-121679819D01*
X111020238Y-121679819D02*
X110448810Y-121679819D01*
X110734524Y-121679819D02*
X110734524Y-120679819D01*
X110734524Y-120679819D02*
X110639286Y-120822676D01*
X110639286Y-120822676D02*
X110544048Y-120917914D01*
X110544048Y-120917914D02*
X110448810Y-120965533D01*
X109329761Y-119979819D02*
X108758333Y-119979819D01*
X109044047Y-119979819D02*
X109044047Y-118979819D01*
X109044047Y-118979819D02*
X108948809Y-119122676D01*
X108948809Y-119122676D02*
X108853571Y-119217914D01*
X108853571Y-119217914D02*
X108758333Y-119265533D01*
X109948809Y-118979819D02*
X110044047Y-118979819D01*
X110044047Y-118979819D02*
X110139285Y-119027438D01*
X110139285Y-119027438D02*
X110186904Y-119075057D01*
X110186904Y-119075057D02*
X110234523Y-119170295D01*
X110234523Y-119170295D02*
X110282142Y-119360771D01*
X110282142Y-119360771D02*
X110282142Y-119598866D01*
X110282142Y-119598866D02*
X110234523Y-119789342D01*
X110234523Y-119789342D02*
X110186904Y-119884580D01*
X110186904Y-119884580D02*
X110139285Y-119932200D01*
X110139285Y-119932200D02*
X110044047Y-119979819D01*
X110044047Y-119979819D02*
X109948809Y-119979819D01*
X109948809Y-119979819D02*
X109853571Y-119932200D01*
X109853571Y-119932200D02*
X109805952Y-119884580D01*
X109805952Y-119884580D02*
X109758333Y-119789342D01*
X109758333Y-119789342D02*
X109710714Y-119598866D01*
X109710714Y-119598866D02*
X109710714Y-119360771D01*
X109710714Y-119360771D02*
X109758333Y-119170295D01*
X109758333Y-119170295D02*
X109805952Y-119075057D01*
X109805952Y-119075057D02*
X109853571Y-119027438D01*
X109853571Y-119027438D02*
X109948809Y-118979819D01*
X110710714Y-119979819D02*
X110710714Y-118979819D01*
X110805952Y-119598866D02*
X111091666Y-119979819D01*
X111091666Y-119313152D02*
X110710714Y-119694104D01*
X127582619Y-73909819D02*
X127582619Y-74624104D01*
X127582619Y-74624104D02*
X127535000Y-74766961D01*
X127535000Y-74766961D02*
X127439762Y-74862200D01*
X127439762Y-74862200D02*
X127296905Y-74909819D01*
X127296905Y-74909819D02*
X127201667Y-74909819D01*
X127820715Y-75005057D02*
X128582619Y-75005057D01*
X129344524Y-73957438D02*
X129249286Y-73909819D01*
X129249286Y-73909819D02*
X129106429Y-73909819D01*
X129106429Y-73909819D02*
X128963572Y-73957438D01*
X128963572Y-73957438D02*
X128868334Y-74052676D01*
X128868334Y-74052676D02*
X128820715Y-74147914D01*
X128820715Y-74147914D02*
X128773096Y-74338390D01*
X128773096Y-74338390D02*
X128773096Y-74481247D01*
X128773096Y-74481247D02*
X128820715Y-74671723D01*
X128820715Y-74671723D02*
X128868334Y-74766961D01*
X128868334Y-74766961D02*
X128963572Y-74862200D01*
X128963572Y-74862200D02*
X129106429Y-74909819D01*
X129106429Y-74909819D02*
X129201667Y-74909819D01*
X129201667Y-74909819D02*
X129344524Y-74862200D01*
X129344524Y-74862200D02*
X129392143Y-74814580D01*
X129392143Y-74814580D02*
X129392143Y-74481247D01*
X129392143Y-74481247D02*
X129201667Y-74481247D01*
X129820715Y-74909819D02*
X129820715Y-73909819D01*
X129820715Y-73909819D02*
X130201667Y-73909819D01*
X130201667Y-73909819D02*
X130296905Y-73957438D01*
X130296905Y-73957438D02*
X130344524Y-74005057D01*
X130344524Y-74005057D02*
X130392143Y-74100295D01*
X130392143Y-74100295D02*
X130392143Y-74243152D01*
X130392143Y-74243152D02*
X130344524Y-74338390D01*
X130344524Y-74338390D02*
X130296905Y-74386009D01*
X130296905Y-74386009D02*
X130201667Y-74433628D01*
X130201667Y-74433628D02*
X129820715Y-74433628D01*
X130820715Y-74909819D02*
X130820715Y-73909819D01*
X131487381Y-73909819D02*
X131677857Y-73909819D01*
X131677857Y-73909819D02*
X131773095Y-73957438D01*
X131773095Y-73957438D02*
X131868333Y-74052676D01*
X131868333Y-74052676D02*
X131915952Y-74243152D01*
X131915952Y-74243152D02*
X131915952Y-74576485D01*
X131915952Y-74576485D02*
X131868333Y-74766961D01*
X131868333Y-74766961D02*
X131773095Y-74862200D01*
X131773095Y-74862200D02*
X131677857Y-74909819D01*
X131677857Y-74909819D02*
X131487381Y-74909819D01*
X131487381Y-74909819D02*
X131392143Y-74862200D01*
X131392143Y-74862200D02*
X131296905Y-74766961D01*
X131296905Y-74766961D02*
X131249286Y-74576485D01*
X131249286Y-74576485D02*
X131249286Y-74243152D01*
X131249286Y-74243152D02*
X131296905Y-74052676D01*
X131296905Y-74052676D02*
X131392143Y-73957438D01*
X131392143Y-73957438D02*
X131487381Y-73909819D01*
X132868333Y-74909819D02*
X132296905Y-74909819D01*
X132582619Y-74909819D02*
X132582619Y-73909819D01*
X132582619Y-73909819D02*
X132487381Y-74052676D01*
X132487381Y-74052676D02*
X132392143Y-74147914D01*
X132392143Y-74147914D02*
X132296905Y-74195533D01*
X133725476Y-73909819D02*
X133535000Y-73909819D01*
X133535000Y-73909819D02*
X133439762Y-73957438D01*
X133439762Y-73957438D02*
X133392143Y-74005057D01*
X133392143Y-74005057D02*
X133296905Y-74147914D01*
X133296905Y-74147914D02*
X133249286Y-74338390D01*
X133249286Y-74338390D02*
X133249286Y-74719342D01*
X133249286Y-74719342D02*
X133296905Y-74814580D01*
X133296905Y-74814580D02*
X133344524Y-74862200D01*
X133344524Y-74862200D02*
X133439762Y-74909819D01*
X133439762Y-74909819D02*
X133630238Y-74909819D01*
X133630238Y-74909819D02*
X133725476Y-74862200D01*
X133725476Y-74862200D02*
X133773095Y-74814580D01*
X133773095Y-74814580D02*
X133820714Y-74719342D01*
X133820714Y-74719342D02*
X133820714Y-74481247D01*
X133820714Y-74481247D02*
X133773095Y-74386009D01*
X133773095Y-74386009D02*
X133725476Y-74338390D01*
X133725476Y-74338390D02*
X133630238Y-74290771D01*
X133630238Y-74290771D02*
X133439762Y-74290771D01*
X133439762Y-74290771D02*
X133344524Y-74338390D01*
X133344524Y-74338390D02*
X133296905Y-74386009D01*
X133296905Y-74386009D02*
X133249286Y-74481247D01*
X96114580Y-63296666D02*
X96162200Y-63344285D01*
X96162200Y-63344285D02*
X96209819Y-63487142D01*
X96209819Y-63487142D02*
X96209819Y-63582380D01*
X96209819Y-63582380D02*
X96162200Y-63725237D01*
X96162200Y-63725237D02*
X96066961Y-63820475D01*
X96066961Y-63820475D02*
X95971723Y-63868094D01*
X95971723Y-63868094D02*
X95781247Y-63915713D01*
X95781247Y-63915713D02*
X95638390Y-63915713D01*
X95638390Y-63915713D02*
X95447914Y-63868094D01*
X95447914Y-63868094D02*
X95352676Y-63820475D01*
X95352676Y-63820475D02*
X95257438Y-63725237D01*
X95257438Y-63725237D02*
X95209819Y-63582380D01*
X95209819Y-63582380D02*
X95209819Y-63487142D01*
X95209819Y-63487142D02*
X95257438Y-63344285D01*
X95257438Y-63344285D02*
X95305057Y-63296666D01*
X95209819Y-62963332D02*
X95209819Y-62344285D01*
X95209819Y-62344285D02*
X95590771Y-62677618D01*
X95590771Y-62677618D02*
X95590771Y-62534761D01*
X95590771Y-62534761D02*
X95638390Y-62439523D01*
X95638390Y-62439523D02*
X95686009Y-62391904D01*
X95686009Y-62391904D02*
X95781247Y-62344285D01*
X95781247Y-62344285D02*
X96019342Y-62344285D01*
X96019342Y-62344285D02*
X96114580Y-62391904D01*
X96114580Y-62391904D02*
X96162200Y-62439523D01*
X96162200Y-62439523D02*
X96209819Y-62534761D01*
X96209819Y-62534761D02*
X96209819Y-62820475D01*
X96209819Y-62820475D02*
X96162200Y-62915713D01*
X96162200Y-62915713D02*
X96114580Y-62963332D01*
D12*
%TO.C,R5*%
X141670000Y-122147936D02*
X141670000Y-123602064D01*
X143490000Y-122147936D02*
X143490000Y-123602064D01*
%TO.C,J_GPIO13*%
X154165000Y-66400000D02*
X154165000Y-69550000D01*
X154165000Y-69550000D02*
X156315000Y-69550000D01*
X163135000Y-69550000D02*
X163135000Y-73240000D01*
X164265000Y-62330000D02*
X155185000Y-62330000D01*
X165285000Y-66400000D02*
X165285000Y-69550000D01*
X165285000Y-69550000D02*
X163135000Y-69550000D01*
%TO.C,R8*%
X131740000Y-122147936D02*
X131740000Y-123602064D01*
X133560000Y-122147936D02*
X133560000Y-123602064D01*
%TO.C,J1*%
X103780000Y-78080000D02*
X103780000Y-64070000D01*
X105260000Y-62010000D02*
X105000000Y-62010000D01*
X105460000Y-61810000D02*
X105260000Y-62010000D01*
X105460000Y-61810000D02*
X107770000Y-61810000D01*
X105700000Y-78080000D02*
X103780000Y-78080000D01*
X107770000Y-61810000D02*
X108280000Y-62160000D01*
X114650000Y-62160000D02*
X108280000Y-62160000D01*
X114650000Y-62160000D02*
X114650000Y-62010000D01*
X114860000Y-61810000D02*
X114650000Y-62010000D01*
X116720000Y-61810000D02*
X114860000Y-61810000D01*
X116720000Y-61810000D02*
X116920000Y-62010000D01*
X117300000Y-78080000D02*
X117750000Y-78080000D01*
X117750000Y-66770000D02*
X117750000Y-64970000D01*
X117750000Y-72770000D02*
X117750000Y-68070000D01*
X117750000Y-78080000D02*
X117750000Y-74470000D01*
%TO.C,J_TP_PWR1*%
X88175000Y-77255000D02*
X89555000Y-77255000D01*
X88175000Y-78635000D02*
X88175000Y-77255000D01*
X88175000Y-79905000D02*
X88175000Y-85095000D01*
X88175000Y-79905000D02*
X90935000Y-79905000D01*
X88175000Y-85095000D02*
X90935000Y-85095000D01*
X90935000Y-79905000D02*
X90935000Y-85095000D01*
%TO.C,GPIO1*%
X103535000Y-115685000D02*
X103535000Y-114305000D01*
X104915000Y-115685000D02*
X103535000Y-115685000D01*
X106185000Y-112925000D02*
X136775000Y-112925000D01*
X106185000Y-115685000D02*
X106185000Y-112925000D01*
X106185000Y-115685000D02*
X136775000Y-115685000D01*
X136775000Y-115685000D02*
X136775000Y-112925000D01*
%TO.C,J_LED1*%
X165872857Y-118480000D02*
X165872857Y-120630000D01*
X165872857Y-127450000D02*
X162182857Y-127450000D01*
X165872857Y-129600000D02*
X165872857Y-127450000D01*
X169022857Y-118480000D02*
X165872857Y-118480000D01*
X169022857Y-129600000D02*
X165872857Y-129600000D01*
X173092857Y-128580000D02*
X173092857Y-119500000D01*
%TO.C,R7*%
X135050000Y-122147936D02*
X135050000Y-123602064D01*
X136870000Y-122147936D02*
X136870000Y-123602064D01*
%TO.C,J_GPIO15*%
X139570000Y-66385000D02*
X139570000Y-69535000D01*
X139570000Y-69535000D02*
X141720000Y-69535000D01*
X148540000Y-69535000D02*
X148540000Y-73225000D01*
X149670000Y-62315000D02*
X140590000Y-62315000D01*
X150690000Y-66385000D02*
X150690000Y-69535000D01*
X150690000Y-69535000D02*
X148540000Y-69535000D01*
%TO.C,J_LED7*%
X89055000Y-136835000D02*
X91205000Y-136835000D01*
X89055000Y-139985000D02*
X89055000Y-136835000D01*
X90075000Y-144055000D02*
X99155000Y-144055000D01*
X91205000Y-136835000D02*
X91205000Y-133145000D01*
X100175000Y-136835000D02*
X98025000Y-136835000D01*
X100175000Y-139985000D02*
X100175000Y-136835000D01*
%TO.C,J_LED5*%
X117909286Y-136835000D02*
X120059286Y-136835000D01*
X117909286Y-139985000D02*
X117909286Y-136835000D01*
X118929286Y-144055000D02*
X128009286Y-144055000D01*
X120059286Y-136835000D02*
X120059286Y-133145000D01*
X129029286Y-136835000D02*
X126879286Y-136835000D01*
X129029286Y-139985000D02*
X129029286Y-136835000D01*
%TO.C,R4*%
X144980000Y-122147936D02*
X144980000Y-123602064D01*
X146800000Y-122147936D02*
X146800000Y-123602064D01*
%TO.C,J_PWR1*%
X88215000Y-64485000D02*
X88215000Y-73565000D01*
X92285000Y-63465000D02*
X95435000Y-63465000D01*
X92285000Y-74585000D02*
X95435000Y-74585000D01*
X95435000Y-63465000D02*
X95435000Y-65615000D01*
X95435000Y-65615000D02*
X99125000Y-65615000D01*
X95435000Y-74585000D02*
X95435000Y-72435000D01*
%TO.C,J_LED3*%
X146763571Y-136835000D02*
X148913571Y-136835000D01*
X146763571Y-139985000D02*
X146763571Y-136835000D01*
X147783571Y-144055000D02*
X156863571Y-144055000D01*
X148913571Y-136835000D02*
X148913571Y-133145000D01*
X157883571Y-136835000D02*
X155733571Y-136835000D01*
X157883571Y-139985000D02*
X157883571Y-136835000D01*
%TO.C,R_SYNC_SER1*%
X106697936Y-126540000D02*
X107152064Y-126540000D01*
X106697936Y-128010000D02*
X107152064Y-128010000D01*
%TO.C,C2*%
X92075354Y-77581969D02*
X93075354Y-77581969D01*
X92575354Y-77081969D02*
X92575354Y-78081969D01*
X97555000Y-75376969D02*
X97555000Y-85536969D01*
X97595000Y-75376969D02*
X97595000Y-85536969D01*
X97635000Y-75377969D02*
X97635000Y-85535969D01*
X97675000Y-75377969D02*
X97675000Y-85535969D01*
X97715000Y-75379969D02*
X97715000Y-85533969D01*
X97755000Y-75380969D02*
X97755000Y-85532969D01*
X97795000Y-75382969D02*
X97795000Y-85530969D01*
X97835000Y-75384969D02*
X97835000Y-85528969D01*
X97875000Y-75386969D02*
X97875000Y-85526969D01*
X97915000Y-75389969D02*
X97915000Y-85523969D01*
X97955000Y-75392969D02*
X97955000Y-85520969D01*
X97995000Y-75395969D02*
X97995000Y-85517969D01*
X98035000Y-75399969D02*
X98035000Y-85513969D01*
X98075000Y-75402969D02*
X98075000Y-85510969D01*
X98115000Y-75407969D02*
X98115000Y-85505969D01*
X98155000Y-75411969D02*
X98155000Y-85501969D01*
X98195000Y-75416969D02*
X98195000Y-85496969D01*
X98235000Y-75421969D02*
X98235000Y-85491969D01*
X98275000Y-75427969D02*
X98275000Y-85485969D01*
X98315000Y-75433969D02*
X98315000Y-85479969D01*
X98355000Y-75439969D02*
X98355000Y-85473969D01*
X98395000Y-75445969D02*
X98395000Y-85467969D01*
X98435000Y-75452969D02*
X98435000Y-85460969D01*
X98475000Y-75459969D02*
X98475000Y-85453969D01*
X98515000Y-75467969D02*
X98515000Y-85445969D01*
X98555000Y-75475969D02*
X98555000Y-85437969D01*
X98595000Y-75483969D02*
X98595000Y-85429969D01*
X98635000Y-75491969D02*
X98635000Y-85421969D01*
X98675000Y-75500969D02*
X98675000Y-85412969D01*
X98715000Y-75509969D02*
X98715000Y-85403969D01*
X98755000Y-75519969D02*
X98755000Y-85393969D01*
X98795000Y-75528969D02*
X98795000Y-85384969D01*
X98835000Y-75539969D02*
X98835000Y-79216969D01*
X98835000Y-81696969D02*
X98835000Y-85373969D01*
X98875000Y-75549969D02*
X98875000Y-79216969D01*
X98875000Y-81696969D02*
X98875000Y-85363969D01*
X98915000Y-75560969D02*
X98915000Y-79216969D01*
X98915000Y-81696969D02*
X98915000Y-85352969D01*
X98955000Y-75571969D02*
X98955000Y-79216969D01*
X98955000Y-81696969D02*
X98955000Y-85341969D01*
X98995000Y-75583969D02*
X98995000Y-79216969D01*
X98995000Y-81696969D02*
X98995000Y-85329969D01*
X99035000Y-75595969D02*
X99035000Y-79216969D01*
X99035000Y-81696969D02*
X99035000Y-85317969D01*
X99075000Y-75607969D02*
X99075000Y-79216969D01*
X99075000Y-81696969D02*
X99075000Y-85305969D01*
X99115000Y-75619969D02*
X99115000Y-79216969D01*
X99115000Y-81696969D02*
X99115000Y-85293969D01*
X99155000Y-75632969D02*
X99155000Y-79216969D01*
X99155000Y-81696969D02*
X99155000Y-85280969D01*
X99195000Y-75646969D02*
X99195000Y-79216969D01*
X99195000Y-81696969D02*
X99195000Y-85266969D01*
X99235000Y-75659969D02*
X99235000Y-79216969D01*
X99235000Y-81696969D02*
X99235000Y-85253969D01*
X99275000Y-75674969D02*
X99275000Y-79216969D01*
X99275000Y-81696969D02*
X99275000Y-85238969D01*
X99315000Y-75688969D02*
X99315000Y-79216969D01*
X99315000Y-81696969D02*
X99315000Y-85224969D01*
X99355000Y-75703969D02*
X99355000Y-79216969D01*
X99355000Y-81696969D02*
X99355000Y-85209969D01*
X99395000Y-75718969D02*
X99395000Y-79216969D01*
X99395000Y-81696969D02*
X99395000Y-85194969D01*
X99435000Y-75734969D02*
X99435000Y-79216969D01*
X99435000Y-81696969D02*
X99435000Y-85178969D01*
X99475000Y-75750969D02*
X99475000Y-79216969D01*
X99475000Y-81696969D02*
X99475000Y-85162969D01*
X99515000Y-75766969D02*
X99515000Y-79216969D01*
X99515000Y-81696969D02*
X99515000Y-85146969D01*
X99555000Y-75783969D02*
X99555000Y-79216969D01*
X99555000Y-81696969D02*
X99555000Y-85129969D01*
X99595000Y-75800969D02*
X99595000Y-79216969D01*
X99595000Y-81696969D02*
X99595000Y-85112969D01*
X99635000Y-75818969D02*
X99635000Y-79216969D01*
X99635000Y-81696969D02*
X99635000Y-85094969D01*
X99675000Y-75836969D02*
X99675000Y-79216969D01*
X99675000Y-81696969D02*
X99675000Y-85076969D01*
X99715000Y-75854969D02*
X99715000Y-79216969D01*
X99715000Y-81696969D02*
X99715000Y-85058969D01*
X99755000Y-75873969D02*
X99755000Y-79216969D01*
X99755000Y-81696969D02*
X99755000Y-85039969D01*
X99795000Y-75892969D02*
X99795000Y-79216969D01*
X99795000Y-81696969D02*
X99795000Y-85020969D01*
X99835000Y-75912969D02*
X99835000Y-79216969D01*
X99835000Y-81696969D02*
X99835000Y-85000969D01*
X99875000Y-75932969D02*
X99875000Y-79216969D01*
X99875000Y-81696969D02*
X99875000Y-84980969D01*
X99915000Y-75952969D02*
X99915000Y-79216969D01*
X99915000Y-81696969D02*
X99915000Y-84960969D01*
X99955000Y-75973969D02*
X99955000Y-79216969D01*
X99955000Y-81696969D02*
X99955000Y-84939969D01*
X99995000Y-75995969D02*
X99995000Y-79216969D01*
X99995000Y-81696969D02*
X99995000Y-84917969D01*
X100035000Y-76017969D02*
X100035000Y-79216969D01*
X100035000Y-81696969D02*
X100035000Y-84895969D01*
X100075000Y-76039969D02*
X100075000Y-79216969D01*
X100075000Y-81696969D02*
X100075000Y-84873969D01*
X100115000Y-76062969D02*
X100115000Y-79216969D01*
X100115000Y-81696969D02*
X100115000Y-84850969D01*
X100155000Y-76085969D02*
X100155000Y-79216969D01*
X100155000Y-81696969D02*
X100155000Y-84827969D01*
X100195000Y-76109969D02*
X100195000Y-79216969D01*
X100195000Y-81696969D02*
X100195000Y-84803969D01*
X100235000Y-76133969D02*
X100235000Y-79216969D01*
X100235000Y-81696969D02*
X100235000Y-84779969D01*
X100275000Y-76158969D02*
X100275000Y-79216969D01*
X100275000Y-81696969D02*
X100275000Y-84754969D01*
X100315000Y-76184969D02*
X100315000Y-79216969D01*
X100315000Y-81696969D02*
X100315000Y-84728969D01*
X100355000Y-76209969D02*
X100355000Y-79216969D01*
X100355000Y-81696969D02*
X100355000Y-84703969D01*
X100395000Y-76236969D02*
X100395000Y-79216969D01*
X100395000Y-81696969D02*
X100395000Y-84676969D01*
X100435000Y-76263969D02*
X100435000Y-79216969D01*
X100435000Y-81696969D02*
X100435000Y-84649969D01*
X100475000Y-76290969D02*
X100475000Y-79216969D01*
X100475000Y-81696969D02*
X100475000Y-84622969D01*
X100515000Y-76318969D02*
X100515000Y-79216969D01*
X100515000Y-81696969D02*
X100515000Y-84594969D01*
X100555000Y-76347969D02*
X100555000Y-79216969D01*
X100555000Y-81696969D02*
X100555000Y-84565969D01*
X100595000Y-76376969D02*
X100595000Y-79216969D01*
X100595000Y-81696969D02*
X100595000Y-84536969D01*
X100635000Y-76406969D02*
X100635000Y-79216969D01*
X100635000Y-81696969D02*
X100635000Y-84506969D01*
X100675000Y-76436969D02*
X100675000Y-79216969D01*
X100675000Y-81696969D02*
X100675000Y-84476969D01*
X100715000Y-76468969D02*
X100715000Y-79216969D01*
X100715000Y-81696969D02*
X100715000Y-84444969D01*
X100755000Y-76499969D02*
X100755000Y-79216969D01*
X100755000Y-81696969D02*
X100755000Y-84413969D01*
X100795000Y-76532969D02*
X100795000Y-79216969D01*
X100795000Y-81696969D02*
X100795000Y-84380969D01*
X100835000Y-76565969D02*
X100835000Y-79216969D01*
X100835000Y-81696969D02*
X100835000Y-84347969D01*
X100875000Y-76598969D02*
X100875000Y-79216969D01*
X100875000Y-81696969D02*
X100875000Y-84314969D01*
X100915000Y-76633969D02*
X100915000Y-79216969D01*
X100915000Y-81696969D02*
X100915000Y-84279969D01*
X100955000Y-76668969D02*
X100955000Y-79216969D01*
X100955000Y-81696969D02*
X100955000Y-84244969D01*
X100995000Y-76704969D02*
X100995000Y-79216969D01*
X100995000Y-81696969D02*
X100995000Y-84208969D01*
X101035000Y-76740969D02*
X101035000Y-79216969D01*
X101035000Y-81696969D02*
X101035000Y-84172969D01*
X101075000Y-76778969D02*
X101075000Y-79216969D01*
X101075000Y-81696969D02*
X101075000Y-84134969D01*
X101115000Y-76816969D02*
X101115000Y-79216969D01*
X101115000Y-81696969D02*
X101115000Y-84096969D01*
X101155000Y-76855969D02*
X101155000Y-79216969D01*
X101155000Y-81696969D02*
X101155000Y-84057969D01*
X101195000Y-76895969D02*
X101195000Y-79216969D01*
X101195000Y-81696969D02*
X101195000Y-84017969D01*
X101235000Y-76936969D02*
X101235000Y-79216969D01*
X101235000Y-81696969D02*
X101235000Y-83976969D01*
X101275000Y-76978969D02*
X101275000Y-79216969D01*
X101275000Y-81696969D02*
X101275000Y-83934969D01*
X101315000Y-77021969D02*
X101315000Y-83891969D01*
X101355000Y-77065969D02*
X101355000Y-83847969D01*
X101395000Y-77109969D02*
X101395000Y-83803969D01*
X101435000Y-77155969D02*
X101435000Y-83757969D01*
X101475000Y-77202969D02*
X101475000Y-83710969D01*
X101515000Y-77251969D02*
X101515000Y-83661969D01*
X101555000Y-77300969D02*
X101555000Y-83612969D01*
X101595000Y-77351969D02*
X101595000Y-83561969D01*
X101635000Y-77403969D02*
X101635000Y-83509969D01*
X101675000Y-77456969D02*
X101675000Y-83456969D01*
X101715000Y-77511969D02*
X101715000Y-83401969D01*
X101755000Y-77568969D02*
X101755000Y-83344969D01*
X101795000Y-77626969D02*
X101795000Y-83286969D01*
X101835000Y-77686969D02*
X101835000Y-83226969D01*
X101875000Y-77748969D02*
X101875000Y-83164969D01*
X101915000Y-77812969D02*
X101915000Y-83100969D01*
X101955000Y-77878969D02*
X101955000Y-83034969D01*
X101995000Y-77946969D02*
X101995000Y-82966969D01*
X102035000Y-78017969D02*
X102035000Y-82895969D01*
X102075000Y-78091969D02*
X102075000Y-82821969D01*
X102115000Y-78168969D02*
X102115000Y-82744969D01*
X102155000Y-78248969D02*
X102155000Y-82664969D01*
X102195000Y-78332969D02*
X102195000Y-82580969D01*
X102235000Y-78419969D02*
X102235000Y-82493969D01*
X102275000Y-78512969D02*
X102275000Y-82400969D01*
X102315000Y-78610969D02*
X102315000Y-82302969D01*
X102355000Y-78714969D02*
X102355000Y-82198969D01*
X102395000Y-78826969D02*
X102395000Y-82086969D01*
X102435000Y-78947969D02*
X102435000Y-81965969D01*
X102475000Y-79079969D02*
X102475000Y-81833969D01*
X102515000Y-79226969D02*
X102515000Y-81686969D01*
X102555000Y-79394969D02*
X102555000Y-81518969D01*
X102595000Y-79594969D02*
X102595000Y-81318969D01*
X102635000Y-79857969D02*
X102635000Y-81055969D01*
X102675000Y-80456969D02*
G75*
G02*
X92435000Y-80456969I-5120000J0D01*
G01*
X92435000Y-80456969D02*
G75*
G02*
X102675000Y-80456969I5120000J0D01*
G01*
%TO.C,J_LED4*%
X132336429Y-136835000D02*
X134486429Y-136835000D01*
X132336429Y-139985000D02*
X132336429Y-136835000D01*
X133356429Y-144055000D02*
X142436429Y-144055000D01*
X134486429Y-136835000D02*
X134486429Y-133145000D01*
X143456429Y-136835000D02*
X141306429Y-136835000D01*
X143456429Y-139985000D02*
X143456429Y-136835000D01*
%TO.C,U1*%
X146055000Y-86045000D02*
X146055000Y-111565000D01*
X146055000Y-111565000D02*
X151355000Y-111565000D01*
X147705000Y-86045000D02*
X146055000Y-86045000D01*
X151355000Y-86045000D02*
X149705000Y-86045000D01*
X151355000Y-111565000D02*
X151355000Y-86045000D01*
X149705000Y-86045000D02*
G75*
G02*
X147705000Y-86045000I-1000000J0D01*
G01*
%TO.C,V2*%
X87742075Y-129502786D02*
X89122075Y-129502786D01*
X87742075Y-130882786D02*
X87742075Y-129502786D01*
X87742075Y-132152786D02*
X87742075Y-132262786D01*
X87742075Y-132152786D02*
X90502075Y-132152786D01*
X87742075Y-132262786D02*
X90502075Y-132262786D01*
X90502075Y-132152786D02*
X90502075Y-132262786D01*
%TO.C,J_PWRA1*%
X105545000Y-83950000D02*
X105545000Y-82570000D01*
X106925000Y-83950000D02*
X105545000Y-83950000D01*
X108195000Y-81190000D02*
X131165000Y-81190000D01*
X108195000Y-83950000D02*
X108195000Y-81190000D01*
X108195000Y-83950000D02*
X131165000Y-83950000D01*
X131165000Y-83950000D02*
X131165000Y-81190000D01*
%TO.C,V5*%
X87745611Y-132289087D02*
X89125611Y-132289087D01*
X87745611Y-133669087D02*
X87745611Y-132289087D01*
X87745611Y-134939087D02*
X87745611Y-135049087D01*
X87745611Y-134939087D02*
X90505611Y-134939087D01*
X87745611Y-135049087D02*
X90505611Y-135049087D01*
X90505611Y-134939087D02*
X90505611Y-135049087D01*
%TO.C,R1*%
X154910000Y-122147936D02*
X154910000Y-123602064D01*
X156730000Y-122147936D02*
X156730000Y-123602064D01*
%TO.C,R6*%
X138360000Y-122147936D02*
X138360000Y-123602064D01*
X140180000Y-122147936D02*
X140180000Y-123602064D01*
%TO.C,J_SYNC_IN1*%
X87415000Y-112715000D02*
X93415000Y-112715000D01*
X87415000Y-113575000D02*
X87415000Y-112715000D01*
X93415000Y-113575000D02*
X87415000Y-113575000D01*
X96175000Y-114415000D02*
X93415000Y-114415000D01*
X96405000Y-115255000D02*
X96175000Y-115255000D01*
X96405000Y-116115000D02*
X96175000Y-116115000D01*
X96487642Y-112715000D02*
X96175000Y-112715000D01*
X96487642Y-113575000D02*
X96175000Y-113575000D01*
X98835000Y-115685000D02*
X98835000Y-116955000D01*
X98835000Y-116955000D02*
X97565000Y-116955000D01*
X93415000Y-116115000D02*
X87415000Y-116115000D01*
X87415000Y-115255000D01*
X93415000Y-115255000D01*
X93415000Y-116115000D01*
G36*
X93415000Y-116115000D02*
G01*
X87415000Y-116115000D01*
X87415000Y-115255000D01*
X93415000Y-115255000D01*
X93415000Y-116115000D01*
G37*
X96175000Y-117065000D02*
X93415000Y-117065000D01*
X93415000Y-111765000D01*
X96175000Y-111765000D01*
X96175000Y-117065000D01*
%TO.C,J_LED0*%
X165872857Y-103552857D02*
X165872857Y-105702857D01*
X165872857Y-112522857D02*
X162182857Y-112522857D01*
X165872857Y-114672857D02*
X165872857Y-112522857D01*
X169022857Y-103552857D02*
X165872857Y-103552857D01*
X169022857Y-114672857D02*
X165872857Y-114672857D01*
X173092857Y-113652857D02*
X173092857Y-104572857D01*
%TO.C,R2*%
X151600000Y-122147936D02*
X151600000Y-123602064D01*
X153420000Y-122147936D02*
X153420000Y-123602064D01*
%TO.C,A1*%
X86047707Y-93906070D02*
X86867707Y-93906070D01*
X86047707Y-102126070D02*
X86047707Y-93906070D01*
X86047707Y-102126070D02*
X86867707Y-102126070D01*
X86867707Y-93906070D02*
X86867707Y-94116070D01*
X86867707Y-94116070D02*
X88263707Y-94116070D01*
X86867707Y-101916070D02*
X88263707Y-101916070D01*
X86867707Y-102126070D02*
X86867707Y-101916070D01*
X87347707Y-88016070D02*
X87347707Y-90506070D01*
X87347707Y-90506070D02*
X88261227Y-90506070D01*
X87347707Y-91854009D02*
X87347707Y-90506070D01*
X87347707Y-93781070D02*
X87347707Y-92778131D01*
X87347707Y-102251070D02*
X87347707Y-93781070D01*
X87347707Y-103254009D02*
X87347707Y-102251070D01*
X87347707Y-105526070D02*
X87347707Y-104178130D01*
X87347707Y-105526070D02*
X88261227Y-105526070D01*
X87347707Y-108016070D02*
X87347707Y-105526070D01*
X87410707Y-108286070D02*
X138504707Y-108286070D01*
X87957707Y-87406070D02*
X137957707Y-87406070D01*
X87957707Y-108626070D02*
X137957707Y-108626070D01*
X89627707Y-108946070D02*
X88027707Y-108946070D01*
X90651707Y-94116070D02*
X91867707Y-94116070D01*
X90651707Y-101916070D02*
X91867707Y-101916070D01*
X90654187Y-90506070D02*
X135261227Y-90506070D01*
X90654187Y-105526070D02*
X135261227Y-105526070D01*
X91867707Y-94116070D02*
X91867707Y-101916070D01*
X137654187Y-90506070D02*
X138567707Y-90506070D01*
X137654187Y-105526070D02*
X138567707Y-105526070D01*
X138504707Y-87746070D02*
X87410707Y-87746070D01*
X138567707Y-91854009D02*
X138567707Y-88016070D01*
X138567707Y-92778131D02*
X138567707Y-94416070D01*
X138567707Y-94416070D02*
X138567707Y-101616070D01*
X138567707Y-101616070D02*
X138567707Y-103254009D01*
X138567707Y-108016070D02*
X138567707Y-104178131D01*
X87347707Y-88016070D02*
G75*
G02*
X87957707Y-87406070I610000J0D01*
G01*
X87957707Y-108626070D02*
G75*
G02*
X87347707Y-108016070I0J610000D01*
G01*
X137957707Y-87406070D02*
G75*
G02*
X138567707Y-88016070I0J-610000D01*
G01*
X138567707Y-108016070D02*
G75*
G02*
X137957707Y-108626070I-609901J-99D01*
G01*
%TO.C,J_LED6*%
X103482143Y-136835000D02*
X105632143Y-136835000D01*
X103482143Y-139985000D02*
X103482143Y-136835000D01*
X104502143Y-144055000D02*
X113582143Y-144055000D01*
X105632143Y-136835000D02*
X105632143Y-133145000D01*
X114602143Y-136835000D02*
X112452143Y-136835000D01*
X114602143Y-139985000D02*
X114602143Y-136835000D01*
%TO.C,R_SYNC_PD1*%
X106697936Y-122590000D02*
X107152064Y-122590000D01*
X106697936Y-124060000D02*
X107152064Y-124060000D01*
%TO.C,C1*%
X154820000Y-88263748D02*
X154820000Y-88786252D01*
X156290000Y-88263748D02*
X156290000Y-88786252D01*
%TO.C,R3*%
X148290000Y-122147936D02*
X148290000Y-123602064D01*
X150110000Y-122147936D02*
X150110000Y-123602064D01*
%TO.C,J_SYNC_OUT1*%
X162080000Y-96055000D02*
X163350000Y-96055000D01*
X162080000Y-97325000D02*
X162080000Y-96055000D01*
X164427358Y-99435000D02*
X164740000Y-99435000D01*
X164427358Y-100295000D02*
X164740000Y-100295000D01*
X164510000Y-96895000D02*
X164740000Y-96895000D01*
X164510000Y-97755000D02*
X164740000Y-97755000D01*
X164740000Y-98595000D02*
X167500000Y-98595000D01*
X167500000Y-99435000D02*
X173500000Y-99435000D01*
X173500000Y-99435000D02*
X173500000Y-100295000D01*
X173500000Y-100295000D02*
X167500000Y-100295000D01*
X164740000Y-95945000D02*
X167500000Y-95945000D01*
X167500000Y-101245000D01*
X164740000Y-101245000D01*
X164740000Y-95945000D01*
X167500000Y-96895000D02*
X173500000Y-96895000D01*
X173500000Y-97755000D01*
X167500000Y-97755000D01*
X167500000Y-96895000D01*
G36*
X167500000Y-96895000D02*
G01*
X173500000Y-96895000D01*
X173500000Y-97755000D01*
X167500000Y-97755000D01*
X167500000Y-96895000D01*
G37*
%TO.C,J_MODE1*%
X88095000Y-126020000D02*
X88095000Y-120830000D01*
X90855000Y-120830000D02*
X88095000Y-120830000D01*
X90855000Y-126020000D02*
X88095000Y-126020000D01*
X90855000Y-126020000D02*
X90855000Y-120830000D01*
X90855000Y-127290000D02*
X90855000Y-128670000D01*
X90855000Y-128670000D02*
X89475000Y-128670000D01*
%TO.C,J_TP_SIG1*%
X95565000Y-126080000D02*
X95565000Y-120890000D01*
X98325000Y-120890000D02*
X95565000Y-120890000D01*
X98325000Y-126080000D02*
X95565000Y-126080000D01*
X98325000Y-126080000D02*
X98325000Y-120890000D01*
X98325000Y-127350000D02*
X98325000Y-128730000D01*
X98325000Y-128730000D02*
X96945000Y-128730000D01*
%TO.C,J_LED2*%
X161190714Y-136835000D02*
X163340714Y-136835000D01*
X161190714Y-139985000D02*
X161190714Y-136835000D01*
X162210714Y-144055000D02*
X171290714Y-144055000D01*
X163340714Y-136835000D02*
X163340714Y-133145000D01*
X172310714Y-136835000D02*
X170160714Y-136835000D01*
X172310714Y-139985000D02*
X172310714Y-136835000D01*
%TO.C,J_GPIO14*%
X165872857Y-73650000D02*
X165872857Y-75800000D01*
X165872857Y-82620000D02*
X162182857Y-82620000D01*
X165872857Y-84770000D02*
X165872857Y-82620000D01*
X169022857Y-73650000D02*
X165872857Y-73650000D01*
X169022857Y-84770000D02*
X165872857Y-84770000D01*
X173092857Y-83750000D02*
X173092857Y-74670000D01*
%TO.C,R_MODE_PD1*%
X106697936Y-118640000D02*
X107152064Y-118640000D01*
X106697936Y-120110000D02*
X107152064Y-120110000D01*
%TO.C,J_GPIO16*%
X124975000Y-66415000D02*
X124975000Y-69565000D01*
X124975000Y-69565000D02*
X127125000Y-69565000D01*
X133945000Y-69565000D02*
X133945000Y-73255000D01*
X135075000Y-62345000D02*
X125995000Y-62345000D01*
X136095000Y-66415000D02*
X136095000Y-69565000D01*
X136095000Y-69565000D02*
X133945000Y-69565000D01*
%TO.C,C3*%
X99466252Y-62370000D02*
X98043748Y-62370000D01*
X99466252Y-64190000D02*
X98043748Y-64190000D01*
D13*
%TO.C,G\u002A\u002A\u002A*%
G36*
X122066666Y-125441666D02*
G01*
X122058333Y-125450000D01*
X122050000Y-125441666D01*
X122058333Y-125433333D01*
X122066666Y-125441666D01*
G37*
G36*
X122916666Y-122125000D02*
G01*
X122908333Y-122133333D01*
X122900000Y-122125000D01*
X122908333Y-122116666D01*
X122916666Y-122125000D01*
G37*
G36*
X123016666Y-126008333D02*
G01*
X123008333Y-126016666D01*
X123000000Y-126008333D01*
X123008333Y-126000000D01*
X123016666Y-126008333D01*
G37*
G36*
X123333333Y-126325000D02*
G01*
X123325000Y-126333333D01*
X123316666Y-126325000D01*
X123325000Y-126316666D01*
X123333333Y-126325000D01*
G37*
G36*
X123516666Y-125941666D02*
G01*
X123508333Y-125950000D01*
X123500000Y-125941666D01*
X123508333Y-125933333D01*
X123516666Y-125941666D01*
G37*
G36*
X123550000Y-121808333D02*
G01*
X123541666Y-121816666D01*
X123533333Y-121808333D01*
X123541666Y-121800000D01*
X123550000Y-121808333D01*
G37*
G36*
X123683333Y-121608333D02*
G01*
X123675000Y-121616666D01*
X123666666Y-121608333D01*
X123675000Y-121600000D01*
X123683333Y-121608333D01*
G37*
G36*
X123933333Y-126391666D02*
G01*
X123925000Y-126400000D01*
X123916666Y-126391666D01*
X123925000Y-126383333D01*
X123933333Y-126391666D01*
G37*
G36*
X124050000Y-126158333D02*
G01*
X124041666Y-126166666D01*
X124033333Y-126158333D01*
X124041666Y-126150000D01*
X124050000Y-126158333D01*
G37*
G36*
X124233333Y-124158333D02*
G01*
X124225000Y-124166666D01*
X124216666Y-124158333D01*
X124225000Y-124150000D01*
X124233333Y-124158333D01*
G37*
G36*
X124450000Y-125591666D02*
G01*
X124441666Y-125600000D01*
X124433333Y-125591666D01*
X124441666Y-125583333D01*
X124450000Y-125591666D01*
G37*
G36*
X125416666Y-126025000D02*
G01*
X125408333Y-126033333D01*
X125400000Y-126025000D01*
X125408333Y-126016666D01*
X125416666Y-126025000D01*
G37*
G36*
X125650000Y-121925000D02*
G01*
X125641666Y-121933333D01*
X125633333Y-121925000D01*
X125641666Y-121916666D01*
X125650000Y-121925000D01*
G37*
G36*
X125650000Y-124191666D02*
G01*
X125641666Y-124200000D01*
X125633333Y-124191666D01*
X125641666Y-124183333D01*
X125650000Y-124191666D01*
G37*
G36*
X126083333Y-126191666D02*
G01*
X126075000Y-126200000D01*
X126066666Y-126191666D01*
X126075000Y-126183333D01*
X126083333Y-126191666D01*
G37*
G36*
X126133333Y-123225000D02*
G01*
X126125000Y-123233333D01*
X126116666Y-123225000D01*
X126125000Y-123216666D01*
X126133333Y-123225000D01*
G37*
G36*
X126200000Y-126191666D02*
G01*
X126191666Y-126200000D01*
X126183333Y-126191666D01*
X126191666Y-126183333D01*
X126200000Y-126191666D01*
G37*
G36*
X127083333Y-126308333D02*
G01*
X127075000Y-126316666D01*
X127066666Y-126308333D01*
X127075000Y-126300000D01*
X127083333Y-126308333D01*
G37*
G36*
X127366666Y-125641666D02*
G01*
X127358333Y-125650000D01*
X127350000Y-125641666D01*
X127358333Y-125633333D01*
X127366666Y-125641666D01*
G37*
G36*
X123403940Y-124723714D02*
G01*
X123446360Y-124757027D01*
X123495380Y-124810726D01*
X123541665Y-124878032D01*
X123582250Y-124952151D01*
X123614170Y-125026287D01*
X123634459Y-125093643D01*
X123640150Y-125147425D01*
X123630333Y-125178614D01*
X123598297Y-125197786D01*
X123562840Y-125195173D01*
X123539027Y-125172054D01*
X123538570Y-125170833D01*
X123504728Y-125087327D01*
X123461302Y-124996251D01*
X123415020Y-124910878D01*
X123374200Y-124846672D01*
X123336552Y-124783341D01*
X123323182Y-124736299D01*
X123331609Y-124708628D01*
X123359355Y-124703406D01*
X123403940Y-124723714D01*
G37*
G36*
X126172629Y-125208257D02*
G01*
X126184670Y-125222166D01*
X126192529Y-125251525D01*
X126198418Y-125303122D01*
X126202106Y-125350000D01*
X126209650Y-125427609D01*
X126220061Y-125503427D01*
X126231298Y-125562954D01*
X126233174Y-125570525D01*
X126243476Y-125622066D01*
X126246085Y-125662862D01*
X126244090Y-125674692D01*
X126221826Y-125697974D01*
X126188653Y-125696252D01*
X126152982Y-125671689D01*
X126133492Y-125646255D01*
X126093877Y-125553025D01*
X126075204Y-125444885D01*
X126078369Y-125333561D01*
X126102114Y-125236344D01*
X126124540Y-125206496D01*
X126154193Y-125203011D01*
X126172629Y-125208257D01*
G37*
G36*
X123749401Y-122753352D02*
G01*
X123810387Y-122789199D01*
X123858397Y-122850389D01*
X123893867Y-122938105D01*
X123917234Y-123053531D01*
X123928937Y-123197848D01*
X123929411Y-123372240D01*
X123927657Y-123425000D01*
X123917563Y-123592755D01*
X123901543Y-123730990D01*
X123879014Y-123843086D01*
X123849397Y-123932424D01*
X123835304Y-123962803D01*
X123781994Y-124042142D01*
X123719348Y-124093654D01*
X123651193Y-124116123D01*
X123581356Y-124108330D01*
X123513664Y-124069060D01*
X123510309Y-124066165D01*
X123464510Y-124012413D01*
X123429725Y-123947414D01*
X123426766Y-123939283D01*
X123399595Y-123834426D01*
X123381282Y-123710337D01*
X123371565Y-123573747D01*
X123370526Y-123466666D01*
X123441666Y-123466666D01*
X123443264Y-123613715D01*
X123448612Y-123731713D01*
X123458543Y-123824813D01*
X123473890Y-123897170D01*
X123495487Y-123952936D01*
X123524166Y-123996266D01*
X123553747Y-124025595D01*
X123599813Y-124057508D01*
X123640259Y-124064152D01*
X123689185Y-124047129D01*
X123699120Y-124042121D01*
X123747761Y-123999647D01*
X123788958Y-123926176D01*
X123822817Y-123821344D01*
X123849444Y-123684786D01*
X123868947Y-123516139D01*
X123874640Y-123441666D01*
X123878089Y-123320510D01*
X123873204Y-123198638D01*
X123860902Y-123084296D01*
X123842094Y-122985731D01*
X123817697Y-122911190D01*
X123815250Y-122905925D01*
X123770806Y-122843485D01*
X123714737Y-122809693D01*
X123652759Y-122805525D01*
X123590586Y-122831952D01*
X123556526Y-122861857D01*
X123531062Y-122899948D01*
X123503216Y-122957838D01*
X123478976Y-123023061D01*
X123478780Y-123023683D01*
X123465646Y-123068645D01*
X123455996Y-123111999D01*
X123449309Y-123159994D01*
X123445059Y-123218877D01*
X123442725Y-123294896D01*
X123441782Y-123394300D01*
X123441666Y-123466666D01*
X123370526Y-123466666D01*
X123370184Y-123431389D01*
X123376877Y-123289996D01*
X123391384Y-123156300D01*
X123413442Y-123037034D01*
X123442790Y-122938931D01*
X123467616Y-122886314D01*
X123486376Y-122846904D01*
X123491846Y-122818753D01*
X123490620Y-122814974D01*
X123490249Y-122802887D01*
X123494594Y-122803293D01*
X123516367Y-122797620D01*
X123551798Y-122778321D01*
X123557600Y-122774539D01*
X123615081Y-122750052D01*
X123675000Y-122741666D01*
X123749401Y-122753352D01*
G37*
G36*
X127652188Y-121453976D02*
G01*
X127708973Y-121461430D01*
X127747066Y-121474671D01*
X127769608Y-121499385D01*
X127779741Y-121541255D01*
X127780605Y-121605966D01*
X127776655Y-121679229D01*
X127770542Y-121755668D01*
X127763029Y-121823089D01*
X127755253Y-121872273D01*
X127750706Y-121889807D01*
X127734719Y-121916237D01*
X127701064Y-121961880D01*
X127654192Y-122021007D01*
X127598553Y-122087894D01*
X127579382Y-122110280D01*
X127387223Y-122339322D01*
X127219825Y-122552905D01*
X127074773Y-122754874D01*
X126949655Y-122949076D01*
X126842055Y-123139356D01*
X126749559Y-123329559D01*
X126669755Y-123523531D01*
X126638992Y-123608333D01*
X126602595Y-123718633D01*
X126574512Y-123820073D01*
X126553446Y-123920558D01*
X126538099Y-124027997D01*
X126527172Y-124150297D01*
X126519368Y-124295364D01*
X126517242Y-124350000D01*
X126512380Y-124471774D01*
X126507351Y-124565665D01*
X126501560Y-124637119D01*
X126494415Y-124691582D01*
X126485321Y-124734501D01*
X126473684Y-124771323D01*
X126470356Y-124780091D01*
X126407353Y-124899177D01*
X126320670Y-124995024D01*
X126213920Y-125065408D01*
X126149249Y-125094658D01*
X126093932Y-125109980D01*
X126030836Y-125115249D01*
X125993171Y-125115350D01*
X125920401Y-125110796D01*
X125849133Y-125100255D01*
X125801425Y-125088048D01*
X125707459Y-125037803D01*
X125629762Y-124961058D01*
X125569453Y-124861000D01*
X125527647Y-124740821D01*
X125505464Y-124603710D01*
X125504020Y-124452856D01*
X125523681Y-124295418D01*
X125572385Y-124095010D01*
X125644117Y-123891215D01*
X125739952Y-123682138D01*
X125860969Y-123465885D01*
X126008247Y-123240562D01*
X126182863Y-123004276D01*
X126385895Y-122755131D01*
X126429049Y-122704703D01*
X126493279Y-122629411D01*
X126549227Y-122562325D01*
X126593489Y-122507650D01*
X126622658Y-122469595D01*
X126633331Y-122452367D01*
X126633333Y-122452297D01*
X126617653Y-122446932D01*
X126574367Y-122443952D01*
X126509107Y-122443215D01*
X126427503Y-122444578D01*
X126335189Y-122447897D01*
X126237794Y-122453029D01*
X126140950Y-122459831D01*
X126063420Y-122466803D01*
X125953320Y-122480282D01*
X125868659Y-122497930D01*
X125801547Y-122523582D01*
X125744092Y-122561074D01*
X125688403Y-122614242D01*
X125637008Y-122674076D01*
X125613042Y-122699969D01*
X125588280Y-122712937D01*
X125551563Y-122716164D01*
X125499260Y-122713386D01*
X125442495Y-122706429D01*
X125398326Y-122695856D01*
X125380091Y-122686757D01*
X125367716Y-122654048D01*
X125367540Y-122650000D01*
X125412783Y-122650000D01*
X125506391Y-122650000D01*
X125557194Y-122647407D01*
X125591190Y-122640706D01*
X125600000Y-122633913D01*
X125612253Y-122606613D01*
X125643721Y-122567933D01*
X125686461Y-122525826D01*
X125732532Y-122488244D01*
X125767375Y-122466304D01*
X125808969Y-122448577D01*
X125860746Y-122433638D01*
X125926706Y-122420943D01*
X126010848Y-122409949D01*
X126117174Y-122400111D01*
X126249683Y-122390886D01*
X126375000Y-122383701D01*
X126480696Y-122377698D01*
X126578212Y-122371531D01*
X126661428Y-122365635D01*
X126724226Y-122360446D01*
X126760489Y-122356402D01*
X126762500Y-122356063D01*
X126798988Y-122353431D01*
X126816418Y-122359945D01*
X126816666Y-122361341D01*
X126805544Y-122379955D01*
X126776534Y-122413608D01*
X126740269Y-122450696D01*
X126689919Y-122502074D01*
X126623879Y-122572953D01*
X126547660Y-122657113D01*
X126466772Y-122748332D01*
X126386727Y-122840390D01*
X126313033Y-122927065D01*
X126251203Y-123002136D01*
X126245442Y-123009319D01*
X126160734Y-123120726D01*
X126071100Y-123248093D01*
X125981937Y-123383023D01*
X125898640Y-123517121D01*
X125826604Y-123641990D01*
X125774835Y-123741666D01*
X125696455Y-123915438D01*
X125638305Y-124070979D01*
X125598687Y-124215163D01*
X125575901Y-124354862D01*
X125568248Y-124496949D01*
X125569590Y-124571682D01*
X125583926Y-124713415D01*
X125615141Y-124827649D01*
X125663828Y-124915969D01*
X125719317Y-124971796D01*
X125773832Y-125009121D01*
X125825458Y-125032194D01*
X125885451Y-125044294D01*
X125965068Y-125048698D01*
X125984227Y-125048943D01*
X126060208Y-125047091D01*
X126117559Y-125038124D01*
X126170710Y-125019188D01*
X126196364Y-125007023D01*
X126290259Y-124943066D01*
X126363930Y-124854157D01*
X126418815Y-124738622D01*
X126431827Y-124697225D01*
X126441468Y-124652742D01*
X126448364Y-124598904D01*
X126453140Y-124529447D01*
X126456422Y-124438102D01*
X126458452Y-124341666D01*
X126468338Y-124125695D01*
X126491612Y-123930272D01*
X126530579Y-123745481D01*
X126587547Y-123561403D01*
X126664822Y-123368121D01*
X126706053Y-123277172D01*
X126793668Y-123100978D01*
X126890897Y-122928151D01*
X127000667Y-122754439D01*
X127125906Y-122575592D01*
X127269541Y-122387357D01*
X127434500Y-122185483D01*
X127554826Y-122044612D01*
X127696746Y-121880891D01*
X127707578Y-121744612D01*
X127713730Y-121674601D01*
X127720218Y-121612518D01*
X127725821Y-121569842D01*
X127726752Y-121564520D01*
X127728630Y-121534915D01*
X127713734Y-121519361D01*
X127674177Y-121509278D01*
X127633817Y-121503130D01*
X127611034Y-121502378D01*
X127609566Y-121503091D01*
X127598640Y-121518842D01*
X127575989Y-121551600D01*
X127568199Y-121562877D01*
X127528920Y-121605526D01*
X127477000Y-121645225D01*
X127461096Y-121654543D01*
X127433166Y-121668231D01*
X127404599Y-121678059D01*
X127369454Y-121684641D01*
X127321793Y-121688590D01*
X127255678Y-121690520D01*
X127165170Y-121691044D01*
X127108333Y-121690969D01*
X127004075Y-121690088D01*
X126876523Y-121688032D01*
X126735688Y-121685021D01*
X126591582Y-121681274D01*
X126454214Y-121677010D01*
X126423783Y-121675949D01*
X126296968Y-121671562D01*
X126198301Y-121668723D01*
X126122624Y-121667649D01*
X126064780Y-121668553D01*
X126019611Y-121671651D01*
X125981958Y-121677158D01*
X125946663Y-121685288D01*
X125908569Y-121696256D01*
X125904176Y-121697587D01*
X125787041Y-121748484D01*
X125686435Y-121825402D01*
X125601936Y-121929085D01*
X125533119Y-122060271D01*
X125479562Y-122219703D01*
X125440840Y-122408121D01*
X125424336Y-122537500D01*
X125412783Y-122650000D01*
X125367540Y-122650000D01*
X125365038Y-122592429D01*
X125371899Y-122504833D01*
X125388139Y-122394194D01*
X125399302Y-122333333D01*
X125440139Y-122158821D01*
X125490114Y-122013818D01*
X125551091Y-121895303D01*
X125624935Y-121800254D01*
X125713513Y-121725650D01*
X125806333Y-121673960D01*
X125874495Y-121647098D01*
X125949210Y-121626662D01*
X126034293Y-121612458D01*
X126133558Y-121604293D01*
X126250818Y-121601972D01*
X126389889Y-121605300D01*
X126554584Y-121614084D01*
X126731802Y-121626799D01*
X126913670Y-121639279D01*
X127065757Y-121645527D01*
X127191111Y-121645083D01*
X127292781Y-121637490D01*
X127373815Y-121622288D01*
X127437262Y-121599018D01*
X127486169Y-121567221D01*
X127523586Y-121526440D01*
X127537165Y-121505581D01*
X127560387Y-121470037D01*
X127582970Y-121453811D01*
X127617680Y-121451173D01*
X127652188Y-121453976D01*
G37*
G36*
X124355803Y-120994608D02*
G01*
X124480634Y-121021838D01*
X124551965Y-121051002D01*
X124618218Y-121097601D01*
X124681014Y-121163550D01*
X124730492Y-121237097D01*
X124753105Y-121290781D01*
X124774382Y-121418352D01*
X124766162Y-121541403D01*
X124730253Y-121655273D01*
X124668463Y-121755298D01*
X124582600Y-121836815D01*
X124528228Y-121870773D01*
X124464463Y-121893867D01*
X124384812Y-121907374D01*
X124299530Y-121911213D01*
X124218868Y-121905301D01*
X124153079Y-121889560D01*
X124123085Y-121873970D01*
X124055241Y-121805355D01*
X124016812Y-121725373D01*
X124008971Y-121638791D01*
X124032889Y-121550375D01*
X124039965Y-121535951D01*
X124059420Y-121496241D01*
X124060387Y-121475979D01*
X124039699Y-121465008D01*
X124015888Y-121458740D01*
X123971984Y-121463912D01*
X123918204Y-121495906D01*
X123857853Y-121550926D01*
X123794238Y-121625177D01*
X123730662Y-121714864D01*
X123670431Y-121816192D01*
X123624577Y-121908103D01*
X123577117Y-122022212D01*
X123535677Y-122140706D01*
X123504575Y-122250600D01*
X123493510Y-122302273D01*
X123482533Y-122362879D01*
X123612099Y-122298419D01*
X123769752Y-122236163D01*
X123924446Y-122206021D01*
X124073464Y-122206774D01*
X124214085Y-122237202D01*
X124343591Y-122296088D01*
X124459264Y-122382212D01*
X124558384Y-122494355D01*
X124638232Y-122631298D01*
X124693783Y-122783333D01*
X124711794Y-122876961D01*
X124722226Y-122993280D01*
X124725171Y-123122542D01*
X124720722Y-123254997D01*
X124708971Y-123380898D01*
X124690008Y-123490497D01*
X124687000Y-123503112D01*
X124619637Y-123717662D01*
X124529354Y-123913108D01*
X124417777Y-124087394D01*
X124286533Y-124238460D01*
X124137249Y-124364251D01*
X123971552Y-124462710D01*
X123904562Y-124492553D01*
X123808333Y-124531708D01*
X123816629Y-124620020D01*
X123820419Y-124677864D01*
X123823309Y-124755287D01*
X123824836Y-124838536D01*
X123824963Y-124866666D01*
X123824532Y-124940237D01*
X123822231Y-124986917D01*
X123816607Y-125013149D01*
X123806208Y-125025373D01*
X123789583Y-125030031D01*
X123788089Y-125030248D01*
X123758724Y-125026285D01*
X123742519Y-124998281D01*
X123739955Y-124988581D01*
X123710884Y-124870435D01*
X123702794Y-124840277D01*
X123767982Y-124840277D01*
X123771046Y-124861894D01*
X123776736Y-124862152D01*
X123780714Y-124839846D01*
X123778051Y-124830208D01*
X123770651Y-124823895D01*
X123767982Y-124840277D01*
X123702794Y-124840277D01*
X123686572Y-124779801D01*
X123665457Y-124711461D01*
X123645976Y-124660200D01*
X123634021Y-124634682D01*
X123599322Y-124566666D01*
X123483814Y-124566666D01*
X123307711Y-124551611D01*
X123146623Y-124507225D01*
X123002115Y-124434674D01*
X122875750Y-124335125D01*
X122769093Y-124209747D01*
X122683707Y-124059705D01*
X122635088Y-123933333D01*
X122589122Y-123747642D01*
X122560994Y-123540803D01*
X122554006Y-123390650D01*
X122606353Y-123390650D01*
X122629793Y-123642439D01*
X122666978Y-123827768D01*
X122725054Y-124005424D01*
X122802653Y-124156071D01*
X122899761Y-124279697D01*
X123016366Y-124376292D01*
X123152453Y-124445844D01*
X123308008Y-124488342D01*
X123483018Y-124503774D01*
X123487239Y-124503810D01*
X123649478Y-124504929D01*
X123699739Y-124635260D01*
X123723204Y-124697868D01*
X123741425Y-124749801D01*
X123751354Y-124782256D01*
X123752269Y-124786962D01*
X123756343Y-124789965D01*
X123761999Y-124769025D01*
X123763170Y-124731842D01*
X123758576Y-124675657D01*
X123751396Y-124625993D01*
X123741929Y-124569059D01*
X123735390Y-124524808D01*
X123733333Y-124505033D01*
X123747885Y-124491667D01*
X123786514Y-124471534D01*
X123841680Y-124448428D01*
X123857904Y-124442364D01*
X124022828Y-124364870D01*
X124172947Y-124259579D01*
X124306501Y-124129370D01*
X124421732Y-123977121D01*
X124516878Y-123805712D01*
X124590180Y-123618020D01*
X124639878Y-123416923D01*
X124664211Y-123205301D01*
X124666447Y-123119956D01*
X124655106Y-122930756D01*
X124620992Y-122762167D01*
X124564732Y-122615453D01*
X124486953Y-122491881D01*
X124388282Y-122392716D01*
X124269941Y-122319503D01*
X124224732Y-122299800D01*
X124183647Y-122286915D01*
X124137570Y-122279431D01*
X124077382Y-122275933D01*
X123993965Y-122275005D01*
X123983333Y-122275000D01*
X123898441Y-122275584D01*
X123837432Y-122278434D01*
X123790859Y-122285194D01*
X123749278Y-122297508D01*
X123703241Y-122317020D01*
X123680339Y-122327742D01*
X123611167Y-122365428D01*
X123542308Y-122410849D01*
X123495142Y-122448575D01*
X123440761Y-122494515D01*
X123405767Y-122513959D01*
X123389555Y-122507082D01*
X123390394Y-122479166D01*
X123398084Y-122441773D01*
X123409421Y-122386725D01*
X123416991Y-122350000D01*
X123450257Y-122217349D01*
X123496425Y-122072594D01*
X123550335Y-121930424D01*
X123606825Y-121805529D01*
X123611519Y-121796300D01*
X123678181Y-121682203D01*
X123752817Y-121581130D01*
X123832187Y-121495340D01*
X123913053Y-121427089D01*
X123992175Y-121378637D01*
X124066315Y-121352241D01*
X124132233Y-121350159D01*
X124186692Y-121374651D01*
X124199350Y-121386476D01*
X124227972Y-121425742D01*
X124226972Y-121455099D01*
X124195730Y-121481069D01*
X124190050Y-121484198D01*
X124122381Y-121535100D01*
X124080777Y-121598000D01*
X124066716Y-121666970D01*
X124081675Y-121736081D01*
X124114714Y-121786581D01*
X124143396Y-121815415D01*
X124172162Y-121832401D01*
X124211777Y-121841477D01*
X124273003Y-121846579D01*
X124279858Y-121846972D01*
X124386684Y-121845709D01*
X124472469Y-121826709D01*
X124545792Y-121787531D01*
X124577411Y-121762313D01*
X124645958Y-121681920D01*
X124691092Y-121586105D01*
X124712450Y-121481843D01*
X124709670Y-121376107D01*
X124682389Y-121275872D01*
X124630244Y-121188112D01*
X124608512Y-121164068D01*
X124531070Y-121105742D01*
X124434011Y-121067607D01*
X124313877Y-121048561D01*
X124236504Y-121045825D01*
X124056270Y-121060600D01*
X123881174Y-121105666D01*
X123709778Y-121181713D01*
X123540645Y-121289430D01*
X123372336Y-121429509D01*
X123308333Y-121491330D01*
X123243753Y-121559744D01*
X123179116Y-121634713D01*
X123117853Y-121711474D01*
X123063394Y-121785265D01*
X123019172Y-121851325D01*
X122988616Y-121904890D01*
X122975159Y-121941198D01*
X122976322Y-121952139D01*
X122978728Y-121964129D01*
X122970954Y-121960983D01*
X122955935Y-121969937D01*
X122931144Y-122004831D01*
X122899769Y-122060893D01*
X122886382Y-122087574D01*
X122779391Y-122338376D01*
X122697299Y-122598793D01*
X122640700Y-122864117D01*
X122610186Y-123129639D01*
X122606353Y-123390650D01*
X122554006Y-123390650D01*
X122550710Y-123319828D01*
X122558278Y-123091732D01*
X122583702Y-122863528D01*
X122626989Y-122642230D01*
X122633937Y-122614300D01*
X122711948Y-122358867D01*
X122810975Y-122117968D01*
X122929144Y-121893899D01*
X123064579Y-121688955D01*
X123215407Y-121505430D01*
X123379752Y-121345620D01*
X123555741Y-121211819D01*
X123741499Y-121106322D01*
X123924197Y-121034749D01*
X124070184Y-121000872D01*
X124216520Y-120987556D01*
X124355803Y-120994608D01*
G37*
G36*
X125987526Y-125236344D02*
G01*
X126004709Y-125240919D01*
X126016246Y-125252965D01*
X126023859Y-125278730D01*
X126029269Y-125324464D01*
X126034198Y-125396417D01*
X126034911Y-125408333D01*
X126041243Y-125488077D01*
X126049957Y-125562973D01*
X126059617Y-125621674D01*
X126064431Y-125641666D01*
X126081132Y-125690219D01*
X126100009Y-125733511D01*
X126117339Y-125764601D01*
X126129400Y-125776548D01*
X126132742Y-125769050D01*
X126145082Y-125753949D01*
X126156898Y-125755476D01*
X126191172Y-125756130D01*
X126239654Y-125745524D01*
X126516666Y-125745524D01*
X126530722Y-125810300D01*
X126568946Y-125878748D01*
X126623519Y-125938544D01*
X126666686Y-125969734D01*
X126723827Y-126002502D01*
X126788487Y-126034229D01*
X126854211Y-126062300D01*
X126914544Y-126084098D01*
X126963030Y-126097006D01*
X126993215Y-126098408D01*
X127000000Y-126091157D01*
X126988578Y-126075960D01*
X126959539Y-126047279D01*
X126939856Y-126029508D01*
X126879712Y-125976701D01*
X126952356Y-125959183D01*
X126997817Y-125945818D01*
X127020073Y-125928527D01*
X127028801Y-125897899D01*
X127030354Y-125883333D01*
X127039236Y-125832272D01*
X127056662Y-125810916D01*
X127087096Y-125817768D01*
X127132254Y-125849145D01*
X127171662Y-125879229D01*
X127191852Y-125889674D01*
X127199159Y-125882248D01*
X127200000Y-125868067D01*
X127206701Y-125838561D01*
X127225867Y-125839038D01*
X127256090Y-125869172D01*
X127266845Y-125883584D01*
X127306447Y-125926258D01*
X127352408Y-125959571D01*
X127353513Y-125960150D01*
X127387446Y-125976577D01*
X127399107Y-125974879D01*
X127395809Y-125952288D01*
X127393953Y-125944844D01*
X127389824Y-125907216D01*
X127390436Y-125855302D01*
X127394789Y-125798877D01*
X127401880Y-125747716D01*
X127410708Y-125711591D01*
X127419040Y-125700000D01*
X127429836Y-125714413D01*
X127434649Y-125745833D01*
X127435964Y-125791666D01*
X127452704Y-125745833D01*
X127469755Y-125709129D01*
X127482441Y-125704907D01*
X127490994Y-125733389D01*
X127495343Y-125787041D01*
X127510451Y-125875196D01*
X127547968Y-125939182D01*
X127608923Y-125979936D01*
X127694346Y-125998391D01*
X127729701Y-125999754D01*
X127826624Y-125988126D01*
X127914000Y-125955419D01*
X127986406Y-125905733D01*
X128038415Y-125843167D01*
X128064604Y-125771823D01*
X128066666Y-125745077D01*
X128051098Y-125697613D01*
X128008188Y-125656581D01*
X127943623Y-125623941D01*
X127863093Y-125601652D01*
X127772286Y-125591672D01*
X127676892Y-125595960D01*
X127646956Y-125600551D01*
X127583741Y-125609921D01*
X127513869Y-125617001D01*
X127444552Y-125621522D01*
X127383001Y-125623213D01*
X127336427Y-125621805D01*
X127312042Y-125617027D01*
X127310501Y-125613157D01*
X127305305Y-125602036D01*
X127276887Y-125598473D01*
X127234243Y-125601475D01*
X127186370Y-125610048D01*
X127142264Y-125623202D01*
X127118953Y-125634293D01*
X127076149Y-125655926D01*
X127054512Y-125657580D01*
X127056802Y-125640351D01*
X127074907Y-125616768D01*
X127089159Y-125599565D01*
X127089492Y-125589586D01*
X127070566Y-125584864D01*
X127027041Y-125583432D01*
X126984155Y-125583333D01*
X126831315Y-125596372D01*
X126668724Y-125634156D01*
X126587500Y-125661495D01*
X126543451Y-125680459D01*
X126522794Y-125700552D01*
X126516867Y-125732049D01*
X126516666Y-125745524D01*
X126239654Y-125745524D01*
X126247773Y-125743748D01*
X126319433Y-125720629D01*
X126398882Y-125689069D01*
X126466666Y-125657545D01*
X126629668Y-125589609D01*
X126799004Y-125546908D01*
X126980227Y-125528598D01*
X127178893Y-125533836D01*
X127241666Y-125539758D01*
X127433951Y-125552810D01*
X127617603Y-125548094D01*
X127685144Y-125542089D01*
X127819850Y-125538884D01*
X127934515Y-125560124D01*
X128032493Y-125606507D01*
X128049094Y-125617926D01*
X128117309Y-125680978D01*
X128154768Y-125751265D01*
X128163987Y-125833972D01*
X128162702Y-125852057D01*
X128138433Y-125939452D01*
X128086055Y-126016222D01*
X128009690Y-126080235D01*
X127913462Y-126129360D01*
X127801495Y-126161466D01*
X127677911Y-126174421D01*
X127553347Y-126167027D01*
X127482132Y-126159445D01*
X127432766Y-126159079D01*
X127411756Y-126164910D01*
X127407290Y-126190407D01*
X127416603Y-126239130D01*
X127424792Y-126266041D01*
X127443085Y-126346416D01*
X127451468Y-126439449D01*
X127449896Y-126532849D01*
X127438323Y-126614324D01*
X127426222Y-126653182D01*
X127385049Y-126722088D01*
X127326535Y-126782933D01*
X127258496Y-126830377D01*
X127188746Y-126859082D01*
X127125099Y-126863708D01*
X127119578Y-126862685D01*
X127090748Y-126866951D01*
X127044189Y-126884052D01*
X127000000Y-126905181D01*
X126943403Y-126935041D01*
X126892684Y-126961722D01*
X126866666Y-126975351D01*
X126831382Y-126985230D01*
X126767633Y-126994239D01*
X126680286Y-127001831D01*
X126583333Y-127007094D01*
X126483337Y-127010610D01*
X126409995Y-127011332D01*
X126356715Y-127008881D01*
X126316907Y-127002879D01*
X126283979Y-126992947D01*
X126275000Y-126989371D01*
X126217264Y-126973225D01*
X126139038Y-126962096D01*
X126075000Y-126958244D01*
X125994298Y-126953548D01*
X125932893Y-126942303D01*
X125876938Y-126921524D01*
X125854720Y-126910759D01*
X125803679Y-126886753D01*
X125762532Y-126870738D01*
X125744949Y-126866666D01*
X125717590Y-126857177D01*
X125671361Y-126831934D01*
X125613607Y-126795774D01*
X125551670Y-126753535D01*
X125492894Y-126710053D01*
X125444623Y-126670167D01*
X125439375Y-126665381D01*
X125381139Y-126609402D01*
X125341243Y-126563680D01*
X125312236Y-126517360D01*
X125286663Y-126459585D01*
X125272679Y-126422584D01*
X125247456Y-126354238D01*
X125222849Y-126288023D01*
X125205465Y-126241666D01*
X125187671Y-126165214D01*
X125187670Y-126165139D01*
X125292082Y-126165139D01*
X125307054Y-126197519D01*
X125308869Y-126201036D01*
X125336335Y-126235330D01*
X125366368Y-126246871D01*
X125390121Y-126233430D01*
X125395196Y-126222767D01*
X125389226Y-126195357D01*
X125385221Y-126191220D01*
X125566666Y-126191220D01*
X125573343Y-126209489D01*
X125590394Y-126247437D01*
X125603321Y-126274554D01*
X125632399Y-126325762D01*
X125657502Y-126347268D01*
X125682968Y-126341647D01*
X125696666Y-126330000D01*
X125714768Y-126291179D01*
X125710912Y-126244235D01*
X125690476Y-126209523D01*
X125664494Y-126195156D01*
X125627061Y-126185335D01*
X125590907Y-126181942D01*
X125568761Y-126186860D01*
X125566666Y-126191220D01*
X125385221Y-126191220D01*
X125362877Y-126168140D01*
X125327526Y-126151445D01*
X125315048Y-126150000D01*
X125294384Y-126152289D01*
X125292082Y-126165139D01*
X125187670Y-126165139D01*
X125187109Y-126084989D01*
X125199460Y-126027241D01*
X125257292Y-126027241D01*
X125259846Y-126044133D01*
X125262500Y-126045341D01*
X125280138Y-126066115D01*
X125283333Y-126083615D01*
X125297451Y-126110673D01*
X125329166Y-126121395D01*
X125367244Y-126127363D01*
X125387500Y-126130836D01*
X125389163Y-126129294D01*
X125466666Y-126129294D01*
X125468843Y-126165551D01*
X125479138Y-126175212D01*
X125498904Y-126167253D01*
X125559792Y-126149796D01*
X125627417Y-126152762D01*
X125687410Y-126174491D01*
X125709791Y-126191609D01*
X125730896Y-126215085D01*
X125742309Y-126238799D01*
X125745758Y-126272256D01*
X125742969Y-126324961D01*
X125740068Y-126358275D01*
X125734811Y-126421768D01*
X125734290Y-126459056D01*
X125739924Y-126477102D01*
X125753133Y-126482870D01*
X125765558Y-126483333D01*
X125806582Y-126493938D01*
X125826583Y-126507536D01*
X125841153Y-126528280D01*
X125827787Y-126543769D01*
X125818155Y-126549203D01*
X125780704Y-126563568D01*
X125761032Y-126566666D01*
X125751082Y-126574044D01*
X125756972Y-126599206D01*
X125779944Y-126646696D01*
X125786017Y-126658017D01*
X125815147Y-126708296D01*
X125840761Y-126746482D01*
X125854892Y-126762184D01*
X125891308Y-126780734D01*
X125939209Y-126798569D01*
X125987388Y-126812363D01*
X126024639Y-126818792D01*
X126038713Y-126816735D01*
X126043315Y-126794251D01*
X126038214Y-126753162D01*
X126034451Y-126737485D01*
X126018142Y-126696615D01*
X125990300Y-126645194D01*
X125955590Y-126589881D01*
X125918679Y-126537335D01*
X125884231Y-126494215D01*
X125856914Y-126467180D01*
X125841772Y-126462500D01*
X125835206Y-126463631D01*
X125838457Y-126456627D01*
X125838821Y-126431979D01*
X125828822Y-126387547D01*
X125816129Y-126348529D01*
X125790101Y-126254643D01*
X125784790Y-126175117D01*
X125786926Y-126166870D01*
X125833333Y-126166870D01*
X125835854Y-126186030D01*
X125849362Y-126187740D01*
X125865966Y-126180305D01*
X125960204Y-126180305D01*
X125961315Y-126203826D01*
X125975519Y-126244149D01*
X125997555Y-126290807D01*
X126022165Y-126333336D01*
X126044088Y-126361267D01*
X126053858Y-126366666D01*
X126083344Y-126357681D01*
X126112958Y-126340721D01*
X126143969Y-126301348D01*
X126146098Y-126251087D01*
X126124054Y-126203708D01*
X126092935Y-126176389D01*
X126044686Y-126166864D01*
X126033371Y-126166666D01*
X125989865Y-126169863D01*
X125962862Y-126177795D01*
X125960204Y-126180305D01*
X125865966Y-126180305D01*
X125882770Y-126172780D01*
X125885473Y-126171434D01*
X125955897Y-126146199D01*
X126028647Y-126136258D01*
X126092100Y-126142402D01*
X126122734Y-126155316D01*
X126167902Y-126201591D01*
X126186107Y-126257749D01*
X126177223Y-126314989D01*
X126141123Y-126364512D01*
X126125896Y-126375945D01*
X126092678Y-126402838D01*
X126087120Y-126427810D01*
X126108971Y-126459943D01*
X126123176Y-126474691D01*
X126151936Y-126498446D01*
X126183324Y-126508182D01*
X126230533Y-126507140D01*
X126248176Y-126505380D01*
X126299352Y-126501665D01*
X126325226Y-126505742D01*
X126333217Y-126519063D01*
X126333333Y-126522034D01*
X126318991Y-126544259D01*
X126283295Y-126565683D01*
X126275000Y-126568936D01*
X126237102Y-126586143D01*
X126217438Y-126601914D01*
X126216666Y-126604546D01*
X126224503Y-126626227D01*
X126244525Y-126665646D01*
X126259917Y-126692865D01*
X126280512Y-126726914D01*
X126299361Y-126749183D01*
X126323717Y-126762141D01*
X126360838Y-126768258D01*
X126417978Y-126770002D01*
X126486269Y-126769896D01*
X126549087Y-126773154D01*
X126582730Y-126784016D01*
X126589805Y-126792827D01*
X126610144Y-126806997D01*
X126646185Y-126798844D01*
X126680665Y-126777461D01*
X126687042Y-126764026D01*
X126669530Y-126747832D01*
X126624228Y-126725336D01*
X126622332Y-126724497D01*
X126564715Y-126691441D01*
X126507278Y-126641053D01*
X126447956Y-126573615D01*
X126387607Y-126496563D01*
X126346621Y-126435381D01*
X126321233Y-126381934D01*
X126307674Y-126328092D01*
X126302178Y-126265720D01*
X126301914Y-126258333D01*
X126301100Y-126246426D01*
X126350000Y-126246426D01*
X126353796Y-126300238D01*
X126366173Y-126323346D01*
X126388606Y-126317614D01*
X126399474Y-126308808D01*
X126435757Y-126286168D01*
X126439139Y-126284690D01*
X126513790Y-126284690D01*
X126575853Y-126334011D01*
X126617673Y-126366571D01*
X126639786Y-126379877D01*
X126648468Y-126375552D01*
X126649998Y-126355220D01*
X126650000Y-126353185D01*
X126637458Y-126304198D01*
X126604560Y-126275550D01*
X126559488Y-126273220D01*
X126513790Y-126284690D01*
X126439139Y-126284690D01*
X126490100Y-126262421D01*
X126547890Y-126243058D01*
X126594512Y-126233569D01*
X126600332Y-126233333D01*
X126638555Y-126246860D01*
X126680033Y-126280402D01*
X126714739Y-126323404D01*
X126732644Y-126365308D01*
X126733333Y-126373353D01*
X126741532Y-126407688D01*
X126766707Y-126414149D01*
X126809724Y-126392904D01*
X126815410Y-126389004D01*
X126843059Y-126371345D01*
X126850716Y-126377148D01*
X126846244Y-126406638D01*
X126844026Y-126438467D01*
X126856416Y-126444473D01*
X126860459Y-126443156D01*
X126880451Y-126446696D01*
X126883333Y-126456122D01*
X126894921Y-126478902D01*
X126924564Y-126513388D01*
X126948053Y-126535965D01*
X126987851Y-126569336D01*
X127013486Y-126582170D01*
X127033966Y-126577893D01*
X127042905Y-126572033D01*
X127079151Y-126552023D01*
X127096225Y-126558358D01*
X127094543Y-126585734D01*
X127091204Y-126609076D01*
X127102261Y-126604357D01*
X127104265Y-126602400D01*
X127130448Y-126584398D01*
X127141691Y-126596073D01*
X127139931Y-126620833D01*
X127139873Y-126635682D01*
X127150757Y-126619496D01*
X127158205Y-126604166D01*
X127179081Y-126568324D01*
X127197689Y-126550453D01*
X127200047Y-126550000D01*
X127213129Y-126553019D01*
X127214327Y-126567220D01*
X127202876Y-126600320D01*
X127192567Y-126625414D01*
X127168468Y-126683091D01*
X127234804Y-126649249D01*
X127294020Y-126605823D01*
X127328158Y-126558749D01*
X127346915Y-126485194D01*
X127337032Y-126412527D01*
X127300802Y-126349844D01*
X127268368Y-126321479D01*
X127221366Y-126293072D01*
X127196463Y-126284976D01*
X127195380Y-126296729D01*
X127219839Y-126327869D01*
X127224833Y-126333159D01*
X127256682Y-126370680D01*
X127263397Y-126388938D01*
X127247134Y-126387812D01*
X127210050Y-126367180D01*
X127166717Y-126336454D01*
X127086471Y-126281579D01*
X126990808Y-126225159D01*
X126889630Y-126172292D01*
X126792842Y-126128078D01*
X126710345Y-126097614D01*
X126693577Y-126092864D01*
X126596781Y-126078139D01*
X126509700Y-126084678D01*
X126437085Y-126110357D01*
X126383686Y-126153054D01*
X126354256Y-126210645D01*
X126350000Y-126246426D01*
X126301100Y-126246426D01*
X126297823Y-126198470D01*
X126287399Y-126159562D01*
X126266231Y-126129289D01*
X126250001Y-126113318D01*
X126178734Y-126067632D01*
X126092067Y-126042300D01*
X126003546Y-126041143D01*
X125997544Y-126042081D01*
X125940904Y-126060289D01*
X125888574Y-126091447D01*
X125849691Y-126128611D01*
X125833393Y-126164837D01*
X125833333Y-126166870D01*
X125786926Y-126166870D01*
X125799857Y-126116932D01*
X125805676Y-126091951D01*
X125790386Y-126066202D01*
X125765239Y-126043023D01*
X125697951Y-125999660D01*
X125628713Y-125985318D01*
X125575369Y-125990497D01*
X125515374Y-126016356D01*
X125478362Y-126065373D01*
X125466666Y-126129294D01*
X125389163Y-126129294D01*
X125399015Y-126120159D01*
X125400000Y-126112130D01*
X125409937Y-126087390D01*
X125435059Y-126049336D01*
X125449680Y-126030657D01*
X125479038Y-125993965D01*
X125488585Y-125974981D01*
X125479743Y-125965718D01*
X125462180Y-125960421D01*
X125380399Y-125949819D01*
X125316032Y-125966967D01*
X125282071Y-125993952D01*
X125257292Y-126027241D01*
X125199460Y-126027241D01*
X125202653Y-126012310D01*
X125233181Y-125958498D01*
X125233629Y-125958017D01*
X125298875Y-125911542D01*
X125377135Y-125893474D01*
X125461909Y-125905196D01*
X125469653Y-125907766D01*
X125532330Y-125924003D01*
X125596974Y-125932663D01*
X125610012Y-125933090D01*
X125668718Y-125937823D01*
X125723168Y-125949107D01*
X125729446Y-125951142D01*
X125758249Y-125958513D01*
X125785747Y-125956181D01*
X125820709Y-125941337D01*
X125871906Y-125911172D01*
X125890266Y-125899648D01*
X125941940Y-125866511D01*
X125980526Y-125840811D01*
X125999226Y-125827105D01*
X126000000Y-125826115D01*
X125994882Y-125809493D01*
X125981543Y-125770365D01*
X125965073Y-125723442D01*
X125946062Y-125653595D01*
X125931560Y-125568985D01*
X125922287Y-125479209D01*
X125918962Y-125393868D01*
X125922302Y-125322558D01*
X125931718Y-125278011D01*
X125952818Y-125243568D01*
X125983027Y-125235818D01*
X125987526Y-125236344D01*
G37*
G36*
X123803940Y-125152108D02*
G01*
X123822969Y-125166446D01*
X123831341Y-125189044D01*
X123831099Y-125229477D01*
X123827873Y-125264338D01*
X123818032Y-125358492D01*
X123896516Y-125389925D01*
X123959542Y-125418353D01*
X124027900Y-125453780D01*
X124054417Y-125469012D01*
X124107224Y-125499307D01*
X124142122Y-125513001D01*
X124169219Y-125511552D01*
X124198623Y-125496417D01*
X124206976Y-125491022D01*
X124248574Y-125474714D01*
X124303617Y-125465881D01*
X124318890Y-125465365D01*
X124372769Y-125465356D01*
X124444605Y-125465345D01*
X124519023Y-125465336D01*
X124520361Y-125465336D01*
X124609154Y-125469552D01*
X124675031Y-125481608D01*
X124697280Y-125490260D01*
X124750330Y-125535424D01*
X124784027Y-125602496D01*
X124797891Y-125685907D01*
X124791444Y-125780092D01*
X124764208Y-125879481D01*
X124736150Y-125942280D01*
X124704098Y-126007984D01*
X124674590Y-126075063D01*
X124658486Y-126116666D01*
X124629508Y-126177363D01*
X124589776Y-126235314D01*
X124578706Y-126247821D01*
X124532473Y-126295927D01*
X124481182Y-126348968D01*
X124465186Y-126365432D01*
X124408162Y-126412452D01*
X124333247Y-126459001D01*
X124253685Y-126497890D01*
X124182725Y-126521934D01*
X124173104Y-126523914D01*
X124132473Y-126538319D01*
X124082083Y-126565187D01*
X124062103Y-126578162D01*
X124023891Y-126601932D01*
X123986982Y-126616036D01*
X123940410Y-126623057D01*
X123873209Y-126625579D01*
X123860210Y-126625734D01*
X123768577Y-126630406D01*
X123700115Y-126643333D01*
X123658333Y-126659366D01*
X123625652Y-126672772D01*
X123588165Y-126681965D01*
X123539045Y-126687681D01*
X123471465Y-126690658D01*
X123378598Y-126691632D01*
X123359153Y-126691652D01*
X123264059Y-126690237D01*
X123179569Y-126686310D01*
X123113091Y-126680366D01*
X123072033Y-126672899D01*
X123070393Y-126672363D01*
X123027374Y-126652610D01*
X122970710Y-126620143D01*
X122918131Y-126585711D01*
X122850655Y-126543772D01*
X122844853Y-126541666D01*
X123383333Y-126541666D01*
X123391666Y-126550000D01*
X123400000Y-126541666D01*
X123391666Y-126533333D01*
X123383333Y-126541666D01*
X122844853Y-126541666D01*
X122803331Y-126526593D01*
X122788511Y-126527150D01*
X122727018Y-126528062D01*
X122657932Y-126505353D01*
X122591818Y-126463351D01*
X122579485Y-126451628D01*
X123214110Y-126451628D01*
X123240171Y-126487656D01*
X123266666Y-126503988D01*
X123312424Y-126523964D01*
X123344760Y-126532779D01*
X123358445Y-126530179D01*
X123348252Y-126515913D01*
X123338284Y-126508333D01*
X123400000Y-126508333D01*
X123408333Y-126516666D01*
X123416666Y-126508333D01*
X123408333Y-126500000D01*
X123400000Y-126508333D01*
X123338284Y-126508333D01*
X123337041Y-126507388D01*
X123307087Y-126480309D01*
X123301448Y-126463004D01*
X123318413Y-126461683D01*
X123345833Y-126475486D01*
X123391666Y-126504807D01*
X123362255Y-126472728D01*
X123833333Y-126472728D01*
X123847911Y-126485146D01*
X123885313Y-126489955D01*
X123936043Y-126487701D01*
X123990605Y-126478928D01*
X124039502Y-126464179D01*
X124048062Y-126460421D01*
X124075930Y-126437258D01*
X124112223Y-126393764D01*
X124149518Y-126338933D01*
X124152838Y-126333471D01*
X124217885Y-126225275D01*
X124170524Y-126213002D01*
X124125178Y-126191811D01*
X124083743Y-126158770D01*
X124044324Y-126116810D01*
X123979021Y-126237571D01*
X123942531Y-126302399D01*
X123906136Y-126362698D01*
X123876906Y-126406818D01*
X123873526Y-126411387D01*
X123848094Y-126446839D01*
X123834206Y-126469858D01*
X123833333Y-126472728D01*
X123362255Y-126472728D01*
X123351261Y-126460736D01*
X123330256Y-126431249D01*
X123328708Y-126415547D01*
X123344624Y-126420037D01*
X123359840Y-126433173D01*
X123385301Y-126445194D01*
X123430562Y-126456485D01*
X123454020Y-126460326D01*
X123492073Y-126464659D01*
X123520386Y-126462393D01*
X123547073Y-126449391D01*
X123580250Y-126421517D01*
X123628032Y-126374633D01*
X123634165Y-126368501D01*
X123736636Y-126266029D01*
X123676651Y-126199633D01*
X123637011Y-126153910D01*
X123620058Y-126128329D01*
X123624661Y-126119717D01*
X123649687Y-126124900D01*
X123650000Y-126125000D01*
X123676840Y-126126593D01*
X123683333Y-126117789D01*
X123697962Y-126105952D01*
X123733860Y-126100126D01*
X123740683Y-126100000D01*
X123789634Y-126094558D01*
X123807147Y-126078302D01*
X123806762Y-126077560D01*
X124072856Y-126077560D01*
X124080546Y-126104498D01*
X124083939Y-126109063D01*
X124102975Y-126129448D01*
X124120683Y-126130381D01*
X124140207Y-126123253D01*
X124158574Y-126108193D01*
X124158092Y-126099609D01*
X124166259Y-126087264D01*
X124197442Y-126075592D01*
X124200651Y-126074856D01*
X124233987Y-126064836D01*
X124239500Y-126051830D01*
X124229963Y-126037740D01*
X124206826Y-126002139D01*
X124190859Y-125969449D01*
X124173385Y-125927084D01*
X124135638Y-125980095D01*
X124114267Y-126018540D01*
X124108280Y-126047881D01*
X124109854Y-126052461D01*
X124111927Y-126064073D01*
X124103726Y-126060636D01*
X124082237Y-126058891D01*
X124072856Y-126077560D01*
X123806762Y-126077560D01*
X123793145Y-126051336D01*
X123782940Y-126041310D01*
X123757177Y-125998066D01*
X123750782Y-125941361D01*
X123755097Y-125924891D01*
X123789979Y-125924891D01*
X123793225Y-125935855D01*
X123809933Y-125934516D01*
X123836106Y-125921168D01*
X124231090Y-125921168D01*
X124244242Y-125941800D01*
X124278197Y-125949286D01*
X124293331Y-125949744D01*
X124319892Y-125939576D01*
X124351046Y-125906069D01*
X124388890Y-125847881D01*
X124605307Y-125847881D01*
X124614971Y-125867369D01*
X124632900Y-125859291D01*
X124647108Y-125837500D01*
X124668104Y-125785874D01*
X124675393Y-125743938D01*
X124668146Y-125719684D01*
X124659634Y-125716666D01*
X124638216Y-125720736D01*
X124624354Y-125738274D01*
X124613338Y-125777273D01*
X124607991Y-125804293D01*
X124605307Y-125847881D01*
X124388890Y-125847881D01*
X124389462Y-125847001D01*
X124422552Y-125786629D01*
X124434503Y-125748191D01*
X124424174Y-125726952D01*
X124390423Y-125718176D01*
X124358102Y-125716921D01*
X124329899Y-125719672D01*
X124308927Y-125732817D01*
X124288836Y-125763179D01*
X124263270Y-125817580D01*
X124262267Y-125819848D01*
X124237509Y-125882236D01*
X124231090Y-125921168D01*
X123836106Y-125921168D01*
X123844183Y-125917049D01*
X123887683Y-125888391D01*
X123932141Y-125853478D01*
X123933333Y-125852446D01*
X123924754Y-125850385D01*
X123892992Y-125854430D01*
X123883333Y-125856163D01*
X123836268Y-125872494D01*
X123802559Y-125897695D01*
X123789979Y-125924891D01*
X123755097Y-125924891D01*
X123765310Y-125885910D01*
X123766314Y-125883990D01*
X123798688Y-125854145D01*
X123853536Y-125831824D01*
X123920518Y-125818686D01*
X123989295Y-125816390D01*
X124049529Y-125826595D01*
X124070226Y-125835238D01*
X124093114Y-125845069D01*
X124099667Y-125835484D01*
X124094170Y-125800021D01*
X124094032Y-125799327D01*
X124073252Y-125738109D01*
X124040686Y-125703193D01*
X124112448Y-125703193D01*
X124126001Y-125735269D01*
X124143568Y-125778189D01*
X124150652Y-125811672D01*
X124155837Y-125820979D01*
X124169337Y-125799785D01*
X124173948Y-125789638D01*
X124201768Y-125744348D01*
X124235338Y-125710471D01*
X124286904Y-125690305D01*
X124354280Y-125684330D01*
X124423046Y-125692683D01*
X124466548Y-125708272D01*
X124506987Y-125722130D01*
X124527386Y-125710286D01*
X124528966Y-125671524D01*
X124525009Y-125650043D01*
X124496762Y-125587602D01*
X124448198Y-125545017D01*
X124390619Y-125524215D01*
X124516666Y-125524215D01*
X124525255Y-125553896D01*
X124545004Y-125587921D01*
X124566891Y-125612359D01*
X124576552Y-125616666D01*
X124598196Y-125630497D01*
X124608188Y-125649545D01*
X124622347Y-125671326D01*
X124652488Y-125679175D01*
X124684225Y-125678711D01*
X124725614Y-125675311D01*
X124748391Y-125671383D01*
X124749913Y-125670298D01*
X124740789Y-125637974D01*
X124718299Y-125594886D01*
X124690988Y-125555387D01*
X124669173Y-125534674D01*
X124638400Y-125524900D01*
X124595873Y-125518474D01*
X124553646Y-125516224D01*
X124523773Y-125518977D01*
X124516666Y-125524215D01*
X124390619Y-125524215D01*
X124385950Y-125522528D01*
X124316649Y-125520373D01*
X124246929Y-125538792D01*
X124183422Y-125578025D01*
X124134182Y-125635944D01*
X124114058Y-125674474D01*
X124112448Y-125703193D01*
X124040686Y-125703193D01*
X124034902Y-125696992D01*
X123988035Y-125672418D01*
X123898701Y-125652499D01*
X123805568Y-125664186D01*
X123712653Y-125706682D01*
X123672834Y-125734968D01*
X123623550Y-125777003D01*
X123597789Y-125810795D01*
X123591305Y-125846534D01*
X123599851Y-125894414D01*
X123602381Y-125904072D01*
X123613916Y-125974697D01*
X123604001Y-126034232D01*
X123569591Y-126092472D01*
X123530000Y-126137000D01*
X123493512Y-126177070D01*
X123469685Y-126208443D01*
X123463938Y-126222072D01*
X123457160Y-126228613D01*
X123451553Y-126225960D01*
X123427561Y-126228077D01*
X123387356Y-126246793D01*
X123339672Y-126276597D01*
X123293240Y-126311977D01*
X123256793Y-126347422D01*
X123254261Y-126350475D01*
X123218869Y-126406676D01*
X123214110Y-126451628D01*
X122579485Y-126451628D01*
X122560795Y-126433863D01*
X122502377Y-126349184D01*
X122467358Y-126248774D01*
X122455174Y-126129761D01*
X122558333Y-126129761D01*
X122560917Y-126198566D01*
X122570563Y-126246512D01*
X122590109Y-126285803D01*
X122596968Y-126295833D01*
X122633171Y-126336436D01*
X122661660Y-126348739D01*
X122679235Y-126332485D01*
X122683333Y-126302777D01*
X122691153Y-126265133D01*
X122708333Y-126255555D01*
X122725935Y-126259740D01*
X122725144Y-126263744D01*
X122726700Y-126281066D01*
X122744492Y-126303103D01*
X122766892Y-126316282D01*
X122770490Y-126316666D01*
X122780232Y-126304602D01*
X122777976Y-126293412D01*
X122779219Y-126278750D01*
X122803044Y-126275464D01*
X122830359Y-126278180D01*
X122885823Y-126277083D01*
X122938050Y-126254066D01*
X122950000Y-126246199D01*
X122986476Y-126217829D01*
X123002258Y-126190246D01*
X123004254Y-126148670D01*
X123003267Y-126132264D01*
X122998201Y-126058333D01*
X123040167Y-126108333D01*
X123068208Y-126134117D01*
X123082250Y-126133687D01*
X123079465Y-126112234D01*
X123057803Y-126075981D01*
X123036714Y-126041401D01*
X123035758Y-126025561D01*
X123052098Y-126032991D01*
X123071723Y-126053745D01*
X123108914Y-126099158D01*
X123147341Y-126015395D01*
X123162752Y-125990525D01*
X123234985Y-125990525D01*
X123243341Y-126033984D01*
X123253333Y-126046666D01*
X123279962Y-126064067D01*
X123308088Y-126058540D01*
X123344338Y-126027761D01*
X123362007Y-126008525D01*
X123413482Y-125950383D01*
X123346388Y-125930282D01*
X123302217Y-125919150D01*
X123277034Y-125921366D01*
X123258658Y-125938461D01*
X123256314Y-125941609D01*
X123234985Y-125990525D01*
X123162752Y-125990525D01*
X123193042Y-125941642D01*
X123248539Y-125899475D01*
X123314931Y-125888297D01*
X123365337Y-125897632D01*
X123422500Y-125921618D01*
X123475107Y-125954179D01*
X123480783Y-125958745D01*
X123529735Y-125999935D01*
X123539895Y-125959457D01*
X123540430Y-125896429D01*
X123512849Y-125839629D01*
X123462262Y-125792671D01*
X123393785Y-125759164D01*
X123312528Y-125742721D01*
X123236271Y-125744990D01*
X123177410Y-125759170D01*
X123106447Y-125785638D01*
X123028613Y-125821283D01*
X122949143Y-125862996D01*
X122873270Y-125907665D01*
X122806227Y-125952179D01*
X122753247Y-125993429D01*
X122719565Y-126028303D01*
X122710413Y-126053692D01*
X122711653Y-126056807D01*
X122713410Y-126066251D01*
X122708372Y-126062644D01*
X122686018Y-126061097D01*
X122671964Y-126069186D01*
X122647472Y-126084575D01*
X122641086Y-126077732D01*
X122651643Y-126053623D01*
X122677978Y-126017215D01*
X122686472Y-126007250D01*
X122741666Y-125944334D01*
X122676154Y-125954941D01*
X122619667Y-125969189D01*
X122584241Y-125994175D01*
X122565398Y-126036542D01*
X122558662Y-126102931D01*
X122558333Y-126129761D01*
X122455174Y-126129761D01*
X122455157Y-126129595D01*
X122465190Y-125988606D01*
X122469684Y-125958333D01*
X122468999Y-125937000D01*
X122454499Y-125929149D01*
X122420942Y-125934799D01*
X122363089Y-125953967D01*
X122350000Y-125958741D01*
X122269672Y-125977611D01*
X122169330Y-125980988D01*
X122155389Y-125980393D01*
X122087779Y-125975193D01*
X122041354Y-125965218D01*
X122003979Y-125946703D01*
X121973229Y-125923849D01*
X121901909Y-125848131D01*
X121856024Y-125760339D01*
X121837336Y-125666898D01*
X121847608Y-125574231D01*
X121859811Y-125542027D01*
X121936019Y-125542027D01*
X121939849Y-125628599D01*
X121968572Y-125705815D01*
X122016946Y-125769970D01*
X122079726Y-125817359D01*
X122151668Y-125844278D01*
X122227528Y-125847021D01*
X122302064Y-125821883D01*
X122318125Y-125811999D01*
X122380014Y-125752414D01*
X122412552Y-125679020D01*
X122414518Y-125595898D01*
X122399533Y-125540440D01*
X122388283Y-125500856D01*
X122393421Y-125489072D01*
X122412414Y-125505445D01*
X122433725Y-125535620D01*
X122455044Y-125567476D01*
X122462299Y-125571924D01*
X122458014Y-125550465D01*
X122457888Y-125550000D01*
X122439353Y-125501716D01*
X122422880Y-125470833D01*
X122410093Y-125443636D01*
X122413164Y-125433333D01*
X122437450Y-125446337D01*
X122470593Y-125479363D01*
X122505021Y-125523429D01*
X122533161Y-125569552D01*
X122539624Y-125583333D01*
X122564421Y-125641666D01*
X122576066Y-125570463D01*
X122588472Y-125515554D01*
X122602197Y-125493863D01*
X122617087Y-125505424D01*
X122632991Y-125550270D01*
X122634889Y-125557610D01*
X122648401Y-125602177D01*
X122661065Y-125629392D01*
X122665830Y-125633333D01*
X122679417Y-125619957D01*
X122703786Y-125584835D01*
X122733740Y-125535474D01*
X122734684Y-125533828D01*
X122764631Y-125484082D01*
X122788989Y-125448240D01*
X122802616Y-125433850D01*
X122802807Y-125433828D01*
X122817677Y-125446344D01*
X122841396Y-125478250D01*
X122850064Y-125491770D01*
X122876259Y-125525567D01*
X122898569Y-125540118D01*
X122903998Y-125539195D01*
X122913872Y-125538667D01*
X122909942Y-125547395D01*
X122909987Y-125576279D01*
X122933301Y-125614463D01*
X122974491Y-125654232D01*
X122994915Y-125668954D01*
X123058378Y-125693774D01*
X123135801Y-125699790D01*
X123213774Y-125687225D01*
X123266666Y-125664473D01*
X123344956Y-125604856D01*
X123398732Y-125538617D01*
X123427298Y-125470245D01*
X123429957Y-125404230D01*
X123406014Y-125345060D01*
X123354773Y-125297225D01*
X123325974Y-125282047D01*
X123262405Y-125261509D01*
X123176849Y-125244002D01*
X123080613Y-125230918D01*
X122985002Y-125223648D01*
X122901323Y-125223583D01*
X122871663Y-125226137D01*
X122821266Y-125233686D01*
X122798379Y-125241911D01*
X122797266Y-125253941D01*
X122803761Y-125263194D01*
X122815061Y-125280559D01*
X122802403Y-125281398D01*
X122783333Y-125275746D01*
X122723653Y-125261935D01*
X122658314Y-125254791D01*
X122599381Y-125254903D01*
X122558919Y-125262859D01*
X122555411Y-125264635D01*
X122535232Y-125278277D01*
X122543994Y-125282505D01*
X122553183Y-125282826D01*
X122582304Y-125290442D01*
X122589903Y-125297147D01*
X122579925Y-125304808D01*
X122545164Y-125309783D01*
X122511720Y-125310868D01*
X122442710Y-125316309D01*
X122372269Y-125330089D01*
X122350000Y-125336791D01*
X122289598Y-125354861D01*
X122216842Y-125372719D01*
X122175000Y-125381306D01*
X122087369Y-125405829D01*
X122014577Y-125442319D01*
X121962521Y-125486808D01*
X121937096Y-125535333D01*
X121936019Y-125542027D01*
X121859811Y-125542027D01*
X121864810Y-125528834D01*
X121914232Y-125454031D01*
X121984006Y-125395478D01*
X122077994Y-125350774D01*
X122200059Y-125317512D01*
X122206354Y-125316230D01*
X122289247Y-125296789D01*
X122373088Y-125272564D01*
X122443261Y-125247901D01*
X122460283Y-125240699D01*
X122498948Y-125224189D01*
X122535847Y-125211438D01*
X122576803Y-125201541D01*
X122627633Y-125193591D01*
X122694159Y-125186684D01*
X122782200Y-125179913D01*
X122897576Y-125172373D01*
X122900620Y-125172182D01*
X123073762Y-125173776D01*
X123241715Y-125199139D01*
X123394996Y-125246664D01*
X123430406Y-125262048D01*
X123484360Y-125285760D01*
X123528588Y-125302877D01*
X123550000Y-125308965D01*
X123581775Y-125313622D01*
X123629693Y-125321406D01*
X123643422Y-125323733D01*
X123711845Y-125335448D01*
X123722611Y-125256905D01*
X123736274Y-125189560D01*
X123755650Y-125152868D01*
X123782651Y-125144366D01*
X123803940Y-125152108D01*
G37*
%TD*%
M02*
