%TF.GenerationSoftware,KiCad,Pcbnew,9.0.7*%
%TF.CreationDate,2026-03-09T21:31:05+01:00*%
%TF.ProjectId,LedScreen,4c656453-6372-4656-956e-2e6b69636164,rev?*%
%TF.SameCoordinates,Original*%
%TF.FileFunction,Copper,L1,Top*%
%TF.FilePolarity,Positive*%
%FSLAX46Y46*%
G04 Gerber Fmt 4.6, Leading zero omitted, Abs format (unit mm)*
G04 Created by KiCad (PCBNEW 9.0.7) date 2026-03-09 21:31:05*
%MOMM*%
%LPD*%
G01*
G04 APERTURE LIST*
G04 Aperture macros list*
%AMRoundRect*
0 Rectangle with rounded corners*
0 $1 Rounding radius*
0 $2 $3 $4 $5 $6 $7 $8 $9 X,Y pos of 4 corners*
0 Add a 4 corners polygon primitive as box body*
4,1,4,$2,$3,$4,$5,$6,$7,$8,$9,$2,$3,0*
0 Add four circle primitives for the rounded corners*
1,1,$1+$1,$2,$3*
1,1,$1+$1,$4,$5*
1,1,$1+$1,$6,$7*
1,1,$1+$1,$8,$9*
0 Add four rect primitives between the rounded corners*
20,1,$1+$1,$2,$3,$4,$5,0*
20,1,$1+$1,$4,$5,$6,$7,0*
20,1,$1+$1,$6,$7,$8,$9,0*
20,1,$1+$1,$8,$9,$2,$3,0*%
%AMFreePoly0*
4,1,37,0.603843,0.796157,0.639018,0.796157,0.711114,0.766294,0.766294,0.711114,0.796157,0.639018,0.796157,0.603843,0.800000,0.600000,0.800000,-0.600000,0.796157,-0.603843,0.796157,-0.639018,0.766294,-0.711114,0.711114,-0.766294,0.639018,-0.796157,0.603843,-0.796157,0.600000,-0.800000,0.000000,-0.800000,0.000000,-0.796148,-0.078414,-0.796148,-0.232228,-0.765552,-0.377117,-0.705537,
-0.507515,-0.618408,-0.618408,-0.507515,-0.705537,-0.377117,-0.765552,-0.232228,-0.796148,-0.078414,-0.796148,0.078414,-0.765552,0.232228,-0.705537,0.377117,-0.618408,0.507515,-0.507515,0.618408,-0.377117,0.705537,-0.232228,0.765552,-0.078414,0.796148,0.000000,0.796148,0.000000,0.800000,0.600000,0.800000,0.603843,0.796157,0.603843,0.796157,$1*%
%AMFreePoly1*
4,1,37,0.000000,0.796148,0.078414,0.796148,0.232228,0.765552,0.377117,0.705537,0.507515,0.618408,0.618408,0.507515,0.705537,0.377117,0.765552,0.232228,0.796148,0.078414,0.796148,-0.078414,0.765552,-0.232228,0.705537,-0.377117,0.618408,-0.507515,0.507515,-0.618408,0.377117,-0.705537,0.232228,-0.765552,0.078414,-0.796148,0.000000,-0.796148,0.000000,-0.800000,-0.600000,-0.800000,
-0.603843,-0.796157,-0.639018,-0.796157,-0.711114,-0.766294,-0.766294,-0.711114,-0.796157,-0.639018,-0.796157,-0.603843,-0.800000,-0.600000,-0.800000,0.600000,-0.796157,0.603843,-0.796157,0.639018,-0.766294,0.711114,-0.711114,0.766294,-0.639018,0.796157,-0.603843,0.796157,-0.600000,0.800000,0.000000,0.800000,0.000000,0.796148,0.000000,0.796148,$1*%
G04 Aperture macros list end*
%TA.AperFunction,SMDPad,CuDef*%
%ADD10RoundRect,0.250000X-0.625000X0.312500X-0.625000X-0.312500X0.625000X-0.312500X0.625000X0.312500X0*%
%TD*%
%TA.AperFunction,SMDPad,CuDef*%
%ADD11RoundRect,0.250000X0.400000X2.000000X-0.400000X2.000000X-0.400000X-2.000000X0.400000X-2.000000X0*%
%TD*%
%TA.AperFunction,SMDPad,CuDef*%
%ADD12RoundRect,0.250000X0.650000X1.700000X-0.650000X1.700000X-0.650000X-1.700000X0.650000X-1.700000X0*%
%TD*%
%TA.AperFunction,ComponentPad*%
%ADD13R,1.700000X1.700000*%
%TD*%
%TA.AperFunction,SMDPad,CuDef*%
%ADD14R,0.700000X1.200000*%
%TD*%
%TA.AperFunction,SMDPad,CuDef*%
%ADD15R,1.000000X0.800000*%
%TD*%
%TA.AperFunction,SMDPad,CuDef*%
%ADD16R,1.000000X1.200000*%
%TD*%
%TA.AperFunction,SMDPad,CuDef*%
%ADD17R,1.000000X2.800000*%
%TD*%
%TA.AperFunction,SMDPad,CuDef*%
%ADD18R,1.300000X1.900000*%
%TD*%
%TA.AperFunction,ComponentPad*%
%ADD19C,1.700000*%
%TD*%
%TA.AperFunction,SMDPad,CuDef*%
%ADD20RoundRect,0.250000X2.000000X-0.400000X2.000000X0.400000X-2.000000X0.400000X-2.000000X-0.400000X0*%
%TD*%
%TA.AperFunction,SMDPad,CuDef*%
%ADD21RoundRect,0.250000X1.700000X-0.650000X1.700000X0.650000X-1.700000X0.650000X-1.700000X-0.650000X0*%
%TD*%
%TA.AperFunction,SMDPad,CuDef*%
%ADD22RoundRect,0.250000X-0.400000X-2.000000X0.400000X-2.000000X0.400000X2.000000X-0.400000X2.000000X0*%
%TD*%
%TA.AperFunction,SMDPad,CuDef*%
%ADD23RoundRect,0.250000X-0.650000X-1.700000X0.650000X-1.700000X0.650000X1.700000X-0.650000X1.700000X0*%
%TD*%
%TA.AperFunction,SMDPad,CuDef*%
%ADD24RoundRect,0.250000X-2.000000X0.400000X-2.000000X-0.400000X2.000000X-0.400000X2.000000X0.400000X0*%
%TD*%
%TA.AperFunction,SMDPad,CuDef*%
%ADD25RoundRect,0.250000X-1.700000X0.650000X-1.700000X-0.650000X1.700000X-0.650000X1.700000X0.650000X0*%
%TD*%
%TA.AperFunction,SMDPad,CuDef*%
%ADD26RoundRect,0.250000X-0.262500X-0.450000X0.262500X-0.450000X0.262500X0.450000X-0.262500X0.450000X0*%
%TD*%
%TA.AperFunction,ComponentPad*%
%ADD27RoundRect,0.250000X-0.750000X-0.750000X0.750000X-0.750000X0.750000X0.750000X-0.750000X0.750000X0*%
%TD*%
%TA.AperFunction,ComponentPad*%
%ADD28C,2.000000*%
%TD*%
%TA.AperFunction,ComponentPad*%
%ADD29C,1.600000*%
%TD*%
%TA.AperFunction,ComponentPad*%
%ADD30R,1.600000X1.600000*%
%TD*%
%TA.AperFunction,ComponentPad*%
%ADD31RoundRect,0.200000X0.600000X-0.600000X0.600000X0.600000X-0.600000X0.600000X-0.600000X-0.600000X0*%
%TD*%
%TA.AperFunction,ComponentPad*%
%ADD32FreePoly0,90.000000*%
%TD*%
%TA.AperFunction,ComponentPad*%
%ADD33FreePoly1,90.000000*%
%TD*%
%TA.AperFunction,SMDPad,CuDef*%
%ADD34RoundRect,0.250000X-0.475000X0.250000X-0.475000X-0.250000X0.475000X-0.250000X0.475000X0.250000X0*%
%TD*%
%TA.AperFunction,SMDPad,CuDef*%
%ADD35RoundRect,0.250000X0.325000X0.650000X-0.325000X0.650000X-0.325000X-0.650000X0.325000X-0.650000X0*%
%TD*%
%TA.AperFunction,ViaPad*%
%ADD36C,0.800000*%
%TD*%
%TA.AperFunction,ViaPad*%
%ADD37C,0.600000*%
%TD*%
%TA.AperFunction,Conductor*%
%ADD38C,0.250000*%
%TD*%
%TA.AperFunction,Conductor*%
%ADD39C,0.750000*%
%TD*%
G04 APERTURE END LIST*
D10*
%TO.P,R5,1*%
%TO.N,Net-(U1-B4)*%
X142580000Y-121412500D03*
%TO.P,R5,2*%
%TO.N,LED4_DATA*%
X142580000Y-124337500D03*
%TD*%
D11*
%TO.P,J_GPIO13,1,Pin_1*%
%TO.N,GND*%
X162225000Y-70990000D03*
%TO.P,J_GPIO13,2,Pin_2*%
%TO.N,GPIO2*%
X159725000Y-70990000D03*
%TO.P,J_GPIO13,3,Pin_3*%
%TO.N,+3V3*%
X157225000Y-70990000D03*
D12*
%TO.P,J_GPIO13,MP*%
%TO.N,N/C*%
X165425000Y-64190000D03*
X154025000Y-64190000D03*
%TD*%
D10*
%TO.P,R8,1*%
%TO.N,Net-(U1-B7)*%
X132650000Y-121412500D03*
%TO.P,R8,2*%
%TO.N,LED7_DATA*%
X132650000Y-124337500D03*
%TD*%
D13*
%TO.P,,1,Pin_1*%
%TO.N,GND*%
X90984651Y-78635000D03*
%TD*%
D14*
%TO.P,J1,1,DAT2*%
%TO.N,unconnected-(J1-DAT2-Pad1)*%
X108000000Y-77920000D03*
%TO.P,J1,2,DAT3/CD*%
%TO.N,SD_CS*%
X109100000Y-77920000D03*
%TO.P,J1,3,CMD*%
%TO.N,SD_MOSI*%
X110200000Y-77920000D03*
%TO.P,J1,4,VDD*%
%TO.N,+3V3*%
X111300000Y-77920000D03*
%TO.P,J1,5,CLK*%
%TO.N,SD_SCK*%
X112400000Y-77920000D03*
%TO.P,J1,6,VSS*%
%TO.N,GND*%
X113500000Y-77920000D03*
%TO.P,J1,7,DAT0*%
%TO.N,SD_MISO*%
X114600000Y-77920000D03*
%TO.P,J1,8,DAT1*%
%TO.N,unconnected-(J1-DAT1-Pad8)*%
X115700000Y-77920000D03*
%TO.P,J1,9,DET_B*%
%TO.N,unconnected-(J1-DET_B-Pad9)*%
X116650000Y-77920000D03*
D15*
%TO.P,J1,10,DET_A*%
%TO.N,unconnected-(J1-DET_A-Pad10)*%
X117600000Y-67420000D03*
D16*
%TO.P,J1,11,SHIELD*%
%TO.N,GND*%
X117600000Y-73620000D03*
D17*
X117600000Y-63270000D03*
D16*
X106450000Y-77920000D03*
D18*
X104100000Y-62820000D03*
%TD*%
D13*
%TO.P,J_TP_PWR1,1,Pin_1*%
%TO.N,GND*%
X89555000Y-78635000D03*
D19*
%TO.P,J_TP_PWR1,2,Pin_2*%
%TO.N,+3V3*%
X89555000Y-81175000D03*
%TO.P,J_TP_PWR1,3,Pin_3*%
%TO.N,+5V*%
X89555000Y-83715000D03*
%TD*%
D13*
%TO.P,GPIO1,1,Pin_1*%
%TO.N,AGND*%
X104915000Y-114305000D03*
D19*
%TO.P,GPIO1,2,Pin_2*%
%TO.N,ADC_VREF*%
X107455000Y-114305000D03*
%TO.P,GPIO1,3,Pin_3*%
%TO.N,+3V3*%
X109995000Y-114305000D03*
%TO.P,GPIO1,4,Pin_4*%
%TO.N,GND*%
X112535000Y-114305000D03*
%TO.P,GPIO1,5,Pin_5*%
%TO.N,RUN*%
X115075000Y-114305000D03*
%TO.P,GPIO1,6,Pin_6*%
%TO.N,3V3_EN*%
X117615000Y-114305000D03*
%TO.P,GPIO1,7,Pin_7*%
%TO.N,GPIO6*%
X120155000Y-114305000D03*
%TO.P,GPIO1,8,Pin_8*%
%TO.N,GPIO7*%
X122695000Y-114305000D03*
%TO.P,GPIO1,9,Pin_9*%
%TO.N,GPIO8*%
X125235000Y-114305000D03*
%TO.P,GPIO1,10,Pin_10*%
%TO.N,GPIO9*%
X127775000Y-114305000D03*
%TO.P,GPIO1,11,Pin_11*%
%TO.N,GPIO10*%
X130315000Y-114305000D03*
%TO.P,GPIO1,12,Pin_12*%
%TO.N,GPIO11*%
X132855000Y-114305000D03*
%TO.P,GPIO1,13,Pin_13*%
%TO.N,GPIO16*%
X135395000Y-114305000D03*
%TD*%
D20*
%TO.P,J_LED1,1,Pin_1*%
%TO.N,GND*%
X164432857Y-126540000D03*
%TO.P,J_LED1,2,Pin_2*%
%TO.N,LED1_DATA*%
X164432857Y-124040000D03*
%TO.P,J_LED1,3,Pin_3*%
%TO.N,LED_PIN3*%
X164432857Y-121540000D03*
D21*
%TO.P,J_LED1,MP*%
%TO.N,N/C*%
X171232857Y-129740000D03*
X171232857Y-118340000D03*
%TD*%
D10*
%TO.P,R7,1*%
%TO.N,Net-(U1-B6)*%
X135960000Y-121412500D03*
%TO.P,R7,2*%
%TO.N,LED6_DATA*%
X135960000Y-124337500D03*
%TD*%
D11*
%TO.P,J_GPIO15,1,Pin_1*%
%TO.N,GND*%
X147630000Y-70975000D03*
%TO.P,J_GPIO15,2,Pin_2*%
%TO.N,GPIO4*%
X145130000Y-70975000D03*
%TO.P,J_GPIO15,3,Pin_3*%
%TO.N,+3V3*%
X142630000Y-70975000D03*
D12*
%TO.P,J_GPIO15,MP*%
%TO.N,N/C*%
X150830000Y-64175000D03*
X139430000Y-64175000D03*
%TD*%
D22*
%TO.P,J_LED7,1,Pin_1*%
%TO.N,GND*%
X92115000Y-135395000D03*
%TO.P,J_LED7,2,Pin_2*%
%TO.N,LED7_DATA*%
X94615000Y-135395000D03*
%TO.P,J_LED7,3,Pin_3*%
%TO.N,LED_PIN3*%
X97115000Y-135395000D03*
D23*
%TO.P,J_LED7,MP*%
%TO.N,N/C*%
X88915000Y-142195000D03*
X100315000Y-142195000D03*
%TD*%
D22*
%TO.P,J_LED5,1,Pin_1*%
%TO.N,GND*%
X120969286Y-135395000D03*
%TO.P,J_LED5,2,Pin_2*%
%TO.N,LED5_DATA*%
X123469286Y-135395000D03*
%TO.P,J_LED5,3,Pin_3*%
%TO.N,LED_PIN3*%
X125969286Y-135395000D03*
D23*
%TO.P,J_LED5,MP*%
%TO.N,N/C*%
X117769286Y-142195000D03*
X129169286Y-142195000D03*
%TD*%
D10*
%TO.P,R4,1*%
%TO.N,Net-(U1-B3)*%
X145890000Y-121412500D03*
%TO.P,R4,2*%
%TO.N,LED3_DATA*%
X145890000Y-124337500D03*
%TD*%
D24*
%TO.P,J_PWR1,1,Pin_1*%
%TO.N,+5V*%
X96875000Y-66525000D03*
%TO.P,J_PWR1,2,Pin_2*%
%TO.N,GND*%
X96875000Y-69025000D03*
%TO.P,J_PWR1,3,Pin_3*%
%TO.N,unconnected-(J_PWR1-Pin_3-Pad3)*%
X96875000Y-71525000D03*
D25*
%TO.P,J_PWR1,MP*%
%TO.N,N/C*%
X90075000Y-63325000D03*
X90075000Y-74725000D03*
%TD*%
D22*
%TO.P,J_LED3,1,Pin_1*%
%TO.N,GND*%
X149823571Y-135395000D03*
%TO.P,J_LED3,2,Pin_2*%
%TO.N,LED3_DATA*%
X152323571Y-135395000D03*
%TO.P,J_LED3,3,Pin_3*%
%TO.N,LED_PIN3*%
X154823571Y-135395000D03*
D23*
%TO.P,J_LED3,MP*%
%TO.N,N/C*%
X146623571Y-142195000D03*
X158023571Y-142195000D03*
%TD*%
D26*
%TO.P,R_SYNC_SER1,1*%
%TO.N,SYNC_OUT_DRV*%
X106012500Y-127275000D03*
%TO.P,R_SYNC_SER1,2*%
%TO.N,SYNC_OUT*%
X107837500Y-127275000D03*
%TD*%
D27*
%TO.P,C2,1*%
%TO.N,GND*%
X95055000Y-80456969D03*
D28*
%TO.P,C2,2*%
%TO.N,+5V*%
X100055000Y-80456969D03*
%TD*%
D22*
%TO.P,J_LED4,1,Pin_1*%
%TO.N,GND*%
X135396429Y-135395000D03*
%TO.P,J_LED4,2,Pin_2*%
%TO.N,LED4_DATA*%
X137896429Y-135395000D03*
%TO.P,J_LED4,3,Pin_3*%
%TO.N,LED_PIN3*%
X140396429Y-135395000D03*
D23*
%TO.P,J_LED4,MP*%
%TO.N,N/C*%
X132196429Y-142195000D03*
X143596429Y-142195000D03*
%TD*%
D29*
%TO.P,U1,1,A->B*%
%TO.N,+5V*%
X144895000Y-87375000D03*
%TO.P,U1,2,A0*%
%TO.N,T_OUT0*%
X144895000Y-89915000D03*
%TO.P,U1,3,A1*%
%TO.N,T_OUT1*%
X144895000Y-92455000D03*
%TO.P,U1,4,A2*%
%TO.N,T_OUT2*%
X144895000Y-94995000D03*
%TO.P,U1,5,A3*%
%TO.N,T_OUT3*%
X144895000Y-97535000D03*
%TO.P,U1,6,A4*%
%TO.N,T_OUT4*%
X144895000Y-100075000D03*
%TO.P,U1,7,A5*%
%TO.N,T_OUT5*%
X144895000Y-102615000D03*
%TO.P,U1,8,A6*%
%TO.N,T_OUT6*%
X144895000Y-105155000D03*
%TO.P,U1,9,A7*%
%TO.N,T_OUT7*%
X144895000Y-107695000D03*
D30*
%TO.P,U1,10,GND*%
%TO.N,GND*%
X144895000Y-110235000D03*
D29*
%TO.P,U1,11,B7*%
%TO.N,Net-(U1-B7)*%
X152515000Y-110235000D03*
%TO.P,U1,12,B6*%
%TO.N,Net-(U1-B6)*%
X152515000Y-107695000D03*
%TO.P,U1,13,B5*%
%TO.N,Net-(U1-B5)*%
X152515000Y-105155000D03*
%TO.P,U1,14,B4*%
%TO.N,Net-(U1-B4)*%
X152515000Y-102615000D03*
%TO.P,U1,15,B3*%
%TO.N,Net-(U1-B3)*%
X152515000Y-100075000D03*
%TO.P,U1,16,B2*%
%TO.N,Net-(U1-B2)*%
X152515000Y-97535000D03*
%TO.P,U1,17,B1*%
%TO.N,Net-(U1-B1)*%
X152515000Y-94995000D03*
%TO.P,U1,18,B0*%
%TO.N,Net-(U1-B0)*%
X152515000Y-92455000D03*
D30*
%TO.P,U1,19,CE*%
%TO.N,GND*%
X152515000Y-89915000D03*
D29*
%TO.P,U1,20,VCC*%
%TO.N,+5V*%
X152515000Y-87375000D03*
%TD*%
D13*
%TO.P,V2,1,Pin_1*%
%TO.N,+5V*%
X89122075Y-130882786D03*
%TD*%
%TO.P,J_PWRA1,1,Pin_1*%
%TO.N,+5V*%
X106925000Y-82570000D03*
D19*
%TO.P,J_PWRA1,2,Pin_2*%
%TO.N,GND*%
X109465000Y-82570000D03*
%TO.P,J_PWRA1,3,Pin_3*%
%TO.N,+5V*%
X112005000Y-82570000D03*
%TO.P,J_PWRA1,4,Pin_4*%
%TO.N,GND*%
X114545000Y-82570000D03*
%TO.P,J_PWRA1,5,Pin_5*%
%TO.N,+5V*%
X117085000Y-82570000D03*
%TO.P,J_PWRA1,6,Pin_6*%
%TO.N,GND*%
X119625000Y-82570000D03*
%TO.P,J_PWRA1,7,Pin_7*%
%TO.N,+5V*%
X122165000Y-82570000D03*
%TO.P,J_PWRA1,8,Pin_8*%
%TO.N,GND*%
X124705000Y-82570000D03*
%TO.P,J_PWRA1,9,Pin_9*%
%TO.N,+5V*%
X127245000Y-82570000D03*
%TO.P,J_PWRA1,10,Pin_10*%
%TO.N,GND*%
X129785000Y-82570000D03*
%TD*%
D13*
%TO.P,V5,1,Pin_1*%
%TO.N,LED_PIN3*%
X89125611Y-133669087D03*
%TD*%
D10*
%TO.P,R1,1*%
%TO.N,Net-(U1-B0)*%
X155820000Y-121412500D03*
%TO.P,R1,2*%
%TO.N,LED0_DATA*%
X155820000Y-124337500D03*
%TD*%
%TO.P,R6,1*%
%TO.N,Net-(U1-B5)*%
X139270000Y-121412500D03*
%TO.P,R6,2*%
%TO.N,LED5_DATA*%
X139270000Y-124337500D03*
%TD*%
D13*
%TO.P,J_SYNC_IN1,1,Pin_1*%
%TO.N,GND*%
X97565000Y-115685000D03*
D19*
%TO.P,J_SYNC_IN1,2,Pin_2*%
%TO.N,SYNC_IN*%
X97565000Y-113145000D03*
%TD*%
%TO.P,,2,Pin_2*%
%TO.N,+3V3*%
X90984651Y-81175000D03*
%TD*%
D20*
%TO.P,J_LED0,1,Pin_1*%
%TO.N,GND*%
X164432857Y-111612857D03*
%TO.P,J_LED0,2,Pin_2*%
%TO.N,LED0_DATA*%
X164432857Y-109112857D03*
%TO.P,J_LED0,3,Pin_3*%
%TO.N,LED_PIN3*%
X164432857Y-106612857D03*
D21*
%TO.P,J_LED0,MP*%
%TO.N,N/C*%
X171232857Y-114812857D03*
X171232857Y-103412857D03*
%TD*%
D10*
%TO.P,R2,1*%
%TO.N,Net-(U1-B1)*%
X152510000Y-121412500D03*
%TO.P,R2,2*%
%TO.N,LED1_DATA*%
X152510000Y-124337500D03*
%TD*%
D31*
%TO.P,A1,1,GPIO0*%
%TO.N,T_OUT0*%
X88827707Y-106906070D03*
D29*
%TO.P,A1,2,GPIO1*%
%TO.N,T_OUT1*%
X91367707Y-106906070D03*
D32*
%TO.P,A1,3,GND*%
%TO.N,GND*%
X93907707Y-106906070D03*
D29*
%TO.P,A1,4,GPIO2*%
%TO.N,GPIO2*%
X96447707Y-106906070D03*
%TO.P,A1,5,GPIO3*%
%TO.N,GPIO3*%
X98987707Y-106906070D03*
%TO.P,A1,6,GPIO4*%
%TO.N,GPIO4*%
X101527707Y-106906070D03*
%TO.P,A1,7,GPIO5*%
%TO.N,GPIO5*%
X104067707Y-106906070D03*
D32*
%TO.P,A1,8,GND*%
%TO.N,GND*%
X106607707Y-106906070D03*
D29*
%TO.P,A1,9,GPIO6*%
%TO.N,GPIO6*%
X109147707Y-106906070D03*
%TO.P,A1,10,GPIO7*%
%TO.N,GPIO7*%
X111687707Y-106906070D03*
%TO.P,A1,11,GPIO8*%
%TO.N,GPIO8*%
X114227707Y-106906070D03*
%TO.P,A1,12,GPIO9*%
%TO.N,GPIO9*%
X116767707Y-106906070D03*
D32*
%TO.P,A1,13,GND*%
%TO.N,GND*%
X119307707Y-106906070D03*
D29*
%TO.P,A1,14,GPIO10*%
%TO.N,GPIO10*%
X121847707Y-106906070D03*
%TO.P,A1,15,GPIO11*%
%TO.N,GPIO11*%
X124387707Y-106906070D03*
%TO.P,A1,16,GPIO12*%
%TO.N,T_OUT4*%
X126927707Y-106906070D03*
%TO.P,A1,17,GPIO13*%
%TO.N,T_OUT5*%
X129467707Y-106906070D03*
D32*
%TO.P,A1,18,GND*%
%TO.N,GND*%
X132007707Y-106906070D03*
D29*
%TO.P,A1,19,GPIO14*%
%TO.N,T_OUT6*%
X134547707Y-106906070D03*
%TO.P,A1,20,GPIO15*%
%TO.N,T_OUT7*%
X137087707Y-106906070D03*
%TO.P,A1,21,GPIO16*%
%TO.N,GPIO16*%
X137087707Y-89126070D03*
%TO.P,A1,22,GPIO17*%
%TO.N,SYNC_OUT_DRV*%
X134547707Y-89126070D03*
D33*
%TO.P,A1,23,GND*%
%TO.N,GND*%
X132007707Y-89126070D03*
D29*
%TO.P,A1,24,GPIO18*%
%TO.N,SD_SCK*%
X129467707Y-89126070D03*
%TO.P,A1,25,GPIO19*%
%TO.N,SD_MOSI*%
X126927707Y-89126070D03*
%TO.P,A1,26,GPIO20*%
%TO.N,SD_MISO*%
X124387707Y-89126070D03*
%TO.P,A1,27,GPIO21*%
%TO.N,SD_CS*%
X121847707Y-89126070D03*
D33*
%TO.P,A1,28,GND*%
%TO.N,GND*%
X119307707Y-89126070D03*
D29*
%TO.P,A1,29,GPIO22*%
%TO.N,SYNC_IN*%
X116767707Y-89126070D03*
%TO.P,A1,30,RUN*%
%TO.N,RUN*%
X114227707Y-89126070D03*
%TO.P,A1,31,GPIO26_ADC0*%
%TO.N,T_OUT2*%
X111687707Y-89126070D03*
%TO.P,A1,32,GPIO27_ADC1*%
%TO.N,MODE*%
X109147707Y-89126070D03*
D33*
%TO.P,A1,33,AGND*%
%TO.N,AGND*%
X106607707Y-89126070D03*
D29*
%TO.P,A1,34,GPIO28_ADC2*%
%TO.N,T_OUT3*%
X104067707Y-89126070D03*
%TO.P,A1,35,ADC_VREF*%
%TO.N,ADC_VREF*%
X101527707Y-89126070D03*
%TO.P,A1,36,3V3*%
%TO.N,+3V3*%
X98987707Y-89126070D03*
%TO.P,A1,37,3V3_EN*%
%TO.N,3V3_EN*%
X96447707Y-89126070D03*
D33*
%TO.P,A1,38,GND*%
%TO.N,GND*%
X93907707Y-89126070D03*
D29*
%TO.P,A1,39,VSYS*%
%TO.N,+5V*%
X91367707Y-89126070D03*
%TO.P,A1,40,VBUS*%
%TO.N,unconnected-(A1-VBUS-Pad40)*%
X88827707Y-89126070D03*
%TD*%
D22*
%TO.P,J_LED6,1,Pin_1*%
%TO.N,GND*%
X106542143Y-135395000D03*
%TO.P,J_LED6,2,Pin_2*%
%TO.N,LED6_DATA*%
X109042143Y-135395000D03*
%TO.P,J_LED6,3,Pin_3*%
%TO.N,LED_PIN3*%
X111542143Y-135395000D03*
D23*
%TO.P,J_LED6,MP*%
%TO.N,N/C*%
X103342143Y-142195000D03*
X114742143Y-142195000D03*
%TD*%
D26*
%TO.P,R_SYNC_PD1,1*%
%TO.N,GND*%
X106012500Y-123325000D03*
%TO.P,R_SYNC_PD1,2*%
%TO.N,SYNC_IN*%
X107837500Y-123325000D03*
%TD*%
D34*
%TO.P,C1,1*%
%TO.N,+5V*%
X155555000Y-87575000D03*
%TO.P,C1,2*%
%TO.N,GND*%
X155555000Y-89475000D03*
%TD*%
D10*
%TO.P,R3,1*%
%TO.N,Net-(U1-B2)*%
X149200000Y-121412500D03*
%TO.P,R3,2*%
%TO.N,LED2_DATA*%
X149200000Y-124337500D03*
%TD*%
D13*
%TO.P,J_SYNC_OUT1,1,Pin_1*%
%TO.N,SYNC_OUT*%
X163350000Y-97325000D03*
D19*
%TO.P,J_SYNC_OUT1,2,Pin_2*%
%TO.N,GND*%
X163350000Y-99865000D03*
%TD*%
D13*
%TO.P,J_MODE1,1,Pin_1*%
%TO.N,GND*%
X89475000Y-127290000D03*
D19*
%TO.P,J_MODE1,2,Pin_2*%
%TO.N,MODE*%
X89475000Y-124750000D03*
%TO.P,J_MODE1,3,Pin_3*%
%TO.N,+3V3*%
X89475000Y-122210000D03*
%TD*%
D13*
%TO.P,J_TP_SIG1,1,Pin_1*%
%TO.N,SYNC_OUT*%
X96945000Y-127350000D03*
D19*
%TO.P,J_TP_SIG1,2,Pin_2*%
%TO.N,LED0_DATA*%
X96945000Y-124810000D03*
%TO.P,J_TP_SIG1,3,Pin_3*%
%TO.N,T_OUT0*%
X96945000Y-122270000D03*
%TD*%
D22*
%TO.P,J_LED2,1,Pin_1*%
%TO.N,GND*%
X164250714Y-135395000D03*
%TO.P,J_LED2,2,Pin_2*%
%TO.N,LED2_DATA*%
X166750714Y-135395000D03*
%TO.P,J_LED2,3,Pin_3*%
%TO.N,LED_PIN3*%
X169250714Y-135395000D03*
D23*
%TO.P,J_LED2,MP*%
%TO.N,N/C*%
X161050714Y-142195000D03*
X172450714Y-142195000D03*
%TD*%
D20*
%TO.P,J_GPIO14,1,Pin_1*%
%TO.N,GND*%
X164432857Y-81710000D03*
%TO.P,J_GPIO14,2,Pin_2*%
%TO.N,GPIO3*%
X164432857Y-79210000D03*
%TO.P,J_GPIO14,3,Pin_3*%
%TO.N,+3V3*%
X164432857Y-76710000D03*
D21*
%TO.P,J_GPIO14,MP*%
%TO.N,N/C*%
X171232857Y-84910000D03*
X171232857Y-73510000D03*
%TD*%
D19*
%TO.P,,3,Pin_3*%
%TO.N,+5V*%
X90984651Y-83715000D03*
%TD*%
D26*
%TO.P,R_MODE_PD1,1*%
%TO.N,GND*%
X106012500Y-119375000D03*
%TO.P,R_MODE_PD1,2*%
%TO.N,MODE*%
X107837500Y-119375000D03*
%TD*%
D11*
%TO.P,J_GPIO16,1,Pin_1*%
%TO.N,GND*%
X133035000Y-71005000D03*
%TO.P,J_GPIO16,2,Pin_2*%
%TO.N,GPIO5*%
X130535000Y-71005000D03*
%TO.P,J_GPIO16,3,Pin_3*%
%TO.N,+3V3*%
X128035000Y-71005000D03*
D12*
%TO.P,J_GPIO16,MP*%
%TO.N,N/C*%
X136235000Y-64205000D03*
X124835000Y-64205000D03*
%TD*%
D35*
%TO.P,C3,1*%
%TO.N,GND*%
X100230000Y-63280000D03*
%TO.P,C3,2*%
%TO.N,+5V*%
X97280000Y-63280000D03*
%TD*%
D36*
%TO.N,+5V*%
X146447000Y-128500000D03*
X140838000Y-128500000D03*
D37*
%TO.N,GND*%
X164250714Y-135395000D03*
X106012500Y-123325000D03*
X106012500Y-119375000D03*
X164432857Y-81710000D03*
X120969286Y-135395000D03*
X117600000Y-73620000D03*
X106450000Y-77920000D03*
X164432857Y-111612857D03*
X162225000Y-70990000D03*
X100230000Y-63280000D03*
X113500000Y-77920000D03*
X149823571Y-135395000D03*
X104100000Y-62820000D03*
X133035000Y-71005000D03*
X164432857Y-126540000D03*
X92115000Y-135395000D03*
X117600000Y-63270000D03*
X135396429Y-135395000D03*
X155555000Y-89475000D03*
X106542143Y-135395000D03*
X147630000Y-70975000D03*
%TO.N,SD_CS*%
X120939000Y-81186000D03*
X120939000Y-86324000D03*
%TO.N,SD_MISO*%
X123500000Y-79199645D03*
X123500000Y-86324000D03*
%TO.N,LED0_DATA*%
X160425000Y-122500000D03*
X158553815Y-122478815D03*
%TO.N,MODE*%
X108000000Y-118425000D03*
X99000000Y-98000000D03*
X92500000Y-123500000D03*
X94351000Y-123500000D03*
X96782674Y-109717326D03*
X98000000Y-104704070D03*
X107898744Y-87898744D03*
X99000000Y-95500000D03*
X108000000Y-116575000D03*
%TO.N,SYNC_IN*%
X109200087Y-104388620D03*
X100000000Y-118425000D03*
X99260847Y-111239153D03*
X100000000Y-116575000D03*
X108000000Y-108000000D03*
%TO.N,SYNC_OUT*%
X107837500Y-128926000D03*
X158575000Y-97000000D03*
X160425000Y-97000000D03*
X107837500Y-127275000D03*
%TO.N,T_OUT0*%
X91000000Y-109000000D03*
X95000000Y-118500000D03*
X90895985Y-105395985D03*
X109500000Y-97355270D03*
X113500000Y-97355270D03*
X119581712Y-97355270D03*
X92500000Y-118500000D03*
X121063706Y-97355270D03*
%TO.N,T_OUT2*%
X117000000Y-90875000D03*
X139000000Y-90339070D03*
X122907743Y-90705335D03*
%TO.N,T_OUT1*%
X109239153Y-98239153D03*
X119552860Y-98239153D03*
X121063707Y-98239153D03*
X113500000Y-98239153D03*
%TO.N,T_OUT3*%
X138680000Y-91320000D03*
X123000000Y-91500000D03*
X115353707Y-91353707D03*
%TO.N,SYNC_OUT_DRV*%
X141000000Y-103875000D03*
X141041942Y-107500000D03*
%TO.N,ADC_VREF*%
X103797211Y-102797211D03*
X102175003Y-97980270D03*
X106008883Y-109624999D03*
X102173193Y-94173193D03*
%TO.N,RUN*%
X109825087Y-105210385D03*
X114191942Y-92191942D03*
X109438506Y-108718563D03*
%TO.N,AGND*%
X100500000Y-96730270D03*
X100401707Y-104704070D03*
X102000000Y-109625000D03*
X100500000Y-98000000D03*
%TO.N,3V3_EN*%
X101375000Y-97980270D03*
X101360693Y-94985693D03*
X101375000Y-104704070D03*
X107000000Y-110000000D03*
%TO.N,SD_MOSI*%
X126000000Y-80500000D03*
%TO.N,SD_SCK*%
X128500000Y-79824645D03*
%TO.N,+3V3*%
X97345926Y-82790000D03*
X108011554Y-102511554D03*
X106297211Y-100297211D03*
X119000000Y-76500000D03*
X102800003Y-99000000D03*
X116500000Y-75500000D03*
X110063769Y-110936231D03*
X103000000Y-81645000D03*
X97404074Y-85404074D03*
X115110640Y-109445119D03*
X96000000Y-99000000D03*
X102500000Y-83500000D03*
%TO.N,GPIO4*%
X136300003Y-78500000D03*
X136300003Y-80500000D03*
%TO.N,GPIO5*%
X135500000Y-80500000D03*
X135500000Y-78500000D03*
%TO.N,GPIO3*%
X152500000Y-81500000D03*
X151095926Y-82904074D03*
%TO.N,GPIO2*%
X151934313Y-80934313D03*
X150433786Y-82455103D03*
%TD*%
D38*
%TO.N,LED6_DATA*%
X109042143Y-135395000D02*
X109042143Y-133145000D01*
X143417000Y-130560430D02*
X143417000Y-125917000D01*
X109042143Y-133145000D02*
X110736143Y-131451000D01*
X110736143Y-131451000D02*
X142526430Y-131451000D01*
X142526430Y-131451000D02*
X143417000Y-130560430D01*
X143417000Y-125917000D02*
X143269905Y-125769905D01*
X143269905Y-125769905D02*
X135960000Y-125769905D01*
X135960000Y-125769905D02*
X135960000Y-124337500D01*
D39*
%TO.N,+5V*%
X115609000Y-84046000D02*
X117085000Y-82570000D01*
X130315000Y-79500000D02*
X149000000Y-79500000D01*
X155500000Y-87520000D02*
X155555000Y-87575000D01*
X100055000Y-81871182D02*
X98211182Y-83715000D01*
X106925000Y-82570000D02*
X108401000Y-84046000D01*
X132162306Y-128500000D02*
X129796000Y-126133694D01*
X128500000Y-117500000D02*
X94690438Y-117500000D01*
X122165000Y-82570000D02*
X123641000Y-84046000D01*
X155500000Y-86000000D02*
X155500000Y-87520000D01*
X94690438Y-117500000D02*
X93426000Y-118764438D01*
X93426000Y-127500000D02*
X90043214Y-130882786D01*
X130500000Y-119500000D02*
X128500000Y-117500000D01*
X159500000Y-122840778D02*
X159500000Y-86500000D01*
X117085000Y-82570000D02*
X118561000Y-84046000D01*
X93426000Y-118764438D02*
X93426000Y-127500000D01*
X96875000Y-63685000D02*
X97280000Y-63280000D01*
X127245000Y-82570000D02*
X130315000Y-79500000D01*
X120689000Y-84046000D02*
X122165000Y-82570000D01*
X152515000Y-87375000D02*
X152715000Y-87575000D01*
X146447000Y-128500000D02*
X153840778Y-128500000D01*
X130500000Y-122390792D02*
X130500000Y-119500000D01*
X153500000Y-84000000D02*
X155500000Y-86000000D01*
X113481000Y-84046000D02*
X115609000Y-84046000D01*
X129796000Y-126133694D02*
X129796000Y-123094792D01*
X93500000Y-73901969D02*
X100055000Y-80456969D01*
X98211182Y-83715000D02*
X89555000Y-83715000D01*
X129796000Y-123094792D02*
X130500000Y-122390792D01*
X93500000Y-65000000D02*
X93500000Y-73901969D01*
X106925000Y-82570000D02*
X102168031Y-82570000D01*
X140838000Y-128500000D02*
X132162306Y-128500000D01*
X157000000Y-84000000D02*
X153500000Y-84000000D01*
X91367707Y-89126070D02*
X96778777Y-83715000D01*
X91588930Y-89126070D02*
X91367707Y-89126070D01*
X152515000Y-87375000D02*
X144895000Y-87375000D01*
X159500000Y-86500000D02*
X157000000Y-84000000D01*
X102168031Y-82570000D02*
X100055000Y-80456969D01*
X108401000Y-84046000D02*
X110529000Y-84046000D01*
X100055000Y-80456969D02*
X100055000Y-81871182D01*
X110529000Y-84046000D02*
X112005000Y-82570000D01*
X90043214Y-130882786D02*
X89122075Y-130882786D01*
X97280000Y-63280000D02*
X95220000Y-63280000D01*
X125769000Y-84046000D02*
X127245000Y-82570000D01*
X96778777Y-83715000D02*
X98211182Y-83715000D01*
X96875000Y-66525000D02*
X96875000Y-63685000D01*
X149000000Y-79500000D02*
X153500000Y-84000000D01*
X118561000Y-84046000D02*
X120689000Y-84046000D01*
X123641000Y-84046000D02*
X125769000Y-84046000D01*
X152715000Y-87575000D02*
X155555000Y-87575000D01*
X95220000Y-63280000D02*
X93500000Y-65000000D01*
X153840778Y-128500000D02*
X159500000Y-122840778D01*
X112005000Y-82570000D02*
X113481000Y-84046000D01*
D38*
%TO.N,GND*%
X99125000Y-69025000D02*
X96875000Y-69025000D01*
X152515000Y-89915000D02*
X155115000Y-89915000D01*
X133030000Y-71000000D02*
X133000000Y-71000000D01*
X100230000Y-63280000D02*
X100230000Y-67920000D01*
X155115000Y-89915000D02*
X155555000Y-89475000D01*
X100230000Y-67920000D02*
X99125000Y-69025000D01*
X155555000Y-89475000D02*
X155555000Y-89555000D01*
X133035000Y-71005000D02*
X133030000Y-71000000D01*
%TO.N,GPIO16*%
X143769000Y-107228595D02*
X143769000Y-108161405D01*
X144428595Y-108821000D02*
X145361405Y-108821000D01*
X139562190Y-106437810D02*
X143000000Y-106437810D01*
X143779893Y-107217703D02*
X143769000Y-107228595D01*
X146021000Y-108161405D02*
X146021000Y-107228595D01*
X135395000Y-114305000D02*
X135395000Y-110605000D01*
X145361405Y-108821000D02*
X146021000Y-108161405D01*
X146021000Y-107228595D02*
X145524405Y-106732000D01*
X143769000Y-108161405D02*
X144428595Y-108821000D01*
X145548215Y-106732000D02*
X146472000Y-105808215D01*
X143000000Y-106437810D02*
X143779893Y-107217703D01*
X135395000Y-110605000D02*
X139562190Y-106437810D01*
X137087707Y-91587707D02*
X137087707Y-89126070D01*
X145361405Y-98949000D02*
X144449000Y-98949000D01*
X145524405Y-106732000D02*
X145548215Y-106732000D01*
X146472000Y-100059595D02*
X145361405Y-98949000D01*
X146472000Y-105808215D02*
X146472000Y-100059595D01*
X144449000Y-98949000D02*
X137087707Y-91587707D01*
%TO.N,SD_CS*%
X120878000Y-81125000D02*
X120939000Y-81186000D01*
X120939000Y-86324000D02*
X121000000Y-86324000D01*
X111455000Y-81125000D02*
X120878000Y-81125000D01*
X121847707Y-87171707D02*
X121847707Y-89126070D01*
X109100000Y-77920000D02*
X109100000Y-78770000D01*
X121000000Y-86324000D02*
X121847707Y-87171707D01*
X109100000Y-78770000D02*
X111455000Y-81125000D01*
%TO.N,SD_MISO*%
X114600000Y-78422000D02*
X114600000Y-77920000D01*
X123500000Y-86500000D02*
X124387707Y-87387707D01*
X123500000Y-86324000D02*
X123500000Y-86500000D01*
X115377645Y-79199645D02*
X114600000Y-78422000D01*
X124387707Y-87387707D02*
X124387707Y-89126070D01*
X114900000Y-78422000D02*
X114900000Y-77920000D01*
X123500000Y-79199645D02*
X115377645Y-79199645D01*
%TO.N,LED0_DATA*%
X100435000Y-128300000D02*
X108251000Y-128300000D01*
X154482500Y-123000000D02*
X155820000Y-124337500D01*
X100317500Y-128182500D02*
X100435000Y-128300000D01*
X108251000Y-128300000D02*
X110451000Y-130500000D01*
X132671905Y-126671905D02*
X131449000Y-125449000D01*
X100317500Y-128182500D02*
X100436000Y-128301000D01*
X142515000Y-126671905D02*
X132671905Y-126671905D01*
X131449000Y-123779486D02*
X132228486Y-123000000D01*
X132228486Y-123000000D02*
X154482500Y-123000000D01*
X142201810Y-130500000D02*
X142515000Y-130186810D01*
X96945000Y-124810000D02*
X100317500Y-128182500D01*
X142515000Y-130186810D02*
X142515000Y-126671905D01*
X161856857Y-109438857D02*
X162182857Y-109112857D01*
X110451000Y-130500000D02*
X142201810Y-130500000D01*
X162182857Y-109112857D02*
X164432857Y-109112857D01*
X161856857Y-121068143D02*
X161856857Y-109438857D01*
X156695130Y-124337500D02*
X158553815Y-122478815D01*
X155820000Y-124337500D02*
X156695130Y-124337500D01*
X160425000Y-122500000D02*
X161856857Y-121068143D01*
X131449000Y-125449000D02*
X131449000Y-123779486D01*
%TO.N,LED_PIN3*%
X169250714Y-136249286D02*
X169250714Y-135395000D01*
D39*
X89125611Y-137625611D02*
X89125611Y-133669087D01*
X95760000Y-139000000D02*
X110187143Y-139000000D01*
X166682857Y-121540000D02*
X168500000Y-123357143D01*
X125969286Y-135395000D02*
X125969286Y-137645000D01*
X111542143Y-135395000D02*
X111542143Y-137645000D01*
X168500000Y-124000000D02*
X168500000Y-108430000D01*
X139041429Y-139000000D02*
X153468571Y-139000000D01*
X154823571Y-135395000D02*
X154823571Y-137645000D01*
X153468571Y-139000000D02*
X167895714Y-139000000D01*
X140396429Y-135395000D02*
X140396429Y-137645000D01*
X168500000Y-124000000D02*
X168500000Y-132000000D01*
X125969286Y-137645000D02*
X124614286Y-139000000D01*
X167895714Y-139000000D02*
X169250714Y-137645000D01*
X97115000Y-137645000D02*
X95760000Y-139000000D01*
X111542143Y-137645000D02*
X110187143Y-139000000D01*
X166682857Y-106612857D02*
X168500000Y-108430000D01*
X140396429Y-137645000D02*
X139041429Y-139000000D01*
X97115000Y-135395000D02*
X97115000Y-137645000D01*
X169250714Y-137645000D02*
X169250714Y-135395000D01*
X154823571Y-137645000D02*
X153468571Y-139000000D01*
X124614286Y-139000000D02*
X139041429Y-139000000D01*
X110187143Y-139000000D02*
X124614286Y-139000000D01*
X90500000Y-139000000D02*
X95760000Y-139000000D01*
X169250714Y-132750714D02*
X169250714Y-135395000D01*
X169250714Y-135395000D02*
X169500000Y-135145714D01*
X168500000Y-123357143D02*
X168500000Y-124000000D01*
X168500000Y-124000000D02*
X168500000Y-123000000D01*
X164432857Y-106612857D02*
X166682857Y-106612857D01*
X90500000Y-139000000D02*
X89125611Y-137625611D01*
X164432857Y-121540000D02*
X166682857Y-121540000D01*
X168500000Y-132000000D02*
X169250714Y-132750714D01*
D38*
%TO.N,LED1_DATA*%
X166682857Y-124040000D02*
X167008857Y-124366000D01*
X145826120Y-125677000D02*
X148498310Y-125677000D01*
X153862190Y-129500000D02*
X151445190Y-131917000D01*
X151445190Y-131917000D02*
X147054810Y-131917000D01*
X145672000Y-130534190D02*
X145672000Y-125831120D01*
X148498310Y-125677000D02*
X148675310Y-125500000D01*
X148675310Y-125500000D02*
X149796514Y-125500000D01*
X164432857Y-124040000D02*
X166682857Y-124040000D01*
X167008857Y-124366000D02*
X167008857Y-127991143D01*
X149796514Y-125500000D02*
X150959014Y-124337500D01*
X167008857Y-127991143D02*
X165500000Y-129500000D01*
X145672000Y-125831120D02*
X145826120Y-125677000D01*
X147054810Y-131917000D02*
X145672000Y-130534190D01*
X150959014Y-124337500D02*
X152510000Y-124337500D01*
X165500000Y-129500000D02*
X153862190Y-129500000D01*
%TO.N,LED2_DATA*%
X166750714Y-131250714D02*
X166750714Y-135395000D01*
X145639310Y-125226000D02*
X145221000Y-125644310D01*
X146868000Y-132368000D02*
X151632000Y-132368000D01*
X151632000Y-132368000D02*
X154049000Y-129951000D01*
X154049000Y-129951000D02*
X165451000Y-129951000D01*
X148311500Y-125226000D02*
X145639310Y-125226000D01*
X145221000Y-125644310D02*
X145221000Y-130721000D01*
X149200000Y-124337500D02*
X148311500Y-125226000D01*
X145221000Y-130721000D02*
X146868000Y-132368000D01*
X165451000Y-129951000D02*
X166750714Y-131250714D01*
%TO.N,LED3_DATA*%
X144770000Y-130907810D02*
X144770000Y-125457500D01*
X152323571Y-133323571D02*
X151819000Y-132819000D01*
X151819000Y-132819000D02*
X146681190Y-132819000D01*
X146681190Y-132819000D02*
X144770000Y-130907810D01*
X152323571Y-135395000D02*
X152323571Y-133323571D01*
X144770000Y-125457500D02*
X145890000Y-124337500D01*
%TO.N,LED4_DATA*%
X137896429Y-135395000D02*
X137896429Y-133145000D01*
X137896429Y-135395000D02*
X137896429Y-134673486D01*
X138688429Y-132353000D02*
X142900050Y-132353000D01*
X144319000Y-130934050D02*
X144319000Y-125319000D01*
X137896429Y-133145000D02*
X138688429Y-132353000D01*
X143337500Y-124337500D02*
X142580000Y-124337500D01*
X142900050Y-132353000D02*
X144319000Y-130934050D01*
X144319000Y-125319000D02*
X143337500Y-124337500D01*
%TO.N,LED5_DATA*%
X142713240Y-131902000D02*
X143868000Y-130747240D01*
X124712286Y-131902000D02*
X142362190Y-131902000D01*
X143868000Y-130747240D02*
X143868000Y-125505810D01*
X123469286Y-135395000D02*
X123469286Y-133145000D01*
X143868000Y-125505810D02*
X143681095Y-125318905D01*
X139270000Y-125318905D02*
X139270000Y-124337500D01*
X123469286Y-133145000D02*
X124712286Y-131902000D01*
X142362190Y-131902000D02*
X142713240Y-131902000D01*
X143681095Y-125318905D02*
X139270000Y-125318905D01*
%TO.N,LED7_DATA*%
X104500000Y-130000000D02*
X109313190Y-130000000D01*
X142966000Y-130373620D02*
X142966000Y-126220905D01*
X109313190Y-130000000D02*
X110264190Y-130951000D01*
X132858715Y-126220905D02*
X132650000Y-126012190D01*
X94615000Y-135395000D02*
X94615000Y-131885000D01*
X103877000Y-129377000D02*
X104500000Y-130000000D01*
X132650000Y-126012190D02*
X132650000Y-124337500D01*
X142966000Y-126220905D02*
X132858715Y-126220905D01*
X110264190Y-130951000D02*
X142388620Y-130951000D01*
X97123000Y-129377000D02*
X103877000Y-129377000D01*
X94615000Y-131885000D02*
X97123000Y-129377000D01*
X142388620Y-130951000D02*
X142966000Y-130373620D01*
%TO.N,MODE*%
X108676000Y-124020514D02*
X108676000Y-120213500D01*
X97298116Y-123500000D02*
X98121000Y-124322884D01*
X98121000Y-124351000D02*
X108345514Y-124351000D01*
X108676000Y-120213500D02*
X108000000Y-119537500D01*
X102432000Y-115932000D02*
X96782674Y-110282674D01*
X108000000Y-119537500D02*
X108000000Y-118425000D01*
X100113707Y-88947665D02*
X101162628Y-87898744D01*
X99000000Y-95500000D02*
X100113707Y-94386293D01*
X98121000Y-124322884D02*
X98121000Y-124351000D01*
X94351000Y-123500000D02*
X97298116Y-123500000D01*
X96782674Y-110282674D02*
X96782674Y-109717326D01*
X108000000Y-116575000D02*
X108000000Y-116500000D01*
X99000000Y-98000000D02*
X99000000Y-103704070D01*
X100113707Y-94386293D02*
X100113707Y-88947665D01*
X99000000Y-103704070D02*
X98000000Y-104704070D01*
X108000000Y-116500000D02*
X107432000Y-115932000D01*
X90591000Y-123634000D02*
X92366000Y-123634000D01*
X89475000Y-124750000D02*
X90591000Y-123634000D01*
X107432000Y-115932000D02*
X102432000Y-115932000D01*
X101162628Y-87898744D02*
X107898744Y-87898744D01*
X92366000Y-123634000D02*
X92500000Y-123500000D01*
X108345514Y-124351000D02*
X108676000Y-124020514D01*
%TO.N,SYNC_IN*%
X113934058Y-91565942D02*
X116373930Y-89126070D01*
X97565000Y-113145000D02*
X97645000Y-113145000D01*
X109200087Y-104388620D02*
X109200087Y-101299913D01*
X113565942Y-91932644D02*
X113932644Y-91565942D01*
X116373930Y-89126070D02*
X116767707Y-89126070D01*
X107837500Y-122837500D02*
X107837500Y-123325000D01*
X109200087Y-101299913D02*
X111951000Y-98549000D01*
X102260298Y-109000000D02*
X107000000Y-109000000D01*
X99260847Y-111239153D02*
X101501000Y-108999000D01*
X107825000Y-123325000D02*
X107837500Y-123325000D01*
X101501000Y-108999000D02*
X102259298Y-108999000D01*
X100000000Y-115580000D02*
X97565000Y-113145000D01*
X107000000Y-109000000D02*
X108000000Y-108000000D01*
X100000000Y-116575000D02*
X100000000Y-115580000D01*
X111951000Y-93549000D02*
X113565942Y-91934058D01*
X113932644Y-91565942D02*
X113934058Y-91565942D01*
X113565942Y-91934058D02*
X113565942Y-91932644D01*
X102259298Y-108999000D02*
X102260298Y-109000000D01*
X103425000Y-118425000D02*
X107837500Y-122837500D01*
X100000000Y-118425000D02*
X103425000Y-118425000D01*
X111951000Y-98549000D02*
X111951000Y-93549000D01*
%TO.N,SYNC_OUT*%
X110588810Y-130000000D02*
X107863810Y-127275000D01*
X157021000Y-120854486D02*
X157021000Y-121970514D01*
X130998000Y-123592676D02*
X130998000Y-125635810D01*
X157021000Y-121970514D02*
X156491514Y-122500000D01*
X160425000Y-97000000D02*
X163025000Y-97000000D01*
X156271000Y-120500000D02*
X156666514Y-120500000D01*
X132485095Y-127122905D02*
X142064000Y-127122905D01*
X156798000Y-98702000D02*
X156798000Y-112009075D01*
X132090676Y-122500000D02*
X130998000Y-123592676D01*
X107863810Y-127275000D02*
X107837500Y-127275000D01*
X156491514Y-122500000D02*
X132090676Y-122500000D01*
X156798000Y-112009075D02*
X156271000Y-112536075D01*
X142064000Y-129936000D02*
X142000000Y-130000000D01*
X142000000Y-130000000D02*
X110588810Y-130000000D01*
X158500000Y-97000000D02*
X156798000Y-98702000D01*
X163025000Y-97000000D02*
X163350000Y-97325000D01*
X107837500Y-128926000D02*
X98521000Y-128926000D01*
X156666514Y-120500000D02*
X157021000Y-120854486D01*
X156271000Y-112536075D02*
X156271000Y-120500000D01*
X142064000Y-127122905D02*
X142064000Y-129936000D01*
X158575000Y-97000000D02*
X158500000Y-97000000D01*
X130998000Y-125635810D02*
X132485095Y-127122905D01*
X98521000Y-128926000D02*
X96945000Y-127350000D01*
%TO.N,T_OUT0*%
X90895985Y-105395985D02*
X90895985Y-105149911D01*
X128147530Y-87852470D02*
X129350000Y-86650000D01*
X141630000Y-86650000D02*
X144895000Y-89915000D01*
X129350000Y-86650000D02*
X141630000Y-86650000D01*
X128147530Y-90271446D02*
X128147530Y-87852470D01*
X91000000Y-117000000D02*
X92500000Y-118500000D01*
X95000000Y-120325000D02*
X96945000Y-122270000D01*
X113500000Y-97355270D02*
X119581712Y-97355270D01*
X91000000Y-109000000D02*
X91000000Y-116000000D01*
X95000000Y-118500000D02*
X95000000Y-120325000D01*
X121063706Y-97355270D02*
X128147530Y-90271446D01*
X91000000Y-116000000D02*
X91000000Y-117000000D01*
X90895985Y-105149911D02*
X98690626Y-97355270D01*
X98690626Y-97355270D02*
X109500000Y-97355270D01*
%TO.N,T_OUT2*%
X139339070Y-90339070D02*
X140500000Y-91500000D01*
X140500000Y-91500000D02*
X141400000Y-91500000D01*
X122738078Y-90875000D02*
X117000000Y-90875000D01*
X139000000Y-90339070D02*
X139339070Y-90339070D01*
X122907743Y-90705335D02*
X122738078Y-90875000D01*
X141400000Y-91500000D02*
X144895000Y-94995000D01*
%TO.N,T_OUT7*%
X143151000Y-105951000D02*
X144895000Y-107695000D01*
X138042777Y-105951000D02*
X143151000Y-105951000D01*
X137087707Y-106906070D02*
X138042777Y-105951000D01*
%TO.N,T_OUT5*%
X135361372Y-104500000D02*
X143010000Y-104500000D01*
X129467707Y-106906070D02*
X130598707Y-108037070D01*
X133421707Y-106439665D02*
X135361372Y-104500000D01*
X132757112Y-108037070D02*
X133421707Y-107372475D01*
X143010000Y-104500000D02*
X144895000Y-102615000D01*
X130598707Y-108037070D02*
X132757112Y-108037070D01*
X133421707Y-107372475D02*
X133421707Y-106439665D01*
%TO.N,T_OUT4*%
X143647595Y-105500000D02*
X144428595Y-106281000D01*
X134558112Y-108488070D02*
X135795793Y-107250389D01*
X136901372Y-105500000D02*
X143647595Y-105500000D01*
X128509707Y-108488070D02*
X134558112Y-108488070D01*
X145361405Y-106281000D02*
X146021000Y-105621405D01*
X135795793Y-107250389D02*
X135795793Y-106605579D01*
X135795793Y-106605579D02*
X136901372Y-105500000D01*
X144428595Y-106281000D02*
X145361405Y-106281000D01*
X146021000Y-101201000D02*
X144895000Y-100075000D01*
X146021000Y-105621405D02*
X146021000Y-101201000D01*
X126927707Y-106906070D02*
X128509707Y-108488070D01*
%TO.N,T_OUT1*%
X144895000Y-92425000D02*
X144895000Y-92455000D01*
X141443190Y-87101000D02*
X143500000Y-89157810D01*
X133138707Y-87861293D02*
X133899000Y-87101000D01*
X92944707Y-105329070D02*
X91367707Y-106906070D01*
X121323004Y-97981270D02*
X121689706Y-97614568D01*
X132584727Y-90500000D02*
X133138707Y-89946020D01*
X128802860Y-90500000D02*
X132584727Y-90500000D01*
X121689706Y-97613154D02*
X128802860Y-90500000D01*
X143500000Y-89157810D02*
X143500000Y-91060000D01*
X121063707Y-98239153D02*
X121321590Y-97981270D01*
X113500000Y-98239153D02*
X119552860Y-98239153D01*
X109239153Y-98239153D02*
X102149236Y-105329070D01*
X133899000Y-87101000D02*
X141443190Y-87101000D01*
X121689706Y-97614568D02*
X121689706Y-97613154D01*
X143500000Y-91060000D02*
X144895000Y-92455000D01*
X133138707Y-89946020D02*
X133138707Y-87861293D01*
X102149236Y-105329070D02*
X92944707Y-105329070D01*
X121321590Y-97981270D02*
X121323004Y-97981270D01*
%TO.N,T_OUT3*%
X138680000Y-91320000D02*
X144895000Y-97535000D01*
X123000000Y-91500000D02*
X115500000Y-91500000D01*
X115500000Y-91500000D02*
X115353707Y-91353707D01*
%TO.N,SYNC_OUT_DRV*%
X110726620Y-129500000D02*
X141613000Y-129500000D01*
X141000000Y-103875000D02*
X141000000Y-97000000D01*
X130547000Y-125822620D02*
X130547000Y-123405866D01*
X141000000Y-97000000D02*
X134547707Y-90547707D01*
X107038500Y-126249000D02*
X108345514Y-126249000D01*
X134793810Y-119568380D02*
X134793810Y-118930570D01*
X141041942Y-112682438D02*
X141041942Y-107500000D01*
X131251000Y-120749000D02*
X131500000Y-120500000D01*
X106012500Y-127275000D02*
X107038500Y-126249000D01*
X131251000Y-122701866D02*
X131251000Y-120749000D01*
X108345514Y-126249000D02*
X108863310Y-126766796D01*
X141614000Y-128821430D02*
X141614000Y-128178570D01*
X141613000Y-128822430D02*
X141614000Y-128821430D01*
X141613000Y-128177570D02*
X141613000Y-127573905D01*
X134547707Y-90547707D02*
X134547707Y-89126070D01*
X133862190Y-120500000D02*
X134793810Y-119568380D01*
X141614000Y-128178570D02*
X141613000Y-128177570D01*
X134793810Y-118930570D02*
X141041942Y-112682438D01*
X141613000Y-129500000D02*
X141613000Y-128822430D01*
X130547000Y-123405866D02*
X131251000Y-122701866D01*
X108863310Y-127636690D02*
X110726620Y-129500000D01*
X108863310Y-126766796D02*
X108863310Y-127636690D01*
X141613000Y-127573905D02*
X132298285Y-127573905D01*
X131500000Y-120500000D02*
X133862190Y-120500000D01*
X132298285Y-127573905D02*
X130547000Y-125822620D01*
%TO.N,T_OUT6*%
X134547707Y-106906070D02*
X136453777Y-105000000D01*
X136453777Y-105000000D02*
X144740000Y-105000000D01*
X144740000Y-105000000D02*
X144895000Y-105155000D01*
%TO.N,ADC_VREF*%
X103797211Y-102797211D02*
X102175003Y-101175003D01*
X101527707Y-93527707D02*
X101527707Y-89126070D01*
X102175003Y-101175003D02*
X102175003Y-97980270D01*
X106008883Y-109624999D02*
X106008883Y-110083023D01*
X106962930Y-113812930D02*
X107455000Y-114305000D01*
X102173193Y-94173193D02*
X101527707Y-93527707D01*
X106962930Y-111037070D02*
X106962930Y-113812930D01*
X106008883Y-110083023D02*
X106962930Y-111037070D01*
%TO.N,RUN*%
X110000000Y-110167306D02*
X110178728Y-110167306D01*
X110178728Y-110167306D02*
X111462422Y-111451000D01*
X115075000Y-112819289D02*
X115075000Y-114305000D01*
X112402000Y-93981884D02*
X114191942Y-92191942D01*
X109825087Y-101674913D02*
X112402000Y-99098000D01*
X111462422Y-111451000D02*
X113706711Y-111451000D01*
X109825087Y-105210385D02*
X109825087Y-101674913D01*
X112402000Y-99098000D02*
X112402000Y-93981884D01*
X109438506Y-109605812D02*
X110000000Y-110167306D01*
X113706711Y-111451000D02*
X115075000Y-112819289D01*
X109438506Y-108718563D02*
X109438506Y-109605812D01*
%TO.N,AGND*%
X102000000Y-109625000D02*
X102000000Y-111390000D01*
X102000000Y-111390000D02*
X104915000Y-114305000D01*
X100500000Y-104605777D02*
X100401707Y-104704070D01*
X106607707Y-90622563D02*
X100500000Y-96730270D01*
X100500000Y-98000000D02*
X100500000Y-104605777D01*
X106607707Y-89126070D02*
X106607707Y-90622563D01*
%TO.N,3V3_EN*%
X109697804Y-108092563D02*
X110124192Y-108518951D01*
X101375000Y-97980270D02*
X101375000Y-104704070D01*
X110124192Y-108518951D02*
X110124192Y-109474960D01*
X96626070Y-89126070D02*
X96447707Y-89126070D01*
X99846386Y-96500000D02*
X99000000Y-96500000D01*
X99000000Y-96500000D02*
X98000000Y-95500000D01*
X110124192Y-109474960D02*
X111649232Y-111000000D01*
X111649232Y-111000000D02*
X114310000Y-111000000D01*
X98000000Y-95500000D02*
X98000000Y-90678363D01*
X101360693Y-94985693D02*
X99846386Y-96500000D01*
X107000000Y-110000000D02*
X108907437Y-108092563D01*
X114310000Y-111000000D02*
X117615000Y-114305000D01*
X98000000Y-90678363D02*
X96447707Y-89126070D01*
X108907437Y-108092563D02*
X109697804Y-108092563D01*
%TO.N,SD_MOSI*%
X112278000Y-80500000D02*
X110200000Y-78422000D01*
X110200000Y-78422000D02*
X110200000Y-77920000D01*
X126000000Y-80500000D02*
X112278000Y-80500000D01*
%TO.N,SD_SCK*%
X128500000Y-79824645D02*
X113454645Y-79824645D01*
X113454645Y-79824645D02*
X112400000Y-78770000D01*
X112400000Y-78770000D02*
X112400000Y-77920000D01*
%TO.N,+3V3*%
X93175000Y-81175000D02*
X89555000Y-81175000D01*
X99000000Y-87000000D02*
X99000000Y-89113777D01*
X128391000Y-68399000D02*
X140054000Y-68399000D01*
X94790000Y-82790000D02*
X93175000Y-81175000D01*
X111165521Y-105500000D02*
X110420770Y-105500000D01*
X90241707Y-121443293D02*
X90241707Y-105166379D01*
X112813707Y-106439665D02*
X112154112Y-105780070D01*
X157225000Y-70268486D02*
X157225000Y-70990000D01*
X97345926Y-82790000D02*
X94790000Y-82790000D01*
X110420770Y-105500000D02*
X110084385Y-105836385D01*
X111224000Y-76994000D02*
X111300000Y-77070000D01*
X115110640Y-109445119D02*
X112813707Y-107148186D01*
X97680819Y-87819182D02*
X98987707Y-89126070D01*
X128035000Y-72465000D02*
X128035000Y-71005000D01*
X109565789Y-105836385D02*
X108011554Y-104282150D01*
X99000000Y-87000000D02*
X102500000Y-83500000D01*
X89475000Y-122210000D02*
X90241707Y-121443293D01*
X109995000Y-114305000D02*
X109995000Y-111005000D01*
X140054000Y-68399000D02*
X154634000Y-68399000D01*
X128035000Y-68755000D02*
X128391000Y-68399000D01*
X164500000Y-76642857D02*
X164500000Y-70000000D01*
X90241707Y-105166379D02*
X95321707Y-100086379D01*
X111300000Y-77070000D02*
X112870000Y-75500000D01*
X104006000Y-76994000D02*
X111224000Y-76994000D01*
X97404074Y-85404074D02*
X99000000Y-87000000D01*
X96162190Y-87819182D02*
X97680819Y-87819182D01*
X103000000Y-81645000D02*
X103000000Y-78000000D01*
X164432857Y-76710000D02*
X164500000Y-76642857D01*
X95321707Y-100086379D02*
X95321707Y-88659665D01*
X112870000Y-75500000D02*
X116500000Y-75500000D01*
X142630000Y-70975000D02*
X140054000Y-68399000D01*
X124000000Y-76500000D02*
X128035000Y-72465000D01*
X95321707Y-88659665D02*
X96162190Y-87819182D01*
X162914000Y-68414000D02*
X159079486Y-68414000D01*
X164500000Y-70000000D02*
X162914000Y-68414000D01*
X96000000Y-99000000D02*
X96000000Y-99408086D01*
X111445591Y-105780070D02*
X111165521Y-105500000D01*
X159079486Y-68414000D02*
X157225000Y-70268486D01*
X119000000Y-76500000D02*
X124000000Y-76500000D01*
X103000000Y-78000000D02*
X104006000Y-76994000D01*
X99000000Y-89113777D02*
X98987707Y-89126070D01*
X154634000Y-68399000D02*
X157225000Y-70990000D01*
X106297211Y-100297211D02*
X105000000Y-99000000D01*
X128035000Y-71005000D02*
X128035000Y-68755000D01*
X108011554Y-104282150D02*
X108011554Y-102511554D01*
X111300000Y-77070000D02*
X111300000Y-77920000D01*
X112154112Y-105780070D02*
X111445591Y-105780070D01*
X105000000Y-99000000D02*
X102800003Y-99000000D01*
X96000000Y-99408086D02*
X95321707Y-100086379D01*
X110084385Y-105836385D02*
X109565789Y-105836385D01*
X112813707Y-107148186D02*
X112813707Y-106439665D01*
X109995000Y-111005000D02*
X110063769Y-110936231D01*
%TO.N,Net-(U1-B0)*%
X156347000Y-111822265D02*
X156347000Y-96287000D01*
X155820000Y-121412500D02*
X155820000Y-112349265D01*
X155820000Y-112349265D02*
X156347000Y-111822265D01*
X156347000Y-96287000D02*
X152515000Y-92455000D01*
%TO.N,Net-(U1-B1)*%
X155896000Y-111635455D02*
X155896000Y-98376000D01*
X152531455Y-115000000D02*
X155896000Y-111635455D01*
X155896000Y-98376000D02*
X152515000Y-94995000D01*
X152510000Y-115010000D02*
X152500000Y-115000000D01*
X152510000Y-121412500D02*
X152510000Y-115010000D01*
X152500000Y-115000000D02*
X152531455Y-115000000D01*
%TO.N,Net-(U1-B2)*%
X155445000Y-100465000D02*
X152515000Y-97535000D01*
X149200000Y-121412500D02*
X149200000Y-114800000D01*
X155445000Y-111448645D02*
X155445000Y-100465000D01*
X153089645Y-113804000D02*
X155445000Y-111448645D01*
X149200000Y-114800000D02*
X150196000Y-113804000D01*
X150196000Y-113804000D02*
X153089645Y-113804000D01*
%TO.N,Net-(U1-B3)*%
X154994000Y-102554000D02*
X152515000Y-100075000D01*
X154994000Y-111261835D02*
X154994000Y-102554000D01*
X147147000Y-113353000D02*
X152902835Y-113353000D01*
X145890000Y-114610000D02*
X147147000Y-113353000D01*
X152902835Y-113353000D02*
X154994000Y-111261835D01*
X145890000Y-121412500D02*
X145890000Y-114610000D01*
%TO.N,Net-(U1-B4)*%
X154543000Y-104643000D02*
X152515000Y-102615000D01*
X143598000Y-112902000D02*
X152716025Y-112902000D01*
X142580000Y-113920000D02*
X143598000Y-112902000D01*
X154543000Y-111075025D02*
X154543000Y-104643000D01*
X142580000Y-121412500D02*
X142580000Y-113920000D01*
X152716025Y-112902000D02*
X154543000Y-111075025D01*
%TO.N,Net-(U1-B5)*%
X152529215Y-112451000D02*
X154092000Y-110888215D01*
X154092000Y-110888215D02*
X154092000Y-106732000D01*
X143218060Y-112451000D02*
X152529215Y-112451000D01*
X139270000Y-121412500D02*
X139270000Y-116399060D01*
X139270000Y-116399060D02*
X143218060Y-112451000D01*
X154092000Y-106732000D02*
X152515000Y-105155000D01*
%TO.N,Net-(U1-B6)*%
X153641000Y-108821000D02*
X152515000Y-107695000D01*
X143000000Y-112000000D02*
X152342405Y-112000000D01*
X135960000Y-121412500D02*
X135960000Y-119040000D01*
X152342405Y-112000000D02*
X153641000Y-110701405D01*
X135960000Y-119040000D02*
X143000000Y-112000000D01*
X153641000Y-110701405D02*
X153641000Y-108821000D01*
%TO.N,Net-(U1-B7)*%
X135244810Y-119117380D02*
X142813190Y-111549000D01*
X142813190Y-111549000D02*
X152155595Y-111549000D01*
X135244810Y-119755190D02*
X135244810Y-119117380D01*
X152515000Y-111189595D02*
X152515000Y-110235000D01*
X133093905Y-120975000D02*
X133118905Y-121000000D01*
X133118905Y-121000000D02*
X134000000Y-121000000D01*
X152155595Y-111549000D02*
X152515000Y-111189595D01*
X133087500Y-120975000D02*
X133093905Y-120975000D01*
X134000000Y-121000000D02*
X135244810Y-119755190D01*
X132650000Y-121412500D02*
X133087500Y-120975000D01*
%TO.N,GPIO11*%
X131550000Y-113000000D02*
X129647810Y-113000000D01*
X129647810Y-113000000D02*
X129147810Y-112500000D01*
X126775620Y-112500000D02*
X124387707Y-110112087D01*
X124387707Y-110112087D02*
X124387707Y-106906070D01*
X129147810Y-112500000D02*
X126775620Y-112500000D01*
X132855000Y-114305000D02*
X131550000Y-113000000D01*
%TO.N,GPIO4*%
X136300003Y-81947997D02*
X136300003Y-80500000D01*
X136300003Y-78500000D02*
X139855000Y-78500000D01*
X105193707Y-103807707D02*
X111012707Y-97988707D01*
X133000000Y-85248000D02*
X136300003Y-81947997D01*
X110561707Y-87938293D02*
X113252000Y-85248000D01*
X111012707Y-97988707D02*
X111012707Y-90043475D01*
X110561707Y-89592475D02*
X110561707Y-87938293D01*
X113252000Y-85248000D02*
X133000000Y-85248000D01*
X104534112Y-108032070D02*
X105193707Y-107372475D01*
X105193707Y-107372475D02*
X105193707Y-103807707D01*
X102653707Y-108032070D02*
X104534112Y-108032070D01*
X145130000Y-73225000D02*
X145130000Y-70975000D01*
X139855000Y-78500000D02*
X145130000Y-73225000D01*
X101527707Y-106906070D02*
X102653707Y-108032070D01*
X111012707Y-90043475D02*
X110561707Y-89592475D01*
%TO.N,GPIO8*%
X114227707Y-107227707D02*
X116549000Y-109549000D01*
X123500000Y-113000000D02*
X124805000Y-114305000D01*
X122637810Y-113000000D02*
X123500000Y-113000000D01*
X116549000Y-109549000D02*
X119186810Y-109549000D01*
X119186810Y-109549000D02*
X122637810Y-113000000D01*
X124805000Y-114305000D02*
X125235000Y-114305000D01*
X114227707Y-106906070D02*
X114227707Y-107227707D01*
%TO.N,GPIO9*%
X116767707Y-108267707D02*
X116767707Y-106906070D01*
X119373620Y-109098000D02*
X117598000Y-109098000D01*
X124137810Y-113000000D02*
X123686810Y-112549000D01*
X126000000Y-113000000D02*
X124137810Y-113000000D01*
X117598000Y-109098000D02*
X116767707Y-108267707D01*
X122824620Y-112549000D02*
X119373620Y-109098000D01*
X123686810Y-112549000D02*
X122824620Y-112549000D01*
X127305000Y-114305000D02*
X126000000Y-113000000D01*
X127775000Y-114305000D02*
X127305000Y-114305000D01*
%TO.N,GPIO5*%
X104067707Y-104295897D02*
X110431802Y-97931802D01*
X135500000Y-78500000D02*
X130535000Y-73535000D01*
X130535000Y-73535000D02*
X130535000Y-71005000D01*
X131203000Y-84797000D02*
X133000000Y-83000000D01*
X110431802Y-92193095D02*
X108000000Y-89761293D01*
X133000000Y-83000000D02*
X135500000Y-80500000D01*
X110431802Y-97931802D02*
X110431802Y-92193095D01*
X111884372Y-84797000D02*
X131203000Y-84797000D01*
X108000000Y-89761293D02*
X108000000Y-88681372D01*
X108000000Y-88681372D02*
X111884372Y-84797000D01*
X104067707Y-106906070D02*
X104067707Y-104295897D01*
%TO.N,GPIO7*%
X114879637Y-110098000D02*
X119098000Y-110098000D01*
X111687707Y-106906070D02*
X114879637Y-110098000D01*
X119098000Y-110098000D02*
X122695000Y-113695000D01*
X122695000Y-113695000D02*
X122695000Y-114305000D01*
%TO.N,GPIO10*%
X128961000Y-112951000D02*
X126588810Y-112951000D01*
X124275620Y-112500000D02*
X123873620Y-112098000D01*
X123011430Y-112098000D02*
X121847707Y-110934277D01*
X121847707Y-110934277D02*
X121847707Y-106906070D01*
X123873620Y-112098000D02*
X123011430Y-112098000D01*
X126588810Y-112951000D02*
X126137810Y-112500000D01*
X126137810Y-112500000D02*
X124275620Y-112500000D01*
X130315000Y-114305000D02*
X128961000Y-112951000D01*
%TO.N,GPIO3*%
X96307351Y-109307351D02*
X96523376Y-109091326D01*
X125513707Y-106439665D02*
X120437706Y-101363664D01*
X96914112Y-105780070D02*
X95981302Y-105780070D01*
X127301000Y-86199000D02*
X147801000Y-86199000D01*
X152500000Y-81500000D02*
X154790000Y-79210000D01*
X125513707Y-107372475D02*
X125513707Y-106439665D01*
X134031000Y-114792116D02*
X134031000Y-113817884D01*
X97408674Y-109976624D02*
X97261554Y-110123744D01*
X97041972Y-109091326D02*
X97408674Y-109458028D01*
X98040112Y-106906070D02*
X96914112Y-105780070D01*
X97408674Y-109458028D02*
X97408674Y-109976624D01*
X127270954Y-108032070D02*
X126173302Y-108032070D01*
X95321707Y-108321707D02*
X96307351Y-109307351D01*
X97261554Y-110123744D02*
X102618810Y-115481000D01*
X125801707Y-87698293D02*
X127301000Y-86199000D01*
X134031000Y-113817884D02*
X133342116Y-113129000D01*
X120437706Y-101363664D02*
X120437706Y-97095972D01*
X133342116Y-115481000D02*
X134031000Y-114792116D01*
X154790000Y-79210000D02*
X164432857Y-79210000D01*
X98987707Y-106906070D02*
X98040112Y-106906070D01*
X95321707Y-106439665D02*
X95321707Y-108321707D01*
X95981302Y-105780070D02*
X95321707Y-106439665D01*
X147801000Y-86199000D02*
X151095926Y-82904074D01*
X126173302Y-108032070D02*
X125513707Y-107372475D01*
X125801707Y-91731971D02*
X125801707Y-87698293D01*
X102618810Y-115481000D02*
X133342116Y-115481000D01*
X120437706Y-97095972D02*
X125801707Y-91731971D01*
X132367884Y-113129000D02*
X127270954Y-108032070D01*
X133342116Y-113129000D02*
X132367884Y-113129000D01*
X96523376Y-109091326D02*
X97041972Y-109091326D01*
%TO.N,GPIO2*%
X106630185Y-108483070D02*
X107738707Y-107374548D01*
X113101707Y-88659665D02*
X116062372Y-85699000D01*
X111500000Y-93000000D02*
X113101707Y-91398293D01*
X159725000Y-73143626D02*
X159725000Y-70990000D01*
X147000000Y-85699000D02*
X147189889Y-85699000D01*
X106775070Y-105775070D02*
X106000000Y-105000000D01*
X107738707Y-106086120D02*
X107427657Y-105775070D01*
X147189889Y-85699000D02*
X150433786Y-82455103D01*
X106000000Y-105000000D02*
X106000000Y-103639224D01*
X116062372Y-85699000D02*
X147000000Y-85699000D01*
X96447707Y-106906070D02*
X98024707Y-108483070D01*
X107427657Y-105775070D02*
X106775070Y-105775070D01*
X98024707Y-108483070D02*
X106630185Y-108483070D01*
X151934313Y-80934313D02*
X159725000Y-73143626D01*
X107738707Y-107374548D02*
X107738707Y-106086120D01*
X111500000Y-98139224D02*
X111500000Y-93000000D01*
X106000000Y-103639224D02*
X111500000Y-98139224D01*
X113101707Y-91398293D02*
X113101707Y-88659665D01*
X147000000Y-85699000D02*
X147266000Y-85699000D01*
%TO.N,GPIO6*%
X112790637Y-110549000D02*
X109147707Y-106906070D01*
X118911190Y-110549000D02*
X112790637Y-110549000D01*
X120155000Y-111792810D02*
X118911190Y-110549000D01*
X120155000Y-114305000D02*
X120155000Y-111792810D01*
%TD*%
M02*
