%TF.GenerationSoftware,KiCad,Pcbnew,9.0.7*%
%TF.CreationDate,2026-03-09T21:31:06+01:00*%
%TF.ProjectId,LedScreen,4c656453-6372-4656-956e-2e6b69636164,rev?*%
%TF.SameCoordinates,Original*%
%TF.FileFunction,Soldermask,Top*%
%TF.FilePolarity,Negative*%
%FSLAX46Y46*%
G04 Gerber Fmt 4.6, Leading zero omitted, Abs format (unit mm)*
G04 Created by KiCad (PCBNEW 9.0.7) date 2026-03-09 21:31:06*
%MOMM*%
%LPD*%
G01*
G04 APERTURE LIST*
G04 Aperture macros list*
%AMRoundRect*
0 Rectangle with rounded corners*
0 $1 Rounding radius*
0 $2 $3 $4 $5 $6 $7 $8 $9 X,Y pos of 4 corners*
0 Add a 4 corners polygon primitive as box body*
4,1,4,$2,$3,$4,$5,$6,$7,$8,$9,$2,$3,0*
0 Add four circle primitives for the rounded corners*
1,1,$1+$1,$2,$3*
1,1,$1+$1,$4,$5*
1,1,$1+$1,$6,$7*
1,1,$1+$1,$8,$9*
0 Add four rect primitives between the rounded corners*
20,1,$1+$1,$2,$3,$4,$5,0*
20,1,$1+$1,$4,$5,$6,$7,0*
20,1,$1+$1,$6,$7,$8,$9,0*
20,1,$1+$1,$8,$9,$2,$3,0*%
%AMFreePoly0*
4,1,37,0.603843,0.796157,0.639018,0.796157,0.711114,0.766294,0.766294,0.711114,0.796157,0.639018,0.796157,0.603843,0.800000,0.600000,0.800000,-0.600000,0.796157,-0.603843,0.796157,-0.639018,0.766294,-0.711114,0.711114,-0.766294,0.639018,-0.796157,0.603843,-0.796157,0.600000,-0.800000,0.000000,-0.800000,0.000000,-0.796148,-0.078414,-0.796148,-0.232228,-0.765552,-0.377117,-0.705537,
-0.507515,-0.618408,-0.618408,-0.507515,-0.705537,-0.377117,-0.765552,-0.232228,-0.796148,-0.078414,-0.796148,0.078414,-0.765552,0.232228,-0.705537,0.377117,-0.618408,0.507515,-0.507515,0.618408,-0.377117,0.705537,-0.232228,0.765552,-0.078414,0.796148,0.000000,0.796148,0.000000,0.800000,0.600000,0.800000,0.603843,0.796157,0.603843,0.796157,$1*%
%AMFreePoly1*
4,1,37,0.000000,0.796148,0.078414,0.796148,0.232228,0.765552,0.377117,0.705537,0.507515,0.618408,0.618408,0.507515,0.705537,0.377117,0.765552,0.232228,0.796148,0.078414,0.796148,-0.078414,0.765552,-0.232228,0.705537,-0.377117,0.618408,-0.507515,0.507515,-0.618408,0.377117,-0.705537,0.232228,-0.765552,0.078414,-0.796148,0.000000,-0.796148,0.000000,-0.800000,-0.600000,-0.800000,
-0.603843,-0.796157,-0.639018,-0.796157,-0.711114,-0.766294,-0.766294,-0.711114,-0.796157,-0.639018,-0.796157,-0.603843,-0.800000,-0.600000,-0.800000,0.600000,-0.796157,0.603843,-0.796157,0.639018,-0.766294,0.711114,-0.711114,0.766294,-0.639018,0.796157,-0.603843,0.796157,-0.600000,0.800000,0.000000,0.800000,0.000000,0.796148,0.000000,0.796148,$1*%
G04 Aperture macros list end*
%ADD10RoundRect,0.250000X-0.625000X0.312500X-0.625000X-0.312500X0.625000X-0.312500X0.625000X0.312500X0*%
%ADD11RoundRect,0.250000X0.400000X2.000000X-0.400000X2.000000X-0.400000X-2.000000X0.400000X-2.000000X0*%
%ADD12RoundRect,0.250000X0.650000X1.700000X-0.650000X1.700000X-0.650000X-1.700000X0.650000X-1.700000X0*%
%ADD13R,1.700000X1.700000*%
%ADD14R,0.700000X1.200000*%
%ADD15R,1.000000X0.800000*%
%ADD16R,1.000000X1.200000*%
%ADD17R,1.000000X2.800000*%
%ADD18R,1.300000X1.900000*%
%ADD19C,1.700000*%
%ADD20C,3.200000*%
%ADD21RoundRect,0.250000X2.000000X-0.400000X2.000000X0.400000X-2.000000X0.400000X-2.000000X-0.400000X0*%
%ADD22RoundRect,0.250000X1.700000X-0.650000X1.700000X0.650000X-1.700000X0.650000X-1.700000X-0.650000X0*%
%ADD23RoundRect,0.250000X-0.400000X-2.000000X0.400000X-2.000000X0.400000X2.000000X-0.400000X2.000000X0*%
%ADD24RoundRect,0.250000X-0.650000X-1.700000X0.650000X-1.700000X0.650000X1.700000X-0.650000X1.700000X0*%
%ADD25RoundRect,0.250000X-2.000000X0.400000X-2.000000X-0.400000X2.000000X-0.400000X2.000000X0.400000X0*%
%ADD26RoundRect,0.250000X-1.700000X0.650000X-1.700000X-0.650000X1.700000X-0.650000X1.700000X0.650000X0*%
%ADD27RoundRect,0.250000X-0.262500X-0.450000X0.262500X-0.450000X0.262500X0.450000X-0.262500X0.450000X0*%
%ADD28RoundRect,0.250000X-0.750000X-0.750000X0.750000X-0.750000X0.750000X0.750000X-0.750000X0.750000X0*%
%ADD29C,2.000000*%
%ADD30C,1.600000*%
%ADD31R,1.600000X1.600000*%
%ADD32RoundRect,0.200000X0.600000X-0.600000X0.600000X0.600000X-0.600000X0.600000X-0.600000X-0.600000X0*%
%ADD33FreePoly0,90.000000*%
%ADD34FreePoly1,90.000000*%
%ADD35RoundRect,0.250000X-0.475000X0.250000X-0.475000X-0.250000X0.475000X-0.250000X0.475000X0.250000X0*%
%ADD36RoundRect,0.250000X0.325000X0.650000X-0.325000X0.650000X-0.325000X-0.650000X0.325000X-0.650000X0*%
G04 APERTURE END LIST*
D10*
%TO.C,R5*%
X142580000Y-121412500D03*
X142580000Y-124337500D03*
%TD*%
D11*
%TO.C,J_GPIO13*%
X162225000Y-70990000D03*
X159725000Y-70990000D03*
X157225000Y-70990000D03*
D12*
X165425000Y-64190000D03*
X154025000Y-64190000D03*
%TD*%
D10*
%TO.C,R8*%
X132650000Y-121412500D03*
X132650000Y-124337500D03*
%TD*%
D13*
%TO.C,*%
X90984651Y-78635000D03*
%TD*%
D14*
%TO.C,J1*%
X108000000Y-77920000D03*
X109100000Y-77920000D03*
X110200000Y-77920000D03*
X111300000Y-77920000D03*
X112400000Y-77920000D03*
X113500000Y-77920000D03*
X114600000Y-77920000D03*
X115700000Y-77920000D03*
X116650000Y-77920000D03*
D15*
X117600000Y-67420000D03*
D16*
X117600000Y-73620000D03*
D17*
X117600000Y-63270000D03*
D16*
X106450000Y-77920000D03*
D18*
X104100000Y-62820000D03*
%TD*%
D13*
%TO.C,J_TP_PWR1*%
X89555000Y-78635000D03*
D19*
X89555000Y-81175000D03*
X89555000Y-83715000D03*
%TD*%
D20*
%TO.C,REF\u002A\u002A*%
X117000000Y-123000000D03*
%TD*%
D13*
%TO.C,GPIO1*%
X104915000Y-114305000D03*
D19*
X107455000Y-114305000D03*
X109995000Y-114305000D03*
X112535000Y-114305000D03*
X115075000Y-114305000D03*
X117615000Y-114305000D03*
X120155000Y-114305000D03*
X122695000Y-114305000D03*
X125235000Y-114305000D03*
X127775000Y-114305000D03*
X130315000Y-114305000D03*
X132855000Y-114305000D03*
X135395000Y-114305000D03*
%TD*%
D21*
%TO.C,J_LED1*%
X164432857Y-126540000D03*
X164432857Y-124040000D03*
X164432857Y-121540000D03*
D22*
X171232857Y-129740000D03*
X171232857Y-118340000D03*
%TD*%
D10*
%TO.C,R7*%
X135960000Y-121412500D03*
X135960000Y-124337500D03*
%TD*%
D11*
%TO.C,J_GPIO15*%
X147630000Y-70975000D03*
X145130000Y-70975000D03*
X142630000Y-70975000D03*
D12*
X150830000Y-64175000D03*
X139430000Y-64175000D03*
%TD*%
D23*
%TO.C,J_LED7*%
X92115000Y-135395000D03*
X94615000Y-135395000D03*
X97115000Y-135395000D03*
D24*
X88915000Y-142195000D03*
X100315000Y-142195000D03*
%TD*%
D23*
%TO.C,J_LED5*%
X120969286Y-135395000D03*
X123469286Y-135395000D03*
X125969286Y-135395000D03*
D24*
X117769286Y-142195000D03*
X129169286Y-142195000D03*
%TD*%
D10*
%TO.C,R4*%
X145890000Y-121412500D03*
X145890000Y-124337500D03*
%TD*%
D25*
%TO.C,J_PWR1*%
X96875000Y-66525000D03*
X96875000Y-69025000D03*
X96875000Y-71525000D03*
D26*
X90075000Y-63325000D03*
X90075000Y-74725000D03*
%TD*%
D23*
%TO.C,J_LED3*%
X149823571Y-135395000D03*
X152323571Y-135395000D03*
X154823571Y-135395000D03*
D24*
X146623571Y-142195000D03*
X158023571Y-142195000D03*
%TD*%
D27*
%TO.C,R_SYNC_SER1*%
X106012500Y-127275000D03*
X107837500Y-127275000D03*
%TD*%
D20*
%TO.C,REF\u002A\u002A*%
X169000000Y-91000000D03*
%TD*%
D28*
%TO.C,C2*%
X95055000Y-80456969D03*
D29*
X100055000Y-80456969D03*
%TD*%
D23*
%TO.C,J_LED4*%
X135396429Y-135395000D03*
X137896429Y-135395000D03*
X140396429Y-135395000D03*
D24*
X132196429Y-142195000D03*
X143596429Y-142195000D03*
%TD*%
D30*
%TO.C,U1*%
X144895000Y-87375000D03*
X144895000Y-89915000D03*
X144895000Y-92455000D03*
X144895000Y-94995000D03*
X144895000Y-97535000D03*
X144895000Y-100075000D03*
X144895000Y-102615000D03*
X144895000Y-105155000D03*
X144895000Y-107695000D03*
D31*
X144895000Y-110235000D03*
D30*
X152515000Y-110235000D03*
X152515000Y-107695000D03*
X152515000Y-105155000D03*
X152515000Y-102615000D03*
X152515000Y-100075000D03*
X152515000Y-97535000D03*
X152515000Y-94995000D03*
X152515000Y-92455000D03*
D31*
X152515000Y-89915000D03*
D30*
X152515000Y-87375000D03*
%TD*%
D13*
%TO.C,V2*%
X89122075Y-130882786D03*
%TD*%
%TO.C,J_PWRA1*%
X106925000Y-82570000D03*
D19*
X109465000Y-82570000D03*
X112005000Y-82570000D03*
X114545000Y-82570000D03*
X117085000Y-82570000D03*
X119625000Y-82570000D03*
X122165000Y-82570000D03*
X124705000Y-82570000D03*
X127245000Y-82570000D03*
X129785000Y-82570000D03*
%TD*%
D13*
%TO.C,V5*%
X89125611Y-133669087D03*
%TD*%
D10*
%TO.C,R1*%
X155820000Y-121412500D03*
X155820000Y-124337500D03*
%TD*%
%TO.C,R6*%
X139270000Y-121412500D03*
X139270000Y-124337500D03*
%TD*%
D13*
%TO.C,J_SYNC_IN1*%
X97565000Y-115685000D03*
D19*
X97565000Y-113145000D03*
%TD*%
%TO.C,*%
X90984651Y-81175000D03*
%TD*%
D21*
%TO.C,J_LED0*%
X164432857Y-111612857D03*
X164432857Y-109112857D03*
X164432857Y-106612857D03*
D22*
X171232857Y-114812857D03*
X171232857Y-103412857D03*
%TD*%
D10*
%TO.C,R2*%
X152510000Y-121412500D03*
X152510000Y-124337500D03*
%TD*%
D32*
%TO.C,A1*%
X88827707Y-106906070D03*
D30*
X91367707Y-106906070D03*
D33*
X93907707Y-106906070D03*
D30*
X96447707Y-106906070D03*
X98987707Y-106906070D03*
X101527707Y-106906070D03*
X104067707Y-106906070D03*
D33*
X106607707Y-106906070D03*
D30*
X109147707Y-106906070D03*
X111687707Y-106906070D03*
X114227707Y-106906070D03*
X116767707Y-106906070D03*
D33*
X119307707Y-106906070D03*
D30*
X121847707Y-106906070D03*
X124387707Y-106906070D03*
X126927707Y-106906070D03*
X129467707Y-106906070D03*
D33*
X132007707Y-106906070D03*
D30*
X134547707Y-106906070D03*
X137087707Y-106906070D03*
X137087707Y-89126070D03*
X134547707Y-89126070D03*
D34*
X132007707Y-89126070D03*
D30*
X129467707Y-89126070D03*
X126927707Y-89126070D03*
X124387707Y-89126070D03*
X121847707Y-89126070D03*
D34*
X119307707Y-89126070D03*
D30*
X116767707Y-89126070D03*
X114227707Y-89126070D03*
X111687707Y-89126070D03*
X109147707Y-89126070D03*
D34*
X106607707Y-89126070D03*
D30*
X104067707Y-89126070D03*
X101527707Y-89126070D03*
X98987707Y-89126070D03*
X96447707Y-89126070D03*
D34*
X93907707Y-89126070D03*
D30*
X91367707Y-89126070D03*
X88827707Y-89126070D03*
%TD*%
D23*
%TO.C,J_LED6*%
X106542143Y-135395000D03*
X109042143Y-135395000D03*
X111542143Y-135395000D03*
D24*
X103342143Y-142195000D03*
X114742143Y-142195000D03*
%TD*%
D20*
%TO.C,REF\u002A\u002A*%
X102000000Y-133000000D03*
%TD*%
D27*
%TO.C,R_SYNC_PD1*%
X106012500Y-123325000D03*
X107837500Y-123325000D03*
%TD*%
D35*
%TO.C,C1*%
X155555000Y-87575000D03*
X155555000Y-89475000D03*
%TD*%
D10*
%TO.C,R3*%
X149200000Y-121412500D03*
X149200000Y-124337500D03*
%TD*%
D13*
%TO.C,J_SYNC_OUT1*%
X163350000Y-97325000D03*
D19*
X163350000Y-99865000D03*
%TD*%
D13*
%TO.C,J_MODE1*%
X89475000Y-127290000D03*
D19*
X89475000Y-124750000D03*
X89475000Y-122210000D03*
%TD*%
D13*
%TO.C,J_TP_SIG1*%
X96945000Y-127350000D03*
D19*
X96945000Y-124810000D03*
X96945000Y-122270000D03*
%TD*%
D23*
%TO.C,J_LED2*%
X164250714Y-135395000D03*
X166750714Y-135395000D03*
X169250714Y-135395000D03*
D24*
X161050714Y-142195000D03*
X172450714Y-142195000D03*
%TD*%
D21*
%TO.C,J_GPIO14*%
X164432857Y-81710000D03*
X164432857Y-79210000D03*
X164432857Y-76710000D03*
D22*
X171232857Y-84910000D03*
X171232857Y-73510000D03*
%TD*%
D20*
%TO.C,REF\u002A\u002A*%
X159500000Y-133000000D03*
%TD*%
%TO.C,REF\u002A\u002A*%
X122500000Y-73000000D03*
%TD*%
D19*
%TO.C,*%
X90984651Y-83715000D03*
%TD*%
D27*
%TO.C,R_MODE_PD1*%
X106012500Y-119375000D03*
X107837500Y-119375000D03*
%TD*%
D11*
%TO.C,J_GPIO16*%
X133035000Y-71005000D03*
X130535000Y-71005000D03*
X128035000Y-71005000D03*
D12*
X136235000Y-64205000D03*
X124835000Y-64205000D03*
%TD*%
D36*
%TO.C,C3*%
X100230000Y-63280000D03*
X97280000Y-63280000D03*
%TD*%
M02*
